<svg width="280" height="282" viewBox="0 0 280 282" fill="none" xmlns="http://www.w3.org/2000/svg">
<path d="M243.841 209.415C246.943 222.32 246.74 237.871 241.516 240.606C236.293 243.342 225.908 233.336 219.43 222.199C210.476 206.803 210.029 190.403 219.531 185.427C229.034 180.45 239.554 191.575 243.841 209.415Z" fill="white"/>
<mask id="mask0_0_839" style="mask-type:alpha" maskUnits="userSpaceOnUse" x="212" y="184" width="34" height="58">
<path fill-rule="evenodd" clip-rule="evenodd" d="M243.841 209.415C246.943 222.32 246.74 237.871 241.516 240.606C236.293 243.342 225.908 233.336 219.43 222.199C210.476 206.803 210.029 190.403 219.531 185.427C229.034 180.45 239.554 191.575 243.841 209.415Z" fill="white"/>
</mask>
<g mask="url(#mask0_0_839)">
<path d="M219.855 177.768C205.621 220.814 238.268 237.779 238.268 237.779L206.887 221.827L207.14 185.365" fill="white"/>
</g>
<path fill-rule="evenodd" clip-rule="evenodd" d="M243.841 209.415C246.943 222.32 246.74 237.871 241.516 240.606C236.293 243.342 225.908 233.336 219.43 222.199C210.476 206.803 210.029 190.403 219.531 185.427C229.034 180.45 239.554 191.575 243.841 209.415Z" stroke="#1B1B1B" stroke-width="0.7" stroke-linecap="round" stroke-linejoin="round"/>
<path d="M273.454 226.215C267.831 237.947 258.23 248.934 252.822 246.721C247.414 244.508 246.051 229.034 248.178 215.872C251.118 197.677 260.77 185.561 270.609 189.587C280.448 193.613 281.226 209.997 273.454 226.215Z" fill="white"/>
<mask id="mask1_0_839" style="mask-type:alpha" maskUnits="userSpaceOnUse" x="247" y="188" width="32" height="60">
<path fill-rule="evenodd" clip-rule="evenodd" d="M273.454 226.215C267.831 237.947 258.23 248.934 252.822 246.721C247.414 244.508 246.051 229.034 248.178 215.872C251.118 197.677 260.77 185.561 270.609 189.587C280.448 193.613 281.226 209.997 273.454 226.215Z" fill="white"/>
</mask>
<g mask="url(#mask1_0_839)">
<path d="M265.307 173.994C291.414 197.772 243.836 241.062 243.836 241.062L255.731 173.994" fill="white"/>
</g>
<path fill-rule="evenodd" clip-rule="evenodd" d="M273.454 226.215C267.831 237.947 258.23 248.934 252.822 246.721C247.414 244.508 246.051 229.034 248.178 215.872C251.118 197.677 260.77 185.561 270.609 189.587C280.448 193.613 281.226 209.997 273.454 226.215Z" stroke="#1B1B1B" stroke-width="0.7" stroke-linecap="round" stroke-linejoin="round"/>
<path d="M266.179 198.926C263.985 215.931 256.85 234.052 249.682 234.12C242.513 234.189 235.116 216.206 232.675 199.246C229.302 175.8 236.073 156.292 249.115 156.167C262.157 156.043 269.211 175.419 266.179 198.926Z" fill="white"/>
<mask id="mask2_0_839" style="mask-type:alpha" maskUnits="userSpaceOnUse" x="231" y="156" width="36" height="79">
<path fill-rule="evenodd" clip-rule="evenodd" d="M266.178 198.926C263.984 215.931 256.849 234.052 249.681 234.12C242.512 234.189 235.115 216.206 232.674 199.246C229.301 175.8 236.073 156.292 249.114 156.167C262.156 156.043 269.21 175.419 266.178 198.926Z" fill="white"/>
</mask>
<g mask="url(#mask2_0_839)">
<path d="M262.351 165.728C229.916 137.001 237.078 216.629 247.543 234.294C258.008 251.959 219.855 208.426 219.855 208.426L214.226 146.877L237.002 145.104C237.002 145.104 256.995 143.585 258.514 146.117C260.032 148.649 266.876 165.867 266.876 165.867" fill="white"/>
</g>
<path fill-rule="evenodd" clip-rule="evenodd" d="M266.179 198.926C263.985 215.931 256.85 234.052 249.682 234.12C242.513 234.189 235.116 216.206 232.675 199.246C229.302 175.8 236.073 156.292 249.115 156.167C262.157 156.043 269.211 175.419 266.179 198.926Z" stroke="#1B1B1B" stroke-width="0.7" stroke-linecap="round" stroke-linejoin="round"/>
<path d="M219.855 229.065L226.636 276.737C226.636 278.184 235.699 279.358 246.878 279.358C258.057 279.358 267.12 278.184 267.12 276.737L273.9 229.065H219.855Z" fill="#1B1B1B"/>
<mask id="mask3_0_839" style="mask-type:alpha" maskUnits="userSpaceOnUse" x="219" y="229" width="55" height="51">
<path fill-rule="evenodd" clip-rule="evenodd" d="M219.855 229.066L226.636 276.737C226.636 278.185 235.699 279.358 246.878 279.358C258.057 279.358 267.12 278.185 267.12 276.737L273.9 229.066H219.855Z" fill="white"/>
</mask>
<g mask="url(#mask3_0_839)">
<path d="M215.736 229.533C287.787 240.311 267.878 268.333 251.006 284.539C234.135 300.744 270.578 288.763 270.578 288.763L286.774 243.35L285.087 220.091L256.743 217.91" fill="white"/>
</g>
<path fill-rule="evenodd" clip-rule="evenodd" d="M219.855 229.065L226.636 276.737C226.636 278.184 235.699 279.358 246.878 279.358C258.057 279.358 267.12 278.184 267.12 276.737L273.9 229.065H219.855Z" stroke="#1B1B1B" stroke-width="0.7" stroke-linecap="round" stroke-linejoin="round"/>
<path d="M219.941 225.327H273.062C275.385 225.327 277.268 227.209 277.268 229.532V229.534C277.268 230.649 276.824 231.719 276.036 232.508C275.247 233.296 274.178 233.739 273.062 233.739H219.941C217.619 233.739 215.736 231.857 215.736 229.534V229.532C215.736 227.209 217.619 225.327 219.941 225.327V225.327Z" fill="#1B1B1B" stroke="#1B1B1B" stroke-width="0.7" stroke-linecap="round" stroke-linejoin="round"/>
<path d="M224.908 208.466C224.964 210.388 225.526 212.26 226.536 213.895" stroke="#1B1B1B" stroke-width="0.7" stroke-linecap="round" stroke-linejoin="round"/>
<path d="M259.278 175.441C260.541 178.133 260.871 181.169 260.215 184.069" stroke="#1B1B1B" stroke-width="0.7" stroke-linecap="round" stroke-linejoin="round"/>
<path d="M269.617 219.278L269.108 220.289" stroke="#1B1B1B" stroke-width="0.7" stroke-linecap="round" stroke-linejoin="round"/>
<path d="M236.145 265.193C238.387 266.452 241.01 266.856 243.528 266.332" stroke="#1B1B1B" stroke-width="0.7" stroke-linecap="round" stroke-linejoin="round"/>
<rect x="113.811" y="117.939" width="9.65308" height="13.1995" rx="3.94611" fill="white" stroke="#1B1B1B" stroke-width="0.7" stroke-linecap="round" stroke-linejoin="round"/>
<rect x="113.811" y="133.102" width="9.65308" height="13.1995" rx="3.94611" fill="white" stroke="#1B1B1B" stroke-width="0.7" stroke-linecap="round" stroke-linejoin="round"/>
<rect x="116.32" y="81.7307" width="105.72" height="198.573" rx="13.5918" fill="white"/>
<mask id="mask4_0_839" style="mask-type:alpha" maskUnits="userSpaceOnUse" x="116" y="81" width="107" height="200">
<rect x="116.319" y="81.7305" width="105.72" height="198.573" rx="13.5918" fill="white"/>
</mask>
<g mask="url(#mask4_0_839)">
<path d="M89.9365 304.506L225.08 44.5125L267.553 312.632L248.247 346.628L127.281 345.083L94.57 342.765" fill="white"/>
</g>
<rect x="116.32" y="81.7307" width="105.72" height="198.573" rx="13.5918" stroke="#1B1B1B" stroke-width="0.7" stroke-linecap="round" stroke-linejoin="round"/>
<path d="M204.197 86.5884H197.278C195.049 86.5884 193.242 88.4294 193.242 90.7004C193.242 92.9714 191.436 94.8124 189.207 94.8124H149.154C146.925 94.8124 145.118 92.9714 145.118 90.7004C145.118 88.4294 143.311 86.5884 141.083 86.5884H134.163C127.321 86.5884 121.774 92.2405 121.774 99.2127V259.886C121.774 266.858 127.321 272.51 134.163 272.51H204.197C211.039 272.51 216.586 266.858 216.586 259.886V99.2127C216.586 92.2405 211.039 86.5884 204.197 86.5884Z" fill="white" stroke="#1B1B1B" stroke-width="0.7" stroke-linecap="round" stroke-linejoin="round"/>
<rect x="128.759" y="200.401" width="80.8435" height="17.1187" rx="8.55706" fill="white" stroke="#1B1B1B" stroke-width="0.7" stroke-linecap="round" stroke-linejoin="round"/>
<rect x="128.759" y="224.096" width="80.8435" height="17.1187" rx="8.55706" fill="white" stroke="#1B1B1B" stroke-width="0.7" stroke-linecap="round" stroke-linejoin="round"/>
<path d="M194.242 252.83C190.403 255.216 186.177 256.911 181.754 257.839" stroke="#1B1B1B" stroke-width="0.7" stroke-linecap="round" stroke-linejoin="round"/>
<path d="M72.8056 167.526L42.4536 179.353C42.4536 179.353 13.21 182.69 11.486 182.594C8.73553 182.441 3.00798 177.61 3.0727 176.937C3.0727 176.937 -0.680941 176.968 5.30547 182.197C5.30547 182.197 1.92635 180.908 1.60276 180.602C1.27917 180.296 -0.292641 182.227 4.43176 184.001C11.3715 186.606 4.26997 187.578 7.31176 189.535C7.31176 189.535 8.28253 187.67 11.9391 187.12L47.2138 188.692L76.916 179.353L72.8056 167.526Z" fill="white"/>
<mask id="mask5_0_839" style="mask-type:alpha" maskUnits="userSpaceOnUse" x="1" y="167" width="76" height="23">
<path fill-rule="evenodd" clip-rule="evenodd" d="M72.8056 167.526L42.4536 179.353C42.4536 179.353 13.21 182.69 11.486 182.594C8.73553 182.441 3.00798 177.61 3.0727 176.937C3.0727 176.937 -0.680941 176.967 5.30547 182.196C5.30547 182.196 1.92635 180.908 1.60276 180.602C1.27917 180.296 -0.292641 182.227 4.43176 184C11.3715 186.606 4.26997 187.578 7.31176 189.535C7.31176 189.535 8.28253 187.67 11.9391 187.119L47.2138 188.692L76.916 179.353L72.8056 167.526Z" fill="white"/>
</mask>
<g mask="url(#mask5_0_839)">
<path d="M21.0315 179.736C16.6659 180.946 23.8154 186.284 18.1738 187.398C12.5323 188.512 24.8322 190.832 24.8322 190.832L28.1592 187.301L20.3962 178.592" fill="white"/>
</g>
<path fill-rule="evenodd" clip-rule="evenodd" d="M72.8056 167.526L42.4536 179.353C42.4536 179.353 13.21 182.69 11.486 182.594C8.73553 182.441 3.00798 177.61 3.0727 176.937C3.0727 176.937 -0.680941 176.968 5.30547 182.197C5.30547 182.197 1.92635 180.908 1.60276 180.602C1.27917 180.296 -0.292641 182.227 4.43176 184.001C11.3715 186.606 4.26997 187.578 7.31176 189.535C7.31176 189.535 8.28253 187.67 11.9391 187.12L47.2138 188.692L76.916 179.353L72.8056 167.526Z" stroke="#1B1B1B" stroke-width="0.7" stroke-linecap="round" stroke-linejoin="round"/>
<path d="M21.0331 181.717C21.0331 181.717 20.7844 187.069 26.0265 190.079L46.3317 189.565C47.1267 189.546 47.915 189.415 48.6741 189.179L86.7554 179.566L70.8912 167.105L41.9472 177.931L21.0331 181.717Z" fill="white"/>
<mask id="mask6_0_839" style="mask-type:alpha" maskUnits="userSpaceOnUse" x="21" y="167" width="66" height="24">
<path fill-rule="evenodd" clip-rule="evenodd" d="M21.0331 181.717C21.0331 181.717 20.7844 187.069 26.0265 190.079L46.3317 189.565C47.1267 189.546 47.915 189.415 48.6741 189.179L86.7554 179.566L70.8912 167.105L41.9472 177.931L21.0331 181.717Z" fill="white"/>
</mask>
<g mask="url(#mask6_0_839)">
<path d="M56.6914 187.096C68.4701 184.527 74.6017 177.058 74.301 174.01C74.0003 170.962 78.5619 179.757 78.5619 179.757L78.1778 182.57L71.9649 186.729L61.3511 188.074" fill="white"/>
</g>
<path fill-rule="evenodd" clip-rule="evenodd" d="M21.0331 181.717C21.0331 181.717 20.7844 187.069 26.0265 190.079L46.3317 189.565C47.1267 189.546 47.915 189.415 48.6741 189.179L86.7554 179.566L70.8912 167.105L41.9472 177.931L21.0331 181.717Z" stroke="#1B1B1B" stroke-width="0.7" stroke-linecap="round" stroke-linejoin="round"/>
<path d="M182.174 202.031C183.164 201.041 181.258 200.471 180.15 199.938C178.615 199.199 176.403 199.204 175.379 199.225C174.781 199.105 135.551 189.535 135.551 189.535L109.622 176.373L110.764 186.875L135.833 199.708L173.487 203.461C173.671 204.073 176.13 204.608 179.554 205.942C179.554 205.942 180.569 205.152 178.277 203.886C178.295 202.322 184.609 205.067 184.449 204.963C185.594 205.336 186.589 203.662 182.174 202.031Z" fill="white"/>
<mask id="mask7_0_839" style="mask-type:alpha" maskUnits="userSpaceOnUse" x="109" y="176" width="77" height="30">
<path fill-rule="evenodd" clip-rule="evenodd" d="M182.174 202.031C183.164 201.041 181.258 200.471 180.15 199.937C178.615 199.199 176.403 199.203 175.379 199.224C174.781 199.105 135.551 189.535 135.551 189.535L109.622 176.372L110.764 186.875L135.833 199.708L173.487 203.461C173.671 204.073 176.13 204.607 179.554 205.942C179.554 205.942 180.569 205.152 178.277 203.886C178.295 202.321 184.609 205.067 184.449 204.962C185.594 205.336 186.589 203.662 182.174 202.031Z" fill="white"/>
</mask>
<g mask="url(#mask7_0_839)">
<path d="M167.389 204.381C157.786 204.288 166.493 199.324 163.261 196.288C160.03 193.252 155.19 200.616 155.19 200.616L156.4 205.942H166.28" fill="white"/>
</g>
<path fill-rule="evenodd" clip-rule="evenodd" d="M182.174 202.031C183.164 201.041 181.258 200.471 180.15 199.938C178.615 199.199 176.403 199.204 175.379 199.225C174.781 199.105 135.551 189.535 135.551 189.535L109.622 176.373L110.764 186.875L135.833 199.708L173.487 203.461C173.671 204.073 176.13 204.608 179.554 205.942C179.554 205.942 180.569 205.152 178.277 203.886C178.295 202.322 184.609 205.067 184.449 204.963C185.594 205.336 186.589 203.662 182.174 202.031Z" stroke="#1B1B1B" stroke-width="0.7" stroke-linecap="round" stroke-linejoin="round"/>
<path d="M74.6866 175.503C74.7722 176.49 74.592 177.686 74.0351 179.145C71.5426 185.675 76.9158 192.717 82.8153 193.688L91.666 210.316C106.607 211.349 130.782 210.729 130.782 210.729C118.452 203.738 109.574 181.579 109.622 176.371C109.634 175.084 108.719 173.956 107.404 173.623C100.888 171.971 82.5586 166.471 75.8517 166.471C71.4286 166.47 70.3808 167.296 68.3857 168.042" fill="white"/>
<mask id="mask8_0_839" style="mask-type:alpha" maskUnits="userSpaceOnUse" x="68" y="166" width="63" height="45">
<path fill-rule="evenodd" clip-rule="evenodd" d="M74.6866 175.503C74.7722 176.49 74.592 177.686 74.0351 179.145C71.5426 185.675 76.9158 192.717 82.8153 193.688L91.666 210.316C106.607 211.349 130.782 210.729 130.782 210.729C118.452 203.738 109.574 181.579 109.622 176.371C109.634 175.084 108.719 173.956 107.404 173.623C100.888 171.971 82.5586 166.471 75.8517 166.471C71.4286 166.47 70.3808 167.296 68.3857 168.042" fill="white"/>
</mask>
<g mask="url(#mask8_0_839)">
<path d="M106.654 184.466C106.654 184.466 100.612 185.731 101.994 185.75C118.231 192.87 123.288 208.83 97.4971 210.729C97.4971 210.729 108.527 211.579 112.284 211.579C116.042 211.579 132.689 211.905 132.689 211.905L128.885 192.08L112.964 185.934L106.654 184.466Z" fill="white"/>
<ellipse cx="91.4881" cy="171.057" rx="11.1903" ry="8.41854" transform="rotate(-26.399 91.4881 171.057)" fill="white" stroke="#1B1B1B" stroke-width="0.7" stroke-linecap="round" stroke-linejoin="round"/>
<ellipse cx="92.0901" cy="170.267" rx="9.55082" ry="6.44066" transform="rotate(-26.3877 92.0901 170.267)" fill="white" stroke="#1B1B1B" stroke-width="0.7" stroke-linecap="round" stroke-linejoin="round"/>
</g>
<path d="M74.6866 175.503C74.7722 176.49 74.592 177.686 74.0351 179.145C71.5426 185.675 76.9158 192.717 82.8153 193.688L91.666 210.316C106.607 211.349 130.782 210.729 130.782 210.729C118.452 203.738 109.574 181.579 109.622 176.371C109.634 175.084 108.719 173.956 107.404 173.623C100.888 171.971 82.5586 166.471 75.8517 166.471C71.4286 166.47 70.3808 167.296 68.3857 168.042" stroke="#1B1B1B" stroke-width="0.7" stroke-linecap="round" stroke-linejoin="round"/>
<path d="M108.303 174.01L135.551 189.535L163.262 196.288C163.262 196.288 162.684 203.447 159.528 204.342C157.813 204.828 137.374 200.611 132.639 199.623C131.995 199.489 131.368 199.283 130.771 199.008L100.611 186.476" fill="white"/>
<path d="M108.303 174.01L135.551 189.535L163.262 196.288C163.262 196.288 162.684 203.447 159.528 204.342C157.813 204.828 137.374 200.611 132.639 199.623C131.995 199.489 131.368 199.283 130.771 199.008L100.611 186.476" stroke="#1B1B1B" stroke-width="0.7" stroke-linecap="round" stroke-linejoin="round"/>
<path d="M85.8398 169.471L88.7256 159.76L104.058 161.555L104.452 162.346L101.044 163.407C101.044 163.407 97.1824 164.93 96.7608 171.455" fill="white"/>
<mask id="mask9_0_839" style="mask-type:alpha" maskUnits="userSpaceOnUse" x="85" y="159" width="20" height="13">
<path fill-rule="evenodd" clip-rule="evenodd" d="M85.8398 169.471L88.7256 159.76L104.058 161.555L104.452 162.346L101.044 163.407C101.044 163.407 97.1824 164.93 96.7608 171.455" fill="white"/>
</mask>
<g mask="url(#mask9_0_839)">
<path d="M90.7305 160.36C97.8487 163.946 96.2178 165.883 96.777 169.805C97.0789 171.922 104.857 166.789 104.857 166.789L103.354 159.52L96.0409 159.183" fill="white"/>
</g>
<path d="M85.8398 169.471L88.7256 159.76L104.058 161.555L104.452 162.346L101.044 163.407C101.044 163.407 97.1824 164.93 96.7608 171.455" stroke="#1B1B1B" stroke-width="0.7" stroke-linecap="round" stroke-linejoin="round"/>
<path d="M114.995 153.022C111.469 149.69 104.992 155.65 106.215 147.505C107.395 139.652 94.6905 141.804 92.6679 142.394C86.3221 144.244 84.8896 148.827 84.8896 148.827C84.8896 148.827 101.712 157.59 100.157 159.76C99.6225 160.505 97.1307 167.276 106.215 166.716C116.224 166.099 117.957 155.821 114.995 153.022Z" fill="#1B1B1B" stroke="#1B1B1B" stroke-width="0.7" stroke-linecap="round" stroke-linejoin="round"/>
<path d="M94.8571 163.228C98.8205 163.637 103.124 163.428 104.452 162.963C106.604 162.21 105.565 151.002 99.916 146.938C95.5769 145.439 90.2981 147.21 90.2981 147.21L90.3079 147.175L87.9668 147.769C87.9668 147.769 86.1016 156.934 87.4073 160.371C87.4898 160.581 87.6088 160.776 87.7588 160.945" fill="white"/>
<mask id="mask10_0_839" style="mask-type:alpha" maskUnits="userSpaceOnUse" x="86" y="146" width="20" height="18">
<path fill-rule="evenodd" clip-rule="evenodd" d="M94.8581 163.228C98.8215 163.637 103.125 163.428 104.453 162.963C106.605 162.21 105.565 151.002 99.917 146.938C95.5779 145.439 90.2991 147.21 90.2991 147.21L90.3089 147.175L87.9677 147.769C87.9677 147.769 86.1025 156.934 87.4082 160.371C87.4908 160.581 87.6098 160.776 87.7598 160.945" fill="white"/>
</mask>
<g mask="url(#mask10_0_839)">
<rect x="101.038" y="150.864" width="1.52661" height="2.81703" rx="0.7633" transform="rotate(-15.1931 101.038 150.864)" fill="#1B1B1B"/>
<path d="M99.8896 153.078C100.379 154.57 100.518 155.012 100.518 155.012C103.071 154.675 100.938 157.169 100.938 157.169" stroke="#1B1B1B" stroke-width="0.7" stroke-linecap="round" stroke-linejoin="round"/>
<path d="M99.4102 157.711C99.6024 158.219 100.126 158.52 100.662 158.431" stroke="#1B1B1B" stroke-width="0.7" stroke-linecap="round" stroke-linejoin="round"/>
<path d="M96.5569 151.629C96.7523 151.576 96.9607 151.602 97.1364 151.703C97.3121 151.804 97.4405 151.97 97.4936 152.165L97.8318 153.41C97.9423 153.817 97.702 154.237 97.2952 154.347C96.8884 154.458 96.469 154.217 96.3585 153.811L96.0204 152.565C95.9673 152.37 95.994 152.161 96.0947 151.986C96.1953 151.81 96.3616 151.682 96.5569 151.629Z" fill="#1B1B1B"/>
<path d="M101.488 148.877C103.11 148.907 102.919 149.84 101.903 149.887C100.888 149.934 100.428 148.857 101.488 148.877Z" fill="#1B1B1B"/>
<path d="M96.115 149.822C94.7307 150.668 95.2361 151.344 96.136 150.871C97.0358 150.398 97.0194 149.268 96.115 149.822Z" fill="#1B1B1B"/>
</g>
<path d="M94.8571 163.228C98.8205 163.637 103.124 163.428 104.452 162.963C106.604 162.21 105.565 151.002 99.916 146.938C95.5769 145.439 90.2981 147.21 90.2981 147.21L90.3079 147.175L87.9668 147.769C87.9668 147.769 86.1016 156.934 87.4073 160.371C87.4898 160.581 87.6088 160.776 87.7588 160.945" stroke="#1B1B1B" stroke-width="0.7" stroke-linecap="round" stroke-linejoin="round"/>
<path d="M88.0606 145.566C97.4795 149.708 88.9169 154.076 89.8325 157.639C90.7481 161.202 96.2316 166.749 88.9288 167.261C81.626 167.773 73.5127 152.968 88.0606 145.566Z" fill="#1B1B1B" stroke="#1B1B1B" stroke-width="0.7" stroke-linecap="round" stroke-linejoin="round"/>
<path d="M90.8585 156.42C83.9777 153.149 82.2934 161.904 92.1404 161.64L90.8585 156.42Z" fill="white"/>
<path d="M90.8585 156.42C83.9777 153.149 82.2934 161.904 92.1404 161.64" stroke="#1B1B1B" stroke-width="0.7" stroke-linecap="round" stroke-linejoin="round"/>
<path d="M83.1299 193.625L84.0371 193.727" stroke="#1B1B1B" stroke-width="0.7" stroke-linecap="round" stroke-linejoin="round"/>
<path d="M135.396 189.813L134.986 190.82" stroke="#1B1B1B" stroke-width="0.7" stroke-linecap="round" stroke-linejoin="round"/>
<path d="M41.9951 178.095L42.8017 179.306" stroke="#1B1B1B" stroke-width="0.7" stroke-linecap="round" stroke-linejoin="round"/>
<path d="M109.883 156.943C109.965 157.519 109.742 158.096 109.293 158.465" stroke="white" stroke-width="0.7" stroke-linecap="round" stroke-linejoin="round"/>
<path d="M86.2225 151.041L85.0127 152.176" stroke="white" stroke-width="0.7" stroke-linecap="round" stroke-linejoin="round"/>
<path d="M89.1711 158.228V158.304" stroke="#1B1B1B" stroke-width="0.7" stroke-linecap="round" stroke-linejoin="round"/>
<path d="M96.625 201.342C98.7522 201.911 100.998 201.854 103.094 201.179" stroke="#1B1B1B" stroke-width="0.7" stroke-linecap="round" stroke-linejoin="round"/>
<path d="M227.843 64.4463V66.2687C225.931 65.7748 223.964 65.5262 221.989 65.5289C220.028 65.5294 218.076 65.7725 216.175 66.2528V64.4385C216.177 61.2165 218.791 58.6063 222.013 58.6084C225.235 58.6105 227.845 61.2243 227.843 64.4463V64.4463Z" fill="white" stroke="#1B1B1B" stroke-width="0.7" stroke-linecap="round" stroke-linejoin="round"/>
<path d="M233.496 121.181V121.322C233.496 125.424 231.307 129.215 227.754 131.266C224.202 133.317 219.824 133.317 216.272 131.266C212.719 129.215 210.53 125.424 210.53 121.322V121.181L233.496 121.181Z" fill="white"/>
<mask id="mask11_0_839" style="mask-type:alpha" maskUnits="userSpaceOnUse" x="210" y="121" width="24" height="12">
<path fill-rule="evenodd" clip-rule="evenodd" d="M233.496 121.181V121.322C233.496 125.424 231.307 129.215 227.754 131.266C224.202 133.317 219.824 133.317 216.272 131.266C212.719 129.215 210.53 125.424 210.53 121.322V121.181L233.496 121.181Z" fill="white"/>
</mask>
<g mask="url(#mask11_0_839)">
<path d="M207.112 131.807C200.619 124.011 234.611 126.341 230.218 124.011C225.826 121.68 201.573 121.181 201.573 121.181L198.709 128.75" fill="white"/>
</g>
<path fill-rule="evenodd" clip-rule="evenodd" d="M233.496 121.181V121.322C233.496 125.424 231.307 129.215 227.754 131.266C224.202 133.317 219.824 133.317 216.272 131.266C212.719 129.215 210.53 125.424 210.53 121.322V121.181L233.496 121.181Z" stroke="#1B1B1B" stroke-width="0.7" stroke-linecap="round" stroke-linejoin="round"/>
<path d="M247.647 85.5641L251.127 116.734H192.851L196.331 85.5641C197.427 75.7478 205.851 68.1234 216.156 66.0706C220.021 65.3098 223.998 65.3141 227.861 66.0831C232.026 66.9186 235.839 68.635 238.982 71.0066C243.687 74.5566 246.987 79.6555 247.647 85.5641H247.647Z" fill="white"/>
<mask id="mask12_0_839" style="mask-type:alpha" maskUnits="userSpaceOnUse" x="192" y="65" width="60" height="52">
<path fill-rule="evenodd" clip-rule="evenodd" d="M247.647 85.5641L251.127 116.734H192.851L196.331 85.5641C197.427 75.7478 205.851 68.1234 216.156 66.0706C220.021 65.3098 223.998 65.3141 227.861 66.0831C232.026 66.9186 235.839 68.635 238.982 71.0066C243.687 74.5566 246.987 79.6555 247.647 85.5641H247.647Z" fill="white"/>
</mask>
<g mask="url(#mask12_0_839)">
<path d="M246.468 80.7454C254.07 126.852 203.397 107.933 217.69 120.372C231.984 132.811 267.056 124.011 267.056 124.011L253.306 89.4031" fill="white"/>
</g>
<path fill-rule="evenodd" clip-rule="evenodd" d="M247.647 85.5641L251.127 116.734H192.851L196.331 85.5641C197.427 75.7478 205.851 68.1234 216.156 66.0706C220.021 65.3098 223.998 65.3141 227.861 66.0831C232.026 66.9186 235.839 68.635 238.982 71.0066C243.687 74.5566 246.987 79.6555 247.647 85.5641H247.647Z" stroke="#1B1B1B" stroke-width="0.7" stroke-linecap="round" stroke-linejoin="round"/>
<path d="M260.305 124.011H183.673C183.966 121.961 185.05 120.129 186.56 118.821C188.055 117.526 189.979 116.734 191.99 116.734H251.989C256.008 116.734 259.724 119.942 260.305 124.011H260.305Z" fill="white"/>
<mask id="mask13_0_839" style="mask-type:alpha" maskUnits="userSpaceOnUse" x="183" y="116" width="78" height="9">
<path fill-rule="evenodd" clip-rule="evenodd" d="M260.305 124.011H183.673C183.966 121.961 185.05 120.129 186.56 118.821C188.055 117.526 189.979 116.734 191.99 116.734H251.989C256.008 116.734 259.724 119.942 260.305 124.011H260.305Z" fill="white"/>
</mask>
<g mask="url(#mask13_0_839)">
<path d="M192.851 116.734C183.673 124.011 228.904 123.334 227.843 125.087C226.781 126.839 173.311 132.811 173.311 132.811L174.456 114.802" fill="white"/>
</g>
<path fill-rule="evenodd" clip-rule="evenodd" d="M260.305 124.011H183.673C183.966 121.961 185.05 120.129 186.56 118.821C188.055 117.526 189.979 116.734 191.99 116.734H251.989C256.008 116.734 259.724 119.942 260.305 124.011H260.305Z" stroke="#1B1B1B" stroke-width="0.7" stroke-linecap="round" stroke-linejoin="round"/>
<path d="M226.157 100.639L230.285 96.509C232.551 94.235 232.549 90.5556 230.28 88.284C228.011 86.0124 224.332 86.0059 222.055 88.2695C222.054 88.2703 222.053 88.2707 222.052 88.2707C222.051 88.2707 222.05 88.2703 222.049 88.2695L222.04 88.2601C219.832 86.051 216.087 85.9112 213.824 88.0641C212.685 89.1457 212.031 90.6416 212.011 92.2122C211.991 93.7828 212.606 95.295 213.717 96.4056L217.948 100.639C219.036 101.728 220.513 102.34 222.052 102.34C223.592 102.34 225.068 101.728 226.157 100.639V100.639Z" fill="white" stroke="#1B1B1B" stroke-width="0.7" stroke-linecap="round" stroke-linejoin="round"/>
<path d="M213.054 75.8315L212.762 76.6894L213.054 75.8315Z" fill="white"/>
<path d="M213.054 75.8315L212.762 76.6894" stroke="#1B1B1B" stroke-width="0.7" stroke-linecap="round" stroke-linejoin="round"/>
<path d="M251.125 119.956C250.109 120.826 248.951 121.514 247.701 121.991L251.125 119.956Z" fill="white"/>
<path d="M251.125 119.956C250.109 120.826 248.951 121.514 247.701 121.991" stroke="#1B1B1B" stroke-width="0.7" stroke-linecap="round" stroke-linejoin="round"/>
<path d="M74.6773 99.173L43.797 117.455L38.8389 87.8308L69.7192 69.5483L74.6773 99.173Z" fill="white" stroke="#1B1B1B" stroke-width="0.7" stroke-linecap="round" stroke-linejoin="round"/>
<path d="M74.6772 99.1731L97.9333 116.849L67.053 135.132L43.7969 117.455L74.6772 99.1731Z" fill="#1B1B1B"/>
<mask id="mask14_0_839" style="mask-type:alpha" maskUnits="userSpaceOnUse" x="43" y="99" width="55" height="37">
<path fill-rule="evenodd" clip-rule="evenodd" d="M74.6772 99.1731L97.9333 116.849L67.053 135.132L43.7969 117.455L74.6772 99.1731Z" fill="white"/>
</mask>
<g mask="url(#mask14_0_839)">
<path d="M31.2432 135.349H110.488" stroke="white" stroke-width="0.7" stroke-linecap="round" stroke-linejoin="round"/>
<path d="M31.2432 132.316H110.488" stroke="white" stroke-width="0.7" stroke-linecap="round" stroke-linejoin="round"/>
<path d="M31.2432 129.283H110.488" stroke="white" stroke-width="0.7" stroke-linecap="round" stroke-linejoin="round"/>
<path d="M31.2432 126.251H110.488" stroke="white" stroke-width="0.7" stroke-linecap="round" stroke-linejoin="round"/>
<path d="M31.2432 123.218H110.488" stroke="white" stroke-width="0.7" stroke-linecap="round" stroke-linejoin="round"/>
<path d="M31.2432 120.185H110.488" stroke="white" stroke-width="0.7" stroke-linecap="round" stroke-linejoin="round"/>
<path d="M31.2432 117.153H110.488" stroke="white" stroke-width="0.7" stroke-linecap="round" stroke-linejoin="round"/>
<path d="M31.2432 114.12H110.488" stroke="white" stroke-width="0.7" stroke-linecap="round" stroke-linejoin="round"/>
<path d="M31.2432 111.087H110.488" stroke="white" stroke-width="0.7" stroke-linecap="round" stroke-linejoin="round"/>
<path d="M31.2432 108.054H110.488" stroke="white" stroke-width="0.7" stroke-linecap="round" stroke-linejoin="round"/>
<path d="M31.2432 105.021H110.488" stroke="white" stroke-width="0.7" stroke-linecap="round" stroke-linejoin="round"/>
<path d="M31.2432 101.989H110.488" stroke="white" stroke-width="0.7" stroke-linecap="round" stroke-linejoin="round"/>
<path d="M31.2432 98.9558H110.488" stroke="white" stroke-width="0.7" stroke-linecap="round" stroke-linejoin="round"/>
</g>
<path fill-rule="evenodd" clip-rule="evenodd" d="M74.6772 99.1731L97.9333 116.849L67.053 135.132L43.7969 117.455L74.6772 99.1731V99.1731Z" stroke="#1B1B1B" stroke-width="0.7" stroke-linecap="round" stroke-linejoin="round"/>
<path d="M69.7188 69.5483L92.9748 87.2247L97.9329 116.849L74.6768 99.173L69.7188 69.5483Z" fill="white" stroke="#1B1B1B" stroke-width="0.7" stroke-linecap="round" stroke-linejoin="round"/>
<path d="M55.7677 96.605C55.3524 98.2687 54.3724 99.7367 52.9951 100.758" stroke="#1B1B1B" stroke-width="0.7" stroke-linecap="round" stroke-linejoin="round"/>
<path d="M88.1863 88.5713L87.7969 89.7151" stroke="#1B1B1B" stroke-width="0.7" stroke-linecap="round" stroke-linejoin="round"/>
<path d="M129.802 244.344C126.452 246.121 122.454 246.184 119.05 244.514L66.1143 218.542V275.374C66.1139 276.837 66.6946 278.24 67.7286 279.274C68.7627 280.309 70.1655 280.89 71.6283 280.891H172.488C173.951 280.89 175.354 280.309 176.388 279.274C177.422 278.24 178.003 276.837 178.002 275.374V218.78L129.802 244.344Z" fill="white" stroke="#1B1B1B" stroke-width="0.7" stroke-linecap="round" stroke-linejoin="round"/>
<path d="M129.802 244.344L178.002 218.78V212.652C178.003 211.189 177.422 209.786 176.388 208.751C175.354 207.717 173.951 207.135 172.488 207.135H71.6283C70.1655 207.135 68.7627 207.717 67.7287 208.751C66.6946 209.786 66.1139 211.189 66.1143 212.652V218.541L119.05 244.513C122.454 246.184 126.452 246.121 129.802 244.344Z" fill="#1B1B1B" stroke="#1B1B1B" stroke-width="0.7" stroke-linecap="round" stroke-linejoin="round"/>
<path d="M99.7187 215.875L94.7529 220.46" stroke="#1B1B1B" stroke-width="0.7" stroke-linecap="round" stroke-linejoin="round"/>
<path d="M156.246 262.879L153.572 263.643" stroke="#1B1B1B" stroke-width="0.7" stroke-linecap="round" stroke-linejoin="round"/>
<path d="M135.631 219.568L128.759 225.589" stroke="white" stroke-width="0.7" stroke-linecap="round" stroke-linejoin="round"/>
<path d="M183.674 146.247L182.439 142.083C182.439 142.083 187.395 144.822 181.202 140.493C179.102 139.025 176.275 136.94 176.896 134.074C178.746 125.54 185.625 113.353 187.136 112.108L172.668 119.034L167.926 135.228C167.446 136.518 167.839 137.971 168.904 138.843L178.549 146.741L183.674 146.247Z" fill="white"/>
<mask id="mask15_0_839" style="mask-type:alpha" maskUnits="userSpaceOnUse" x="167" y="112" width="21" height="35">
<path fill-rule="evenodd" clip-rule="evenodd" d="M183.675 146.247L182.44 142.083C182.44 142.083 187.396 144.822 181.203 140.493C179.103 139.026 176.276 136.94 176.897 134.074C178.747 125.541 185.626 113.354 187.137 112.108L172.669 119.034L167.927 135.228C167.447 136.518 167.84 137.971 168.905 138.843L178.55 146.741L183.675 146.247Z" fill="white"/>
</mask>
<g mask="url(#mask15_0_839)">
<path d="M164.968 130.106C173.683 131.163 168.806 124.861 178.987 129.425C189.168 133.988 181.553 123.802 181.553 123.802L166.496 121.491L164.528 125.428" fill="white"/>
</g>
<path fill-rule="evenodd" clip-rule="evenodd" d="M183.674 146.247L182.439 142.083C182.439 142.083 187.395 144.822 181.202 140.493C179.102 139.025 176.275 136.94 176.896 134.074C178.746 125.54 185.625 113.353 187.136 112.108L172.668 119.034L167.926 135.228C167.446 136.518 167.839 137.971 168.904 138.843L178.549 146.741L183.674 146.247Z" stroke="#1B1B1B" stroke-width="0.7" stroke-linecap="round" stroke-linejoin="round"/>
<path d="M165.388 141.914L189.155 150.709C191.781 145.527 180.543 139.908 180.543 139.908C180.543 139.908 177.011 143.107 176.714 145.166L165.873 140.696C165.689 140.62 165.481 140.632 165.307 140.728C165.133 140.824 165.012 140.993 164.978 141.189C164.924 141.497 165.095 141.801 165.388 141.914Z" fill="#1B1B1B"/>
<mask id="mask16_0_839" style="mask-type:alpha" maskUnits="userSpaceOnUse" x="164" y="139" width="26" height="12">
<path fill-rule="evenodd" clip-rule="evenodd" d="M165.389 141.914L189.156 150.709C191.782 145.527 180.544 139.908 180.544 139.908C180.544 139.908 177.012 143.107 176.715 145.166L165.874 140.696C165.69 140.62 165.482 140.632 165.308 140.728C165.134 140.824 165.013 140.993 164.979 141.189C164.925 141.497 165.096 141.801 165.389 141.914Z" fill="white"/>
</mask>
<g mask="url(#mask16_0_839)">
<path d="M186.578 140.897C185.849 140.188 184.695 140.161 183.934 140.836C183.172 140.161 182.019 140.188 181.289 140.897C180.552 141.637 180.546 142.833 181.277 143.58L181.302 143.604L183.505 145.809C183.74 146.045 184.121 146.051 184.362 145.821L184.375 145.809L186.578 143.604C187.313 142.87 187.324 141.682 186.603 140.934C186.598 140.92 186.589 140.907 186.578 140.897Z" fill="#1B1B1B" stroke="#1B1B1B" stroke-width="0.7" stroke-linecap="round" stroke-linejoin="round"/>
</g>
<path fill-rule="evenodd" clip-rule="evenodd" d="M165.388 141.914L189.155 150.709C191.781 145.527 180.543 139.908 180.543 139.908C180.543 139.908 177.011 143.107 176.714 145.166L165.873 140.696C165.689 140.62 165.481 140.632 165.307 140.728C165.133 140.824 165.012 140.993 164.978 141.189V141.189C164.924 141.497 165.095 141.801 165.388 141.914Z" stroke="#1B1B1B" stroke-width="0.7" stroke-linecap="round" stroke-linejoin="round"/>
<path d="M115.6 48.4029L113.673 48.7676L127.107 36.271L131.066 43.8776L115.6 48.4029Z" fill="white" stroke="#1B1B1B" stroke-width="0.7" stroke-linecap="round" stroke-linejoin="round"/>
<path d="M174.371 47.7842L175.913 75.3385L164.968 71.9242L166.329 56.9693L168.033 47.7842H174.371Z" fill="white" stroke="#1B1B1B" stroke-width="0.7" stroke-linecap="round" stroke-linejoin="round"/>
<path d="M155.441 66.6629L151.729 87.2748L137.512 87.9395C134.263 88.0908 131.388 85.8542 130.735 82.6681L122.776 43.8778L142.078 36.7664L155.441 66.6629Z" fill="#1B1B1B"/>
<path fill-rule="evenodd" clip-rule="evenodd" d="M155.441 66.6629L151.729 87.2748L137.512 87.9395C134.263 88.0908 131.388 85.8542 130.735 82.6681L122.776 43.8778L142.078 36.7664L155.441 66.6629Z" stroke="#1B1B1B" stroke-width="0.7" stroke-linecap="round" stroke-linejoin="round"/>
<path d="M149.564 83.5723C151.234 84.5008 179.632 95.3093 179.632 95.3093L193.595 80.9003L164.997 65.6113L151.49 66.8539L145.102 82.6324" fill="#1B1B1B"/>
<path d="M149.564 83.5723C151.234 84.5008 179.632 95.3093 179.632 95.3093L193.595 80.9003L164.997 65.6113L151.49 66.8539L145.102 82.6324" stroke="#1B1B1B" stroke-width="0.7" stroke-linecap="round" stroke-linejoin="round"/>
<path d="M138.366 65.6832C150.43 69.3822 167.69 65.6832 167.69 65.6832C167.69 65.6832 170.544 31.0225 169.616 29.955C168.688 28.8875 148.969 26.3727 139.318 29.931L138.366 65.6832Z" fill="white"/>
<mask id="mask17_0_839" style="mask-type:alpha" maskUnits="userSpaceOnUse" x="138" y="28" width="32" height="40">
<path fill-rule="evenodd" clip-rule="evenodd" d="M138.366 65.6834C150.43 69.3825 167.69 65.6834 167.69 65.6834C167.69 65.6834 170.544 31.0228 169.616 29.9552C168.688 28.8877 148.969 26.3729 139.318 29.9312L138.366 65.6834Z" fill="white"/>
</mask>
<g mask="url(#mask17_0_839)">
<ellipse cx="155.075" cy="28.744" rx="7.50916" ry="7.12124" fill="white" stroke="#1B1B1B" stroke-width="0.7" stroke-linecap="round" stroke-linejoin="round"/>
<ellipse cx="155.152" cy="28.193" rx="7.50916" ry="6.25134" fill="white" stroke="#1B1B1B" stroke-width="0.7" stroke-linecap="round" stroke-linejoin="round"/>
<path d="M139.109 45.3197C147.893 43.41 146.594 65.9794 158.472 64.5628C170.35 63.1463 162.184 51.1136 167.845 39.2847C170.779 33.1542 174.062 54.868 174.062 54.868C174.062 54.868 171.167 68.9103 171.431 69.051C171.694 69.1916 168.556 75.402 166.948 75.5877C165.339 75.7734 138.366 73.286 138.366 73.286L139.109 45.3197Z" fill="white"/>
<path d="M154.572 42.9556L148.624 53.3306L160.578 53.2969L154.572 42.9556Z" fill="white" stroke="#1B1B1B" stroke-width="0.7" stroke-linecap="round" stroke-linejoin="round"/>
<ellipse cx="150.143" cy="45.7183" rx="4.421" ry="4.42334" fill="#1B1B1B" stroke="#1B1B1B" stroke-width="0.7" stroke-linecap="round" stroke-linejoin="round"/>
<rect x="156.634" y="42.2437" width="6.43096" height="6.43432" transform="rotate(4.7193 156.634 42.2437)" fill="#1B1B1B" stroke="#1B1B1B" stroke-width="0.7" stroke-linecap="round" stroke-linejoin="round"/>
</g>
<path fill-rule="evenodd" clip-rule="evenodd" d="M138.366 65.6832C150.43 69.3822 167.69 65.6832 167.69 65.6832C167.69 65.6832 170.544 31.0225 169.616 29.955C168.688 28.8875 148.969 26.3727 139.318 29.931L138.366 65.6832Z" stroke="#1B1B1B" stroke-width="0.7" stroke-linecap="round" stroke-linejoin="round"/>
<path d="M140.348 29.5905C133.895 29.3736 122.776 39.1527 122.776 39.1527C124.044 44.4118 128.344 46.823 128.344 46.823L143.377 38.0457" fill="white"/>
<path d="M140.348 29.5905C133.895 29.3736 122.776 39.1527 122.776 39.1527C124.044 44.4118 128.344 46.823 128.344 46.823L143.377 38.0457" stroke="#1B1B1B" stroke-width="0.7" stroke-linecap="round" stroke-linejoin="round"/>
<path d="M167.372 38.5719L166.948 49.9069C170.908 52.1606 175.733 50.566 175.733 50.566C175.733 50.566 179.236 30.0926 169.112 29.6987" fill="white"/>
<path d="M167.372 38.5719L166.948 49.9069C170.908 52.1606 175.733 50.566 175.733 50.566C175.733 50.566 179.236 30.0926 169.112 29.6987" stroke="#1B1B1B" stroke-width="0.7" stroke-linecap="round" stroke-linejoin="round"/>
<path d="M156.245 94.652C156.245 94.652 157.77 90.7731 159.235 90.9794C159.912 91.0747 160.637 93.2902 160.637 93.2902L162.945 99.7198L159.276 104.927L154.252 103.565L153.904 102.372L152.595 97.3136L156.245 94.652Z" fill="#1B1B1B" stroke="#1B1B1B" stroke-width="0.7" stroke-linecap="round" stroke-linejoin="round"/>
<path d="M146.969 87.0078L153.579 100.764L154.815 105.298L157.583 106.381L162.015 101.589L162.662 99.0342L161.325 96.4387L152.792 78.0901L146.969 87.0078Z" fill="white"/>
<mask id="mask18_0_839" style="mask-type:alpha" maskUnits="userSpaceOnUse" x="146" y="78" width="17" height="29">
<path fill-rule="evenodd" clip-rule="evenodd" d="M146.969 87.0078L153.579 100.764L154.815 105.298L157.583 106.381L162.015 101.589L162.662 99.0342L161.325 96.4387L152.792 78.0901L146.969 87.0078Z" fill="white"/>
</mask>
<g mask="url(#mask18_0_839)">
<path d="M145.004 95.3094C156.246 94.652 157.771 86.0527 157.771 86.0527L143.354 91.5739L141.814 92.4089" fill="white"/>
</g>
<path fill-rule="evenodd" clip-rule="evenodd" d="M146.969 87.0078L153.579 100.764L154.815 105.298L157.583 106.381L162.015 101.589L162.662 99.0342L161.325 96.4387L152.792 78.0901L146.969 87.0078V87.0078Z" stroke="#1B1B1B" stroke-width="0.7" stroke-linecap="round" stroke-linejoin="round"/>
<path d="M153.904 102.372C159.339 106.784 162.662 99.0339 162.662 99.0339C162.662 99.0339 168.487 113.902 162.662 113.627C156.734 113.348 153.904 102.372 153.904 102.372Z" fill="#1B1B1B"/>
<mask id="mask19_0_839" style="mask-type:alpha" maskUnits="userSpaceOnUse" x="153" y="99" width="13" height="15">
<path fill-rule="evenodd" clip-rule="evenodd" d="M153.904 102.372C159.339 106.784 162.662 99.0339 162.662 99.0339C162.662 99.0339 168.487 113.902 162.662 113.627C156.734 113.348 153.904 102.372 153.904 102.372Z" fill="white"/>
</mask>
<g mask="url(#mask19_0_839)">
<path d="M160.414 107.742C159.685 107.033 158.531 107.006 157.77 107.681C157.008 107.006 155.855 107.033 155.125 107.742C154.387 108.482 154.382 109.678 155.113 110.425L155.138 110.449L157.341 112.654C157.576 112.89 157.957 112.896 158.198 112.666L158.211 112.654L160.414 110.449C161.149 109.715 161.16 108.527 160.439 107.779C160.434 107.765 160.425 107.752 160.414 107.742H160.414Z" fill="#1B1B1B" stroke="#1B1B1B" stroke-width="0.7" stroke-linecap="round" stroke-linejoin="round"/>
</g>
<path fill-rule="evenodd" clip-rule="evenodd" d="M153.904 102.372C159.339 106.784 162.662 99.0339 162.662 99.0339C162.662 99.0339 168.487 113.902 162.662 113.627C156.734 113.348 153.904 102.372 153.904 102.372Z" stroke="#1B1B1B" stroke-width="0.7" stroke-linecap="round" stroke-linejoin="round"/>
<path d="M134.114 65.6114L145.102 91.7314C149.131 94.5787 158.093 87.624 159.577 86.1384L142.078 36.7664L125.561 45.2773" fill="#1B1B1B"/>
<path d="M134.114 65.6114L145.102 91.7314C149.131 94.5787 158.093 87.624 159.577 86.1384L142.078 36.7664L125.561 45.2773" stroke="#1B1B1B" stroke-width="0.7" stroke-linecap="round" stroke-linejoin="round"/>
<path d="M180.139 88.6433L170.475 124.228C170.475 124.228 180.23 130.628 185.426 130.071L197.805 94.0095C198.979 91.3979 199.011 88.4152 197.894 85.7789C196.776 83.1427 194.61 81.0916 191.917 80.1191" fill="#1B1B1B"/>
<path d="M180.139 88.6433L170.475 124.228C170.475 124.228 180.23 130.628 185.426 130.071L197.805 94.0095C198.979 91.3979 199.011 88.4152 197.894 85.7789C196.776 83.1427 194.61 81.0916 191.917 80.1191" stroke="#1B1B1B" stroke-width="0.7" stroke-linecap="round" stroke-linejoin="round"/>
<path d="M139.318 41.7012C139.398 42.079 140.945 42.4087 141.811 43.2133C142.677 44.018 142.244 49.7011 144.285 47.937C144.285 47.937 144.223 50.6605 146.048 49.5773C146.048 49.5773 146.558 50.2058 147.259 49.1329C147.96 48.06 148.43 45.6278 148.018 44.6375L147.688 43.6884C147.688 43.6884 149.688 49.6214 150.678 47.5788C150.808 47.3104 149.709 42.8631 149.544 42.533C149.379 42.2028 145.031 37.8635 145.031 37.8635L139.318 41.7012Z" fill="white"/>
<mask id="mask20_0_839" style="mask-type:alpha" maskUnits="userSpaceOnUse" x="139" y="37" width="12" height="13">
<path fill-rule="evenodd" clip-rule="evenodd" d="M139.318 41.7012C139.398 42.079 140.945 42.4087 141.811 43.2133C142.677 44.018 142.244 49.7011 144.285 47.937C144.285 47.937 144.223 50.6605 146.048 49.5773C146.048 49.5773 146.558 50.2058 147.259 49.1329C147.96 48.06 148.43 45.6278 148.018 44.6375L147.688 43.6884C147.688 43.6884 149.688 49.6214 150.678 47.5788C150.808 47.3104 149.709 42.8631 149.544 42.533C149.379 42.2028 145.031 37.8635 145.031 37.8635L139.318 41.7012Z" fill="white"/>
</mask>
<g mask="url(#mask20_0_839)">
<path d="M139.318 44.6763C144.701 43.5207 145.914 38.2227 145.914 38.2227L140.659 39.2194L139.889 40.5221" fill="white"/>
</g>
<path fill-rule="evenodd" clip-rule="evenodd" d="M139.318 41.7012C139.398 42.079 140.945 42.4087 141.811 43.2133C142.677 44.018 142.244 49.7011 144.285 47.937C144.285 47.937 144.223 50.6605 146.048 49.5773C146.048 49.5773 146.558 50.2058 147.259 49.1329C147.96 48.06 148.43 45.6278 148.018 44.6375L147.688 43.6884C147.688 43.6884 149.688 49.6214 150.678 47.5788C150.808 47.3104 149.709 42.8631 149.544 42.533C149.379 42.2028 145.031 37.8635 145.031 37.8635L139.318 41.7012Z" stroke="#1B1B1B" stroke-width="0.7" stroke-linecap="round" stroke-linejoin="round"/>
<path d="M114.771 48.0566L113.673 48.7678C112.097 49.7892 111.145 51.5395 111.146 53.4175V53.646C111.145 56.4659 113.263 58.8361 116.066 59.1509C117.661 59.3297 119.255 58.8071 120.435 57.7186L137.487 41.9891L138.88 43.0463C138.88 43.0463 145.184 40.1391 145.914 38.2229L139.857 33.807C139.021 33.1974 137.904 33.136 137.006 33.6504L121.267 43.8479" fill="white"/>
<path d="M114.771 48.0566L113.673 48.7678C112.097 49.7892 111.145 51.5395 111.146 53.4175V53.646C111.145 56.4659 113.263 58.8361 116.066 59.1509V59.1509C117.661 59.3297 119.255 58.8071 120.435 57.7186L137.487 41.9891L138.88 43.0463C138.88 43.0463 145.184 40.1391 145.914 38.2229L139.857 33.807C139.021 33.1974 137.904 33.136 137.006 33.6504L121.267 43.8479" stroke="#1B1B1B" stroke-width="0.7" stroke-linecap="round" stroke-linejoin="round"/>
<path d="M149.078 28.937V18.2566H161.073V28.8728" fill="white"/>
<mask id="mask21_0_839" style="mask-type:alpha" maskUnits="userSpaceOnUse" x="149" y="18" width="13" height="11">
<path fill-rule="evenodd" clip-rule="evenodd" d="M149.078 28.937V18.2566H161.073V28.8728" fill="white"/>
</mask>
<g mask="url(#mask21_0_839)">
<path d="M147.437 25.3922C153.274 29.2712 158.621 25.1623 158.621 25.1623L150.939 22.7176L145.668 20.6448L148.167 24.8588" fill="white"/>
</g>
<path d="M149.078 28.937V18.2566H161.073V28.8728" stroke="#1B1B1B" stroke-width="0.7" stroke-linecap="round" stroke-linejoin="round"/>
<path d="M148.867 8.0263L160.814 7.53603C162.024 7.48637 163.045 8.42708 163.095 9.63716L163.386 16.7396L147.057 17.4097L146.766 10.3073C146.716 9.09718 147.657 8.07596 148.867 8.0263L148.867 8.0263Z" fill="#1B1B1B" stroke="#1B1B1B" stroke-width="0.7" stroke-linecap="round" stroke-linejoin="round"/>
<path d="M148.558 8.74854H161.593V18.8744C161.593 22.4741 158.675 25.3921 155.075 25.3921C153.347 25.3921 151.689 24.7054 150.467 23.4831C149.244 22.2608 148.558 20.603 148.558 18.8744V8.74854H148.558Z" fill="white"/>
<mask id="mask22_0_839" style="mask-type:alpha" maskUnits="userSpaceOnUse" x="148" y="8" width="14" height="18">
<path fill-rule="evenodd" clip-rule="evenodd" d="M148.558 8.74854H161.593V18.8744C161.593 22.4741 158.675 25.3921 155.075 25.3921C153.347 25.3921 151.689 24.7054 150.467 23.4831C149.244 22.2608 148.558 20.603 148.558 18.8744V8.74854H148.558Z" fill="white"/>
</mask>
<g mask="url(#mask22_0_839)">
<rect x="151.455" y="14.8149" width="1.03082" height="1.90229" rx="0.51541" transform="rotate(-2.1951 151.455 14.8149)" fill="#1B1B1B"/>
<rect x="157.59" y="14.5798" width="1.03082" height="1.90229" rx="0.51541" transform="rotate(-2.1952 157.59 14.5798)" fill="#1B1B1B"/>
<path d="M152.423 13.4434C150.767 13.0574 150.703 13.8767 151.727 14.1811C152.751 14.4855 153.505 13.6957 152.423 13.4434Z" fill="#1B1B1B"/>
<path d="M158.008 13.4141C159.646 13.1162 159.572 13.7918 158.548 14.0301C157.524 14.2684 156.938 13.6088 158.008 13.4141Z" fill="#1B1B1B"/>
<path d="M155.947 16.8457C155.962 17.2505 155.58 17.1044 155.117 17.1222C154.653 17.1399 154.284 17.3148 154.268 16.9101C154.253 16.5053 154.616 16.1628 155.079 16.145C155.543 16.1272 155.931 16.441 155.947 16.8457Z" fill="white"/>
<g opacity="0.27">
<ellipse cx="152.209" cy="17.7586" rx="0.79177" ry="1.38403" transform="rotate(-87.945 152.209 17.7586)" fill="white"/>
</g>
<g opacity="0.27">
<ellipse cx="158.431" cy="17.7117" rx="0.79177" ry="1.38403" transform="rotate(-87.945 158.431 17.7117)" fill="white"/>
</g>
</g>
<path fill-rule="evenodd" clip-rule="evenodd" d="M148.558 8.74854H161.593V18.8744C161.593 22.4741 158.675 25.3921 155.075 25.3921V25.3921C153.347 25.3921 151.689 24.7054 150.467 23.4831C149.244 22.2608 148.558 20.603 148.558 18.8744V8.74854H148.558Z" stroke="#1B1B1B" stroke-width="0.7" stroke-linecap="round" stroke-linejoin="round"/>
<path d="M160.111 1.05859C158.008 1.37106 156.425 2.86097 156.179 4.59279C151.808 6.63898 145.08 0.582186 146.84 9.64513L148.442 12.3864C150.203 5.97777 154.705 14.3929 158.71 10.0938C159.458 9.29053 159.673 8.82549 160.769 8.76192C160.927 8.75272 161.087 8.73624 161.247 8.71247C163.732 8.3433 165.492 6.3306 165.178 4.21704C164.864 2.10348 162.596 0.689405 160.111 1.05859Z" fill="#1B1B1B" stroke="#1B1B1B" stroke-width="0.7" stroke-linecap="round" stroke-linejoin="round"/>
<path d="M162.079 17.8502L161.56 17.177C159.225 24.4687 159.355 19.3426 155.075 19.5373C150.794 19.3426 150.924 24.4687 148.589 17.177L148.071 17.8502C148.071 17.8502 147.053 23.0427 152.589 25.7624C154.156 26.5335 155.993 26.5335 157.56 25.7624C163.096 23.0427 162.079 17.8502 162.079 17.8502Z" fill="#1B1B1B" stroke="#1B1B1B" stroke-width="0.7" stroke-linecap="round" stroke-linejoin="round"/>
<path d="M149.809 13.9741C144.264 9.54553 144.215 19.0353 150.101 18.2567L149.809 13.9741Z" fill="white"/>
<path d="M149.809 13.9741C144.264 9.54553 144.215 19.0353 150.101 18.2567" stroke="#1B1B1B" stroke-width="0.7" stroke-linecap="round" stroke-linejoin="round"/>
<path d="M160.342 13.9741C165.887 9.54553 165.935 19.0353 160.05 18.2567L160.342 13.9741Z" fill="white"/>
<path d="M160.342 13.9741C165.887 9.54553 165.935 19.0353 160.05 18.2567" stroke="#1B1B1B" stroke-width="0.7" stroke-linecap="round" stroke-linejoin="round"/>
<path d="M160.864 57.1436C160.569 58.5409 159.587 59.694 158.255 60.2071" stroke="#1B1B1B" stroke-width="0.7" stroke-linecap="round" stroke-linejoin="round"/>
<path d="M157.058 5.94438L159.292 4.24609" stroke="white" stroke-width="0.7" stroke-linecap="round" stroke-linejoin="round"/>
<path d="M141.526 67.0442C142.331 68.4488 143.579 69.5471 145.074 70.1677" stroke="white" stroke-width="0.7" stroke-linecap="round" stroke-linejoin="round"/>
<path d="M154.413 75.9467C154.764 75.9469 155.113 75.8853 155.443 75.7646" stroke="white" stroke-width="0.7" stroke-linecap="round" stroke-linejoin="round"/>
<path d="M180.819 87.0803L177.431 96.6674L180.819 87.0803Z" fill="#1B1B1B"/>
<path d="M180.819 87.0803L177.431 96.6674" stroke="white" stroke-width="0.7" stroke-linecap="round" stroke-linejoin="round"/>
<path d="M133.077 59.1853L143.301 88.4661L133.077 59.1853Z" fill="#1B1B1B"/>
<path d="M133.077 59.1853L143.301 88.4661" stroke="white" stroke-width="0.7" stroke-linecap="round" stroke-linejoin="round"/>
<path d="M179.541 114.641C180.027 115.751 180.996 116.575 182.17 116.877" stroke="white" stroke-width="0.7" stroke-linecap="round" stroke-linejoin="round"/>
<path d="M161.056 108.993L161.312 109.507" stroke="white" stroke-width="0.7" stroke-linecap="round" stroke-linejoin="round"/>
</svg>
