<svg width="480" height="360" viewBox="0 0 480 360" fill="none" xmlns="http://www.w3.org/2000/svg">
<mask id="mask0_0_3121" style="mask-type:alpha" maskUnits="userSpaceOnUse" x="0" y="0" width="480" height="360">
<rect width="480" height="360" fill="white"/>
</mask>
<g mask="url(#mask0_0_3121)">
<ellipse cx="362.119" cy="276.409" rx="21.06" ry="1.84246" fill="white" stroke="black" stroke-width="0.84" stroke-linecap="round" stroke-linejoin="round"/>
<path d="M369.457 235.449L368.728 235.711C368.728 235.711 339.691 163.94 270.825 145.588C270.825 145.588 333.724 156.02 369.457 235.449Z" fill="black"/>
<path d="M425.976 158C425.976 158 367.778 167.948 355.974 231.885L359.3 233.499C359.3 233.499 417.514 212.4 425.976 158Z" fill="white"/>
<mask id="mask1_0_3121" style="mask-type:alpha" maskUnits="userSpaceOnUse" x="355" y="157" width="71" height="77">
<path fill-rule="evenodd" clip-rule="evenodd" d="M425.975 158C425.975 158 367.777 167.948 355.973 231.885L359.299 233.499C359.299 233.499 417.513 212.401 425.975 158Z" fill="white"/>
</mask>
<g mask="url(#mask1_0_3121)">
<path d="M352.167 216.815C374.113 202.295 424.811 237.672 403.442 203.129C382.074 168.587 446.423 246.31 446.423 246.31L350.442 235.685" fill="white"/>
</g>
<path fill-rule="evenodd" clip-rule="evenodd" d="M425.976 158C425.976 158 367.778 167.948 355.974 231.885L359.3 233.499C359.3 233.499 417.514 212.4 425.976 158Z" stroke="black" stroke-width="0.84" stroke-linecap="round" stroke-linejoin="round"/>
<path fill-rule="evenodd" clip-rule="evenodd" d="M421.023 162.361C414.854 166.175 407.856 172.354 400.808 179.5L400.808 179.5C400.841 179.506 409.764 181.256 418.276 178.179C410.075 182.219 399.316 181.037 399.306 181.035C391.363 189.234 383.431 198.534 376.621 206.952C376.963 207.017 388.389 209.138 399.353 205.097C389.627 209.959 377.189 209.188 374.969 209.003C364.534 222.027 357.125 232.444 357.125 232.444L355.974 231.885C355.974 231.885 369.217 213.145 385.254 194.759C384.411 192.745 382.813 187.917 383.724 181.876C383.353 188.373 385.709 192.481 386.366 193.491C397.882 180.408 410.694 167.727 421.023 162.361ZM400.717 179.592L399.567 180.768C399.95 180.374 400.333 179.982 400.717 179.592Z" fill="white"/>
<path d="M393.613 86.9062C393.613 86.9062 328.242 135.411 359.196 223.929C359.196 223.929 421.92 161.246 393.613 86.9062Z" fill="white"/>
<mask id="mask2_0_3121" style="mask-type:alpha" maskUnits="userSpaceOnUse" x="350" y="86" width="51" height="138">
<path fill-rule="evenodd" clip-rule="evenodd" d="M393.612 86.9062C393.612 86.9062 328.241 135.411 359.196 223.929C359.196 223.929 421.919 161.246 393.612 86.9062Z" fill="white"/>
</mask>
<g mask="url(#mask2_0_3121)">
<path d="M357.705 112.347C384.9 146.284 346.053 222.466 399.305 159.714C452.557 96.9619 390.558 233.499 390.558 233.499C390.558 233.499 320.782 259.642 320.141 253.19C319.499 246.738 294.691 136.696 294.691 136.696L314.209 104.654" fill="white"/>
</g>
<path fill-rule="evenodd" clip-rule="evenodd" d="M393.613 86.9062C393.613 86.9062 328.242 135.411 359.196 223.929V223.929C359.196 223.929 421.92 161.246 393.613 86.9062Z" stroke="black" stroke-width="0.84" stroke-linecap="round" stroke-linejoin="round"/>
<path fill-rule="evenodd" clip-rule="evenodd" d="M377.623 129.735C377.65 129.728 390.024 126.455 398.432 117.292C391.108 127.476 376.874 132.603 376.849 132.612C372.812 147.925 369.574 164.63 367.105 179.523C368.013 179.272 383.48 174.873 394.088 163.157C385.448 175.33 369.409 182.014 366.513 183.147C362.818 206.127 361.029 223.929 361.029 223.929H359.197C359.197 223.929 362.307 191.955 369.15 158.709C366.661 156.669 361.224 151.519 358.045 143.282C362.222 151.766 368.09 155.535 369.629 156.414C374.628 132.693 381.528 108.685 390.558 95.5C385.601 104.148 381.297 116.312 377.623 129.735ZM376.981 132.122C377.178 131.377 377.377 130.636 377.579 129.897L376.981 132.122Z" fill="white"/>
<path d="M344.066 136.696C344.066 136.696 313.375 183.247 357.373 233.928L360.898 232.72C360.898 232.72 382.556 178.732 344.066 136.696Z" fill="white"/>
<mask id="mask3_0_3121" style="mask-type:alpha" maskUnits="userSpaceOnUse" x="333" y="136" width="34" height="98">
<path fill-rule="evenodd" clip-rule="evenodd" d="M344.065 136.696C344.065 136.696 313.374 183.247 357.373 233.928L360.897 232.72C360.897 232.72 382.555 178.732 344.065 136.696Z" fill="white"/>
</mask>
<g mask="url(#mask3_0_3121)">
<path d="M344.065 136.696C344.065 180.24 278.229 168.318 351.463 205.656C404.007 232.444 298.772 273.854 298.772 273.854C298.772 273.854 228.063 250.37 231.593 244.938C235.122 239.506 284.516 138.149 284.516 138.149L319.739 125.445" fill="white"/>
</g>
<path fill-rule="evenodd" clip-rule="evenodd" d="M344.066 136.696C344.066 136.696 313.375 183.247 357.373 233.928L360.898 232.72C360.898 232.72 382.556 178.732 344.066 136.696Z" stroke="black" stroke-width="0.84" stroke-linecap="round" stroke-linejoin="round"/>
<path fill-rule="evenodd" clip-rule="evenodd" d="M350.901 203.157C351.181 202.966 360.511 196.54 364.535 186.327C361.989 196.289 353.026 204.316 351.464 205.656C355.078 221.489 358.593 233.51 358.593 233.51L357.373 233.928C357.373 233.928 350.993 212.361 346.761 189.114C344.565 188.351 339.585 186.232 335.292 181.584C340.315 186.165 345.216 187.285 346.473 187.508C343.531 170.894 341.778 153.659 344.304 142.999C343.29 149.771 343.64 158.687 344.743 168.281L344.743 168.281C344.797 168.244 352.138 163.292 355.305 155.418C353.128 163.704 345.055 170.28 344.989 170.334L344.988 170.334C346.348 181.244 348.608 192.879 350.901 203.157ZM344.949 170.009C344.882 169.467 344.817 168.927 344.755 168.388L344.949 170.009Z" fill="white"/>
<path d="M314.209 189.281C314.209 189.281 316.278 225.193 363.798 234.588L365.339 232.609C365.339 232.609 354.791 196.308 314.209 189.281Z" fill="white"/>
<mask id="mask4_0_3121" style="mask-type:alpha" maskUnits="userSpaceOnUse" x="314" y="189" width="52" height="46">
<path fill-rule="evenodd" clip-rule="evenodd" d="M314.21 189.281C314.21 189.281 316.278 225.193 363.798 234.588L365.34 232.609C365.34 232.609 354.792 196.308 314.21 189.281Z" fill="white"/>
</mask>
<g mask="url(#mask4_0_3121)">
<path d="M292.035 195.749C335.335 227.361 343.026 211.395 369.457 232.444C395.888 253.493 324.172 250.712 324.172 250.712L303.875 235.711" fill="white"/>
</g>
<path fill-rule="evenodd" clip-rule="evenodd" d="M314.209 189.281C314.209 189.281 316.278 225.193 363.798 234.588L365.339 232.609C365.339 232.609 354.791 196.308 314.209 189.281Z" stroke="black" stroke-width="0.84" stroke-linecap="round" stroke-linejoin="round"/>
<path fill-rule="evenodd" clip-rule="evenodd" d="M348.186 222.196C357.108 229.019 364.332 233.903 364.332 233.903L363.798 234.588C363.798 234.588 350.797 225.852 338.327 215.424C335.084 216.295 331.693 216.465 328.379 215.921C333.288 216.369 336.636 215.068 337.465 214.702C328.601 207.216 320.165 198.954 317.059 192.457C319.377 196.357 323.417 200.845 328.187 205.396L328.187 205.395C328.216 205.323 330.361 199.957 328.831 194.675C331.12 199.805 329.231 206.304 329.214 206.363C334.702 211.5 341.02 216.665 346.783 221.116C346.869 220.897 349.556 213.993 347.519 207.16C350.313 213.302 348.524 220.903 348.186 222.196ZM328.62 205.809C328.601 205.791 328.583 205.773 328.564 205.755L328.62 205.809ZM328.564 205.755L328.319 205.524C328.379 205.581 328.44 205.639 328.501 205.696C328.522 205.716 328.543 205.736 328.564 205.755Z" fill="white"/>
<path d="M383.178 229.971H341.058C344.36 234.109 344.292 238.821 340.753 242.901C333.016 251.824 325.581 267.279 341.058 276.409H383.178C398.656 267.279 391.221 251.824 383.483 242.901C379.945 238.821 379.876 234.109 383.178 229.971Z" fill="white"/>
<mask id="mask5_0_3121" style="mask-type:alpha" maskUnits="userSpaceOnUse" x="332" y="229" width="61" height="48">
<path fill-rule="evenodd" clip-rule="evenodd" d="M383.178 229.971H341.058C344.36 234.109 344.292 238.821 340.753 242.901C333.016 251.824 325.581 267.279 341.058 276.409H383.178C398.656 267.279 391.221 251.824 383.483 242.901C379.945 238.821 379.876 234.109 383.178 229.971Z" fill="white"/>
</mask>
<g mask="url(#mask5_0_3121)">
<path d="M399.857 212.088C338.833 236.922 419.977 272.542 355.304 277.74C290.632 282.938 399.305 295.155 399.305 295.155L408.79 293.345L425.975 261.218L400.95 233.499L388.497 227.138L399.857 212.088Z" fill="white"/>
</g>
<path fill-rule="evenodd" clip-rule="evenodd" d="M383.178 229.971H341.058C344.36 234.109 344.292 238.821 340.753 242.901C333.016 251.824 325.581 267.279 341.058 276.409H383.178C398.656 267.279 391.221 251.824 383.483 242.901C379.945 238.821 379.876 234.109 383.178 229.971Z" stroke="black" stroke-width="0.84" stroke-linecap="round" stroke-linejoin="round"/>
<path d="M354.493 258.825C358.01 261.347 362.42 262.284 366.659 261.41" stroke="black" stroke-width="0.84" stroke-linecap="round" stroke-linejoin="round"/>
<path d="M382.973 153.417L380.678 156.555" stroke="black" stroke-width="0.84" stroke-linecap="round" stroke-linejoin="round"/>
<path d="M203.237 101.308H203.237C196.233 101.308 190.555 107.005 190.555 114.032V123.459H215.92V114.032C215.92 107.005 210.242 101.308 203.237 101.308Z" fill="white" stroke="black" stroke-width="0.84" stroke-linecap="round" stroke-linejoin="round"/>
<path d="M331.833 101.308H238.008V101.308H203.237C210.242 101.308 215.92 107.005 215.92 114.032V123.459V265.528C215.934 272.533 221.597 278.215 228.602 278.252H344.515V114.032C344.515 107.005 338.837 101.308 331.833 101.308Z" fill="white"/>
<path fill-rule="evenodd" clip-rule="evenodd" d="M331.833 101.308H238.008V101.308H203.237C210.242 101.308 215.92 107.005 215.92 114.032V123.459V123.459V265.528C215.934 272.533 221.597 278.215 228.602 278.252H344.515V114.032C344.515 107.005 338.837 101.308 331.833 101.308Z" stroke="black" stroke-width="0.84" stroke-linecap="round" stroke-linejoin="round"/>
<path d="M226.366 278.252H228.602C227.852 278.248 227.104 278.178 226.366 278.042L226.366 278.252Z" fill="white" stroke="black" stroke-width="0.84" stroke-linecap="round" stroke-linejoin="round"/>
<g opacity="0.73">
<path fill-rule="evenodd" clip-rule="evenodd" d="M229.305 155.575C230.816 151.952 234.362 149.597 238.287 149.61C243.635 149.618 247.963 153.96 247.954 159.308C247.954 163.233 245.588 166.771 241.96 168.271C238.332 169.77 234.159 168.934 231.387 166.154C228.616 163.374 227.794 159.198 229.305 155.575ZM234.04 161.073C234.754 162.786 236.431 163.899 238.287 163.893V163.893C240.816 163.889 242.862 161.836 242.858 159.308C242.858 157.452 241.739 155.779 240.024 155.07C238.308 154.361 236.335 154.756 235.025 156.07C233.714 157.385 233.326 159.36 234.04 161.073Z" fill="white"/>
<path d="M238.287 149.61L238.286 150.03L238.286 150.03L238.287 149.61ZM229.305 155.575L228.917 155.413H228.917L229.305 155.575ZM247.954 159.308L247.534 159.307V159.308L247.954 159.308ZM241.96 168.271L241.8 167.882V167.882L241.96 168.271ZM231.387 166.154L231.685 165.858V165.858L231.387 166.154ZM238.287 163.893L238.289 164.313C238.52 164.313 238.707 164.125 238.707 163.893H238.287ZM234.04 161.073L234.428 160.911L234.04 161.073ZM238.287 163.893L238.286 163.473C238.055 163.474 237.867 163.662 237.867 163.893H238.287ZM242.858 159.308L242.438 159.308L242.438 159.308L242.858 159.308ZM235.025 156.07L235.322 156.367L235.025 156.07ZM238.289 149.19C234.193 149.177 230.494 151.633 228.917 155.413L229.693 155.737C231.138 152.271 234.53 150.018 238.286 150.03L238.289 149.19ZM248.374 159.308C248.383 153.729 243.867 149.199 238.288 149.19L238.286 150.03C243.402 150.038 247.542 154.192 247.534 159.307L248.374 159.308ZM242.121 168.659C245.905 167.095 248.374 163.403 248.374 159.308L247.534 159.308C247.534 163.063 245.27 166.448 241.8 167.882L242.121 168.659ZM231.09 166.451C233.981 169.351 238.336 170.223 242.121 168.659L241.8 167.882C238.329 169.317 234.336 168.518 231.685 165.858L231.09 166.451ZM228.917 155.413C227.341 159.193 228.199 163.55 231.09 166.451L231.685 165.858C229.034 163.198 228.247 159.203 229.693 155.737L228.917 155.413ZM238.286 163.473C236.6 163.479 235.077 162.467 234.428 160.911L233.652 161.235C234.432 163.105 236.262 164.32 238.289 164.313L238.286 163.473ZM237.867 163.893V163.893H238.707V163.893H237.867ZM242.438 159.308C242.442 161.605 240.583 163.47 238.286 163.473L238.288 164.313C241.048 164.309 243.283 162.068 243.278 159.307L242.438 159.308ZM239.863 155.458C241.422 156.102 242.438 157.622 242.438 159.308L243.278 159.308C243.278 157.282 242.057 155.455 240.184 154.682L239.863 155.458ZM235.322 156.367C236.512 155.173 238.305 154.814 239.863 155.458L240.184 154.682C238.312 153.908 236.157 154.339 234.727 155.774L235.322 156.367ZM234.428 160.911C233.779 159.355 234.132 157.561 235.322 156.367L234.727 155.774C233.297 157.209 232.873 159.365 233.652 161.235L234.428 160.911Z" fill="black"/>
<rect x="252.52" y="152.552" width="80.2894" height="5.41087" rx="2.66027" fill="white" stroke="black" stroke-width="0.84" stroke-linecap="round" stroke-linejoin="round"/>
<rect x="252.52" y="160.734" width="29.3512" height="5.32909" rx="2.66027" fill="white" stroke="black" stroke-width="0.84" stroke-linecap="round" stroke-linejoin="round"/>
<rect x="285.101" y="160.734" width="29.3512" height="5.32909" rx="2.66027" fill="white" stroke="black" stroke-width="0.84" stroke-linecap="round" stroke-linejoin="round"/>
</g>
<g opacity="0.73">
<path fill-rule="evenodd" clip-rule="evenodd" d="M229.305 226.407C230.816 222.784 234.362 220.429 238.287 220.442C243.635 220.45 247.963 224.792 247.954 230.14C247.954 234.065 245.588 237.603 241.96 239.103C238.332 240.602 234.159 239.766 231.387 236.986C228.616 234.206 227.794 230.03 229.305 226.407ZM234.04 231.905C234.754 233.618 236.431 234.731 238.287 234.725C239.501 234.724 240.665 234.239 241.522 233.379C242.38 232.519 242.86 231.354 242.858 230.14C242.858 228.284 241.739 226.611 240.024 225.902C238.308 225.193 236.335 225.588 235.025 226.902C233.714 228.217 233.326 230.192 234.04 231.905Z" fill="white"/>
<path d="M238.287 220.442L238.286 220.862L238.286 220.862L238.287 220.442ZM229.305 226.407L228.917 226.245H228.917L229.305 226.407ZM247.954 230.14L247.534 230.139V230.14L247.954 230.14ZM241.96 239.103L241.8 238.714V238.714L241.96 239.103ZM231.387 236.986L231.685 236.69V236.69L231.387 236.986ZM238.287 234.725L238.286 234.305L238.286 234.305L238.287 234.725ZM234.04 231.905L234.428 231.743L234.04 231.905ZM241.522 233.379L241.82 233.676V233.676L241.522 233.379ZM242.858 230.14L242.438 230.14L242.438 230.14L242.858 230.14ZM235.025 226.902L235.322 227.199L235.025 226.902ZM238.289 220.022C234.193 220.009 230.494 222.465 228.917 226.245L229.693 226.569C231.138 223.103 234.53 220.85 238.286 220.862L238.289 220.022ZM248.374 230.14C248.383 224.561 243.867 220.031 238.288 220.022L238.286 220.862C243.402 220.87 247.542 225.024 247.534 230.139L248.374 230.14ZM242.121 239.491C245.905 237.927 248.374 234.235 248.374 230.14L247.534 230.14C247.534 233.895 245.27 237.28 241.8 238.714L242.121 239.491ZM231.09 237.283C233.981 240.183 238.336 241.055 242.121 239.491L241.8 238.714C238.329 240.149 234.336 239.35 231.685 236.69L231.09 237.283ZM228.917 226.245C227.341 230.025 228.199 234.382 231.09 237.283L231.685 236.69C229.034 234.03 228.247 230.035 229.693 226.569L228.917 226.245ZM238.286 234.305C236.6 234.311 235.077 233.299 234.428 231.743L233.652 232.067C234.432 233.937 236.262 235.152 238.289 235.145L238.286 234.305ZM241.225 233.083C240.446 233.864 239.389 234.304 238.286 234.305L238.288 235.145C239.613 235.143 240.884 234.615 241.82 233.676L241.225 233.083ZM242.438 230.14C242.44 231.243 242.003 232.302 241.225 233.083L241.82 233.676C242.756 232.737 243.28 231.465 243.278 230.139L242.438 230.14ZM239.863 226.29C241.422 226.934 242.438 228.454 242.438 230.14L243.278 230.14C243.278 228.114 242.057 226.287 240.184 225.514L239.863 226.29ZM235.322 227.199C236.512 226.005 238.305 225.646 239.863 226.29L240.184 225.514C238.312 224.74 236.157 225.171 234.727 226.606L235.322 227.199ZM234.428 231.743C233.779 230.187 234.132 228.393 235.322 227.199L234.727 226.606C233.297 228.041 232.873 230.197 233.652 232.067L234.428 231.743Z" fill="black"/>
<rect x="252.52" y="223.385" width="80.2894" height="5.41087" rx="2.66027" fill="white" stroke="black" stroke-width="0.84" stroke-linecap="round" stroke-linejoin="round"/>
<rect x="252.52" y="231.566" width="29.3512" height="5.32909" rx="2.66027" fill="white" stroke="black" stroke-width="0.84" stroke-linecap="round" stroke-linejoin="round"/>
<rect x="285.101" y="231.566" width="29.3512" height="5.32909" rx="2.66027" fill="white" stroke="black" stroke-width="0.84" stroke-linecap="round" stroke-linejoin="round"/>
</g>
<rect x="266.426" y="121.188" width="28.5767" height="5.52331" rx="1.57555" fill="white" stroke="black" stroke-width="0.84" stroke-linecap="round" stroke-linejoin="round"/>
<rect x="256.726" y="132.103" width="47.9774" height="3.15618" rx="1.57555" fill="white" stroke="black" stroke-width="0.84" stroke-linecap="round" stroke-linejoin="round"/>
<path fill-rule="evenodd" clip-rule="evenodd" d="M229.305 190.991C230.816 187.368 234.362 185.013 238.287 185.026C243.635 185.034 247.963 189.376 247.954 194.724C247.954 198.649 245.588 202.187 241.96 203.687C238.332 205.186 234.159 204.35 231.387 201.57C228.616 198.79 227.794 194.614 229.305 190.991ZM234.04 196.489C234.754 198.202 236.431 199.315 238.287 199.309C239.501 199.308 240.665 198.823 241.522 197.963C242.38 197.103 242.86 195.938 242.858 194.724C242.858 192.868 241.739 191.195 240.024 190.486C238.308 189.777 236.335 190.172 235.025 191.486C233.714 192.801 233.326 194.776 234.04 196.489Z" fill="white"/>
<path d="M238.287 185.026L238.286 185.446L238.286 185.446L238.287 185.026ZM229.305 190.991L228.917 190.829H228.917L229.305 190.991ZM247.954 194.724L247.534 194.723V194.724L247.954 194.724ZM241.96 203.687L241.8 203.298V203.298L241.96 203.687ZM231.387 201.57L231.685 201.274V201.274L231.387 201.57ZM238.287 199.309L238.286 198.889L238.286 198.889L238.287 199.309ZM234.04 196.489L234.428 196.327L234.04 196.489ZM241.522 197.963L241.82 198.26V198.26L241.522 197.963ZM242.858 194.724L242.438 194.724L242.438 194.724L242.858 194.724ZM235.025 191.486L235.322 191.783L235.025 191.486ZM238.289 184.606C234.193 184.593 230.494 187.049 228.917 190.829L229.693 191.153C231.138 187.687 234.53 185.434 238.286 185.446L238.289 184.606ZM248.374 194.724C248.383 189.145 243.867 184.615 238.288 184.606L238.286 185.446C243.402 185.454 247.542 189.608 247.534 194.723L248.374 194.724ZM242.121 204.075C245.905 202.511 248.374 198.819 248.374 194.724L247.534 194.724C247.534 198.479 245.27 201.864 241.8 203.298L242.121 204.075ZM231.09 201.867C233.981 204.767 238.336 205.639 242.121 204.075L241.8 203.298C238.329 204.733 234.336 203.934 231.685 201.274L231.09 201.867ZM228.917 190.829C227.341 194.609 228.199 198.966 231.09 201.867L231.685 201.274C229.034 198.614 228.247 194.619 229.693 191.153L228.917 190.829ZM238.286 198.889C236.6 198.895 235.077 197.883 234.428 196.327L233.652 196.651C234.432 198.521 236.262 199.736 238.289 199.729L238.286 198.889ZM241.225 197.667C240.446 198.448 239.389 198.888 238.286 198.889L238.288 199.729C239.613 199.727 240.884 199.199 241.82 198.26L241.225 197.667ZM242.438 194.724C242.44 195.827 242.003 196.886 241.225 197.667L241.82 198.26C242.756 197.321 243.28 196.049 243.278 194.723L242.438 194.724ZM239.863 190.874C241.422 191.518 242.438 193.038 242.438 194.724L243.278 194.724C243.278 192.698 242.057 190.871 240.184 190.098L239.863 190.874ZM235.322 191.783C236.512 190.589 238.305 190.23 239.863 190.874L240.184 190.098C238.312 189.324 236.157 189.755 234.727 191.19L235.322 191.783ZM234.428 196.327C233.779 194.771 234.132 192.977 235.322 191.783L234.727 191.19C233.297 192.625 232.873 194.781 233.652 196.651L234.428 196.327Z" fill="black"/>
<rect x="252.519" y="187.969" width="80.2894" height="5.41087" rx="2.66027" fill="white" stroke="black" stroke-width="0.84" stroke-linecap="round" stroke-linejoin="round"/>
<rect x="252.519" y="196.15" width="29.3512" height="5.32909" rx="2.66027" fill="white" stroke="black" stroke-width="0.84" stroke-linecap="round" stroke-linejoin="round"/>
<rect x="285.1" y="196.15" width="29.3512" height="5.32909" rx="2.66027" fill="white" stroke="black" stroke-width="0.84" stroke-linecap="round" stroke-linejoin="round"/>
<path d="M246.537 113.502C244.031 116.979 241.32 120.303 238.418 123.457" stroke="black" stroke-width="0.84" stroke-linecap="round" stroke-linejoin="round"/>
<path d="M329.98 264.635L327.725 266.898" stroke="black" stroke-width="0.84" stroke-linecap="round" stroke-linejoin="round"/>
<rect x="219.975" y="199.559" width="15.3689" height="33.7771" fill="white"/>
<mask id="mask6_0_3121" style="mask-type:alpha" maskUnits="userSpaceOnUse" x="219" y="199" width="17" height="35">
<rect x="219.975" y="199.559" width="15.3689" height="33.7771" fill="white"/>
</mask>
<g mask="url(#mask6_0_3121)">
<path d="M238.487 204.696C234.452 216.487 221.647 207.109 221.296 215.431C220.945 223.753 233.308 225.212 240.195 223.753C247.082 222.294 235.343 237.253 235.343 237.253L208.666 229.333L214.981 203.816L226.383 204.344" fill="white"/>
</g>
<rect x="219.975" y="199.559" width="15.3689" height="33.7771" stroke="black" stroke-width="0.84" stroke-linecap="round" stroke-linejoin="round"/>
<path d="M227.659 278.252C220.09 278.252 214.005 272.003 214.18 264.412L215.123 223.753H240.195L241.138 264.412C241.313 272.003 235.228 278.252 227.659 278.252Z" fill="white"/>
<mask id="mask7_0_3121" style="mask-type:alpha" maskUnits="userSpaceOnUse" x="214" y="223" width="28" height="56">
<path fill-rule="evenodd" clip-rule="evenodd" d="M227.659 278.252C220.09 278.252 214.005 272.003 214.18 264.412L215.123 223.753H240.195L241.138 264.412C241.313 272.003 235.228 278.252 227.659 278.252Z" fill="white"/>
</mask>
<g mask="url(#mask7_0_3121)">
<path d="M239.013 218.071C240.919 280.684 223.05 269.426 211.122 271.025C199.193 272.625 227.659 291.982 227.659 291.982L254.274 295.15L258.276 245.524L244.1 226.059" fill="white"/>
</g>
<path fill-rule="evenodd" clip-rule="evenodd" d="M227.659 278.252V278.252C220.09 278.252 214.005 272.003 214.18 264.412L215.123 223.753H240.195L241.138 264.412C241.313 272.003 235.228 278.252 227.659 278.252Z" stroke="black" stroke-width="0.84" stroke-linecap="round" stroke-linejoin="round"/>
<path fill-rule="evenodd" clip-rule="evenodd" d="M185.165 168.536C185.165 145.162 204.053 126.213 227.352 126.213C250.652 126.213 269.54 145.162 269.54 168.536C269.54 191.911 250.652 210.859 227.352 210.859C204.053 210.859 185.165 191.911 185.165 168.536ZM196.429 168.536C196.429 185.67 210.274 199.559 227.352 199.559C244.431 199.559 258.276 185.67 258.276 168.536C258.276 151.402 244.431 137.513 227.352 137.513C210.274 137.513 196.429 151.402 196.429 168.536Z" fill="white"/>
<path d="M227.352 199.139C227.121 199.139 226.932 199.327 226.932 199.559C226.932 199.791 227.121 199.979 227.352 199.979V199.139ZM227.352 125.793C203.82 125.793 184.745 144.931 184.745 168.536H185.585C185.585 145.392 204.286 126.633 227.352 126.633V125.793ZM184.745 168.536C184.745 192.141 203.82 211.279 227.352 211.279V210.439C204.286 210.439 185.585 191.68 185.585 168.536H184.745ZM227.352 211.279C250.885 211.279 269.96 192.141 269.96 168.536H269.12C269.12 191.68 250.419 210.439 227.352 210.439V211.279ZM269.96 168.536C269.96 144.931 250.885 125.793 227.352 125.793V126.633C250.419 126.633 269.12 145.392 269.12 168.536H269.96ZM227.352 199.139C210.507 199.139 196.849 185.439 196.849 168.536H196.009C196.009 185.9 210.041 199.979 227.352 199.979V199.139ZM196.849 168.536C196.849 151.633 210.507 137.933 227.352 137.933V137.093C210.041 137.093 196.009 151.172 196.009 168.536H196.849ZM227.352 137.933C244.198 137.933 257.856 151.633 257.856 168.536H258.696C258.696 151.172 244.664 137.093 227.352 137.093V137.933ZM257.856 168.536C257.856 185.439 244.198 199.139 227.352 199.139V199.979C244.664 199.979 258.696 185.9 258.696 168.536H257.856Z" fill="black"/>
<path d="M213.856 134.283L210.692 135.853" stroke="black" stroke-width="0.84" stroke-linecap="round" stroke-linejoin="round"/>
<path d="M231.653 251.251C229.943 253.794 227.724 255.955 225.138 257.6" stroke="black" stroke-width="0.84" stroke-linecap="round" stroke-linejoin="round"/>
<ellipse cx="152.491" cy="163.411" rx="22.2136" ry="22.2851" fill="white"/>
<mask id="mask8_0_3121" style="mask-type:alpha" maskUnits="userSpaceOnUse" x="130" y="141" width="45" height="45">
<ellipse cx="152.492" cy="163.411" rx="22.2136" ry="22.2851" fill="white"/>
</mask>
<g mask="url(#mask8_0_3121)">
<path d="M167.208 172.343L176.378 166.17L181.76 169.959L182.441 173.972L170.553 180.204L167.208 172.343Z" fill="white"/>
<mask id="mask9_0_3121" style="mask-type:alpha" maskUnits="userSpaceOnUse" x="167" y="166" width="16" height="15">
<path fill-rule="evenodd" clip-rule="evenodd" d="M167.208 172.343L176.378 166.17L181.76 169.959L182.441 173.971L170.553 180.204L167.208 172.343Z" fill="white"/>
</mask>
<g mask="url(#mask9_0_3121)">
<path d="M179.617 182.266C178.322 175.106 171.848 168.963 171.848 168.963L172.771 180.848L176.811 180.204" fill="white"/>
</g>
<path fill-rule="evenodd" clip-rule="evenodd" d="M167.208 172.343L176.378 166.17L181.76 169.959L182.441 173.972L170.553 180.204L167.208 172.343V172.343Z" stroke="black" stroke-width="0.84" stroke-linecap="round" stroke-linejoin="round"/>
<path d="M171.848 168.963C171.848 168.963 177.232 178.051 175.193 179.566C175.193 179.566 162.383 186.235 164.47 186.141L162.752 171.988C162.752 171.988 166.776 171.155 171.848 168.963Z" fill="white"/>
<path fill-rule="evenodd" clip-rule="evenodd" d="M171.848 168.963C171.848 168.963 177.232 178.051 175.193 179.566C175.193 179.566 162.383 186.235 164.47 186.141L162.752 171.988C162.752 171.988 166.776 171.155 171.848 168.963Z" stroke="black" stroke-width="0.84" stroke-linecap="round" stroke-linejoin="round"/>
<path d="M136.163 170.812L125.388 166.83C125.388 166.83 119.541 173.885 120.433 175.143L134.586 182.267L136.163 170.812Z" fill="white"/>
<mask id="mask10_0_3121" style="mask-type:alpha" maskUnits="userSpaceOnUse" x="120" y="166" width="17" height="17">
<path fill-rule="evenodd" clip-rule="evenodd" d="M136.163 170.812L125.388 166.83C125.388 166.83 119.541 173.886 120.433 175.143L134.586 182.267L136.163 170.812Z" fill="white"/>
</mask>
<g mask="url(#mask10_0_3121)">
<path d="M132.95 168.395C126.26 174.186 125.343 181.601 125.343 181.601L132.194 180.897" fill="white"/>
</g>
<path fill-rule="evenodd" clip-rule="evenodd" d="M136.163 170.812L125.388 166.83C125.388 166.83 119.541 173.885 120.433 175.143L134.586 182.267L136.163 170.812Z" stroke="black" stroke-width="0.84" stroke-linecap="round" stroke-linejoin="round"/>
<path d="M163.521 172.049C163.521 172.049 139.08 169.35 140.371 171.854C144.727 180.308 141.254 167.543 138.42 205.899C138.42 205.899 155.485 213.715 164.799 206.57C164.799 206.57 166.095 192 165.597 181.692" fill="white"/>
<mask id="mask11_0_3121" style="mask-type:alpha" maskUnits="userSpaceOnUse" x="138" y="170" width="28" height="40">
<path fill-rule="evenodd" clip-rule="evenodd" d="M163.521 172.049C163.521 172.049 139.08 169.35 140.371 171.855C144.727 180.309 141.254 167.543 138.42 205.899C138.42 205.899 155.485 213.715 164.799 206.57C164.799 206.57 166.095 192 165.597 181.692" fill="white"/>
</mask>
<g mask="url(#mask11_0_3121)">
<path d="M160.229 172.054C161.722 174.94 160.287 177.552 156.238 177.552C152.189 177.552 147.059 174.94 145.567 172.054C144.074 169.169 146.146 166.83 150.195 166.83C154.244 166.83 158.737 169.169 160.229 172.054Z" fill="white" stroke="black" stroke-width="0.84" stroke-linecap="round" stroke-linejoin="round"/>
<ellipse cx="152.299" cy="171.308" rx="3.71824" ry="7.47052" transform="rotate(-60.8605 152.299 171.308)" fill="white" stroke="black" stroke-width="0.84" stroke-linecap="round" stroke-linejoin="round"/>
</g>
<path d="M163.521 172.049C163.521 172.049 139.08 169.35 140.371 171.854C144.727 180.308 141.254 167.543 138.42 205.899C138.42 205.899 155.485 213.715 164.799 206.57C164.799 206.57 166.095 192 165.597 181.692" stroke="black" stroke-width="0.84" stroke-linecap="round" stroke-linejoin="round"/>
<path d="M144.335 171.464C144.335 171.464 133.921 168.963 131.67 168.699C131.67 168.699 126.302 173.972 127.752 180.204C127.752 180.204 145.629 186.586 148.014 187.374" fill="white"/>
<path d="M144.335 171.464C144.335 171.464 133.921 168.963 131.67 168.699C131.67 168.699 126.302 173.972 127.752 180.204C127.752 180.204 145.629 186.586 148.014 187.374" stroke="black" stroke-width="0.84" stroke-linecap="round" stroke-linejoin="round"/>
<path d="M129.826 170.128L139.998 159.904C139.998 159.904 142.92 159.648 143.76 159.135C144.6 158.622 148.363 154.225 148.363 154.225C148.363 154.225 148.29 153.162 147.413 153.858C147.413 153.858 148.618 152.612 147.924 152.063C147.924 152.063 139.098 156.826 138.233 157.266C137.643 157.566 127.093 164.195 120.444 168.38C119.284 169.112 118.58 170.387 118.578 171.758C118.576 173.13 119.276 174.407 120.433 175.143" fill="white"/>
<path d="M129.826 170.128L139.998 159.904C139.998 159.904 142.92 159.648 143.76 159.135C144.6 158.622 148.363 154.225 148.363 154.225C148.363 154.225 148.29 153.162 147.413 153.858C147.413 153.858 148.618 152.612 147.924 152.063C147.924 152.063 139.098 156.826 138.233 157.266C137.643 157.566 127.093 164.195 120.444 168.38C119.284 169.112 118.58 170.387 118.578 171.758C118.576 173.13 119.276 174.407 120.433 175.143" stroke="black" stroke-width="0.84" stroke-linecap="round" stroke-linejoin="round"/>
<path d="M174.838 171.304L163.067 159.904C163.067 159.904 160.144 159.648 159.304 159.135C158.464 158.622 154.702 154.225 154.702 154.225C154.702 154.225 154.775 153.162 155.652 153.858C155.652 153.858 154.446 152.612 155.14 152.063C155.14 152.063 163.967 156.826 164.832 157.266C165.44 157.575 175.875 164.058 182.011 167.876C183.036 168.516 183.693 169.608 183.779 170.814C183.864 172.02 183.367 173.194 182.442 173.972" fill="white"/>
<path d="M174.838 171.304L163.067 159.904C163.067 159.904 160.144 159.648 159.304 159.135C158.464 158.622 154.702 154.225 154.702 154.225C154.702 154.225 154.775 153.162 155.652 153.858C155.652 153.858 154.446 152.612 155.14 152.063C155.14 152.063 163.967 156.826 164.832 157.266C165.44 157.575 175.875 164.058 182.011 167.876C183.036 168.516 183.693 169.608 183.779 170.814C183.864 172.02 183.367 173.194 182.442 173.972V173.972" stroke="black" stroke-width="0.84" stroke-linecap="round" stroke-linejoin="round"/>
<path d="M147.84 167.265L145.062 157.338C144.219 154.325 146.664 151.407 149.767 151.722L157.089 152.465C157.94 152.541 158.746 152.883 159.394 153.441C160.978 154.844 163.055 157.95 158.674 162.766C152.489 169.565 147.84 167.265 147.84 167.265Z" fill="white" stroke="black" stroke-width="0.84" stroke-linecap="round" stroke-linejoin="round"/>
<path d="M156.647 172.002L155.962 161.585L149.609 163.303L149.041 171.322" fill="white"/>
<mask id="mask12_0_3121" style="mask-type:alpha" maskUnits="userSpaceOnUse" x="149" y="161" width="8" height="12">
<path fill-rule="evenodd" clip-rule="evenodd" d="M156.647 172.002L155.962 161.585L149.609 163.303L149.041 171.322" fill="white"/>
</mask>
<g mask="url(#mask12_0_3121)">
<path d="M152.135 166.056C155.174 167.859 157.016 173.541 156.742 169.154C156.62 167.204 158.618 166.41 158.618 166.41L157.276 162.898L152.162 165.552" fill="white"/>
</g>
<path d="M156.647 172.002L155.962 161.585L149.609 163.303L149.041 171.322" stroke="black" stroke-width="0.84" stroke-linecap="round" stroke-linejoin="round"/>
<path d="M152.136 166.055C154.251 166.788 157.766 167.442 158.565 166.347C160.518 163.672 159.728 156.313 157.276 154.674C154.824 153.034 150.513 157.431 150.513 157.431L150.57 163.876" fill="white"/>
<path d="M152.136 166.055C154.251 166.788 157.766 167.442 158.565 166.347C160.518 163.672 159.728 156.313 157.276 154.674C154.824 153.034 150.513 157.431 150.513 157.431L150.57 163.876" stroke="black" stroke-width="0.84" stroke-linecap="round" stroke-linejoin="round"/>
<path d="M157.852 154.092L149.25 153.087L147.1 157.017L148.594 164.88L149.086 162.175" fill="white"/>
<path d="M149.086 162.175C149.086 162.175 159.028 161.643 157.852 154.092L149.086 162.175Z" fill="white"/>
<path d="M149.086 162.175C149.086 162.175 159.028 161.643 157.852 154.092" stroke="black" stroke-width="0.84" stroke-linecap="round" stroke-linejoin="round"/>
<path d="M152.481 161.766C149.152 157.672 146.456 162.806 151 163.989L152.481 161.766Z" fill="white"/>
<path d="M152.481 161.766C149.152 157.672 146.456 162.806 151 163.989" stroke="black" stroke-width="0.84" stroke-linecap="round" stroke-linejoin="round"/>
<path d="M157.224 160.3C157.091 160.354 156.941 160.353 156.808 160.296C156.675 160.24 156.57 160.132 156.516 159.998L156.172 159.144C156.059 158.865 156.193 158.547 156.472 158.434C156.606 158.379 156.756 158.381 156.889 158.437C157.022 158.494 157.126 158.601 157.18 158.735L157.525 159.589C157.638 159.868 157.503 160.186 157.224 160.3Z" fill="white"/>
<path d="M156.238 156.559C154.688 157.109 154.604 157.88 155.596 157.6C156.588 157.319 157.251 156.199 156.238 156.559Z" fill="white"/>
<path d="M158.637 158.935C160.974 159.375 160.67 161.543 159.194 161.599L158.637 158.935Z" fill="white"/>
<path d="M158.637 158.935C160.974 159.375 160.67 161.543 159.194 161.599" stroke="black" stroke-width="0.84" stroke-linecap="round" stroke-linejoin="round"/>
<path d="M150.852 161.643C150.707 161.488 150.483 161.434 150.284 161.509C150.085 161.583 149.951 161.77 149.944 161.982C149.937 162.195 150.058 162.39 150.252 162.477" stroke="black" stroke-width="0.84" stroke-linecap="round" stroke-linejoin="round"/>
<path d="M139.705 158.654L139.928 159.102" stroke="black" stroke-width="0.84" stroke-linecap="round" stroke-linejoin="round"/>
<path d="M148.342 156.189L147.896 157.832" stroke="black" stroke-width="0.84" stroke-linecap="round" stroke-linejoin="round"/>
<path d="M149.012 157.981V158.28" stroke="black" stroke-width="0.84" stroke-linecap="round" stroke-linejoin="round"/>
<path d="M153.642 173.015C154.22 173.724 154.958 174.287 155.796 174.658" stroke="black" stroke-width="0.84" stroke-linecap="round" stroke-linejoin="round"/>
</g>
<ellipse cx="152.491" cy="163.411" rx="22.2136" ry="22.2851" stroke="black" stroke-width="0.84" stroke-linecap="round" stroke-linejoin="round"/>
<ellipse cx="189.55" cy="100.006" rx="25.0425" ry="25.123" fill="white"/>
<mask id="mask13_0_3121" style="mask-type:alpha" maskUnits="userSpaceOnUse" x="164" y="74" width="51" height="52">
<ellipse cx="189.55" cy="100.006" rx="25.0425" ry="25.123" fill="white"/>
</mask>
<g mask="url(#mask13_0_3121)">
<path d="M190.58 90.179L189.774 85.6478C189.774 85.6478 181.78 82.2426 179.568 93.2512C177.356 104.26 184.076 104.004 178.717 108.868C173.358 113.732 167.233 120.389 173.231 124.229C179.228 128.069 203.981 121.797 203.981 121.797L199.516 105.312L190.58 90.179Z" fill="white" stroke="black" stroke-width="0.84" stroke-linecap="round" stroke-linejoin="round"/>
<path d="M188.5 86.0827C188.073 86.6939 187.677 87.3264 187.314 87.9777C183.547 94.7603 189.222 95.4742 191.204 100.716C192.086 103.048 192.238 106.272 190.491 111.338C185.415 126.059 188.286 133.961 204.918 125.68C216.572 119.877 198.878 80.7064 188.5 86.0827Z" fill="white" stroke="black" stroke-width="0.84" stroke-linecap="round" stroke-linejoin="round"/>
<path d="M193.29 113.178L191.517 98.5442L184.062 101.218L182.406 114.119" fill="white"/>
<mask id="mask14_0_3121" style="mask-type:alpha" maskUnits="userSpaceOnUse" x="182" y="98" width="12" height="17">
<path fill-rule="evenodd" clip-rule="evenodd" d="M193.29 113.178L191.517 98.5439L184.062 101.218L182.406 114.119" fill="white"/>
</mask>
<g mask="url(#mask14_0_3121)">
<path d="M183.5 112.331C185.606 108.77 186.734 106.745 186.734 106.745L183.387 105.83C183.387 105.83 181.393 115.892 183.5 112.331Z" fill="white"/>
</g>
<path d="M193.29 113.178L191.517 98.5442L184.062 101.218L182.406 114.119" stroke="black" stroke-width="0.84" stroke-linecap="round" stroke-linejoin="round"/>
<path d="M189.155 98.5425C189.395 98.331 189.649 98.1371 189.917 97.9622C191.949 96.6316 194.301 96.6355 195.169 97.9709C196.038 99.3063 195.095 101.468 193.063 102.798C192.581 103.116 192.058 103.368 191.508 103.546" fill="white"/>
<path d="M189.155 98.5425C189.395 98.331 189.649 98.1371 189.917 97.9622C191.949 96.6316 194.301 96.6355 195.169 97.9709C196.038 99.3063 195.095 101.468 193.063 102.798C192.581 103.116 192.058 103.368 191.508 103.546" stroke="black" stroke-width="0.84" stroke-linecap="round" stroke-linejoin="round"/>
<path d="M190.757 99.7167C188.775 94.4753 183.546 94.7603 187.313 87.9778C185.533 88.3703 184.214 89.1426 182.897 91.1605L180.373 97.1271C179.604 98.9412 179.642 100.997 180.478 102.781C181.314 104.566 182.869 105.911 184.755 106.481L186.908 107.128" fill="white"/>
<mask id="mask15_0_3121" style="mask-type:alpha" maskUnits="userSpaceOnUse" x="179" y="87" width="12" height="21">
<path fill-rule="evenodd" clip-rule="evenodd" d="M190.757 99.7167C188.775 94.4753 183.546 94.7603 187.313 87.9778C185.533 88.3703 184.214 89.1426 182.897 91.1605L180.373 97.1271C179.604 98.9412 179.642 100.997 180.478 102.781C181.314 104.566 182.869 105.911 184.755 106.481L186.908 107.128" fill="white"/>
</mask>
<g mask="url(#mask15_0_3121)">
<path d="M182.058 96.3177C181.796 96.2598 181.63 96.0003 181.687 95.7377L181.862 94.9335C181.889 94.8074 181.965 94.6973 182.074 94.6274C182.182 94.5576 182.314 94.5337 182.44 94.5611C182.702 94.619 182.869 94.8785 182.811 95.1411L182.636 95.9453C182.609 96.0714 182.533 96.1815 182.425 96.2514C182.316 96.3212 182.184 96.3451 182.058 96.3177Z" fill="white"/>
<path d="M186.598 96.9234C186.336 96.8655 186.17 96.6061 186.227 96.3435L186.402 95.5392C186.429 95.4131 186.505 95.303 186.614 95.2332C186.722 95.1633 186.854 95.1394 186.98 95.1669C187.242 95.2247 187.409 95.4842 187.351 95.7468L187.176 96.551C187.149 96.6771 187.073 96.7873 186.965 96.8571C186.856 96.927 186.724 96.9508 186.598 96.9234Z" fill="white"/>
<path d="M184.463 96.3298C184.142 97.4695 184.051 97.8063 184.051 97.8063C182.118 97.6328 183.802 99.4445 183.802 99.4445" stroke="black" stroke-width="0.6" stroke-linecap="round" stroke-linejoin="round"/>
<path d="M184.964 99.7937C184.844 100.185 184.465 100.438 184.058 100.397" stroke="black" stroke-width="0.6" stroke-linecap="round" stroke-linejoin="round"/>
<path d="M182.566 93.4131C181.535 93.4847 181.623 94.016 182.269 94.0134C182.916 94.0107 183.239 93.3663 182.566 93.4131Z" fill="white"/>
<path d="M187.203 94.0011C188.11 94.4964 187.81 94.9431 187.223 94.6706C186.636 94.3981 186.61 93.6776 187.203 94.0011Z" fill="white"/>
</g>
<path d="M190.757 99.7167C188.775 94.4753 183.546 94.7603 187.313 87.9778C185.533 88.3703 184.214 89.1426 182.897 91.1605L180.373 97.1271C179.604 98.9412 179.642 100.997 180.478 102.781C181.314 104.566 182.869 105.911 184.755 106.481L186.908 107.128" stroke="black" stroke-width="0.84" stroke-linecap="round" stroke-linejoin="round"/>
<path d="M178.947 150.667L180.169 117.223L178.947 116.31L174.198 118.971C172.311 120.03 171.144 122.025 171.146 124.188V152.599L178.947 150.667Z" fill="white"/>
<path fill-rule="evenodd" clip-rule="evenodd" d="M178.947 150.667L180.169 117.223L178.947 116.31L174.198 118.971C172.311 120.03 171.144 122.025 171.146 124.188V152.599L178.947 150.667Z" stroke="black" stroke-width="0.84" stroke-linecap="round" stroke-linejoin="round"/>
<path d="M174.433 124.109C172.91 127.819 172.142 132.092 174.59 135.115C179.859 141.62 178.947 150.667 178.947 150.667L199.921 161.035L201.643 159.104C201.643 159.104 200.802 120.596 202.119 114.802C202.119 114.802 198.134 107.668 196.678 107.975C196.328 108.049 178.947 116.31 178.947 116.31" fill="white"/>
<path d="M174.433 124.109C172.91 127.819 172.142 132.092 174.59 135.115C179.859 141.62 178.947 150.667 178.947 150.667L199.921 161.035L201.643 159.104C201.643 159.104 200.802 120.596 202.119 114.802C202.119 114.802 198.134 107.668 196.678 107.975C196.328 108.049 178.947 116.31 178.947 116.31" stroke="black" stroke-width="0.84" stroke-linecap="round" stroke-linejoin="round"/>
<path d="M192.438 155.697L196.99 153.831L210.965 131.862L202.12 114.802L200.609 110.086L197.723 107.89C200.178 107.69 202.574 108.717 204.121 110.634L221.199 131.761L202.985 155.971L200.273 159.18L196.817 157.797L192.438 155.697Z" fill="white"/>
<path fill-rule="evenodd" clip-rule="evenodd" d="M192.438 155.697L196.99 153.831L210.965 131.862L202.12 114.802L200.609 110.086L197.723 107.89C200.178 107.69 202.574 108.717 204.121 110.634L221.199 131.761L202.985 155.971L200.273 159.18L196.817 157.797L192.438 155.697Z" stroke="black" stroke-width="0.84" stroke-linecap="round" stroke-linejoin="round"/>
<path d="M193.837 118.646L205.443 131.661L197.637 146.754C197.907 149.71 207.195 153.358 207.195 153.358L219.524 136.169C221.66 133.19 221.468 129.134 219.061 126.369L204.916 110.143C203.121 108.08 200.341 107.164 197.671 107.755L196.679 107.975" fill="white"/>
<path d="M193.837 118.646L205.443 131.661L197.637 146.754C197.907 149.71 207.195 153.358 207.195 153.358L219.524 136.169C221.66 133.19 221.468 129.134 219.061 126.369L204.916 110.143C203.121 108.08 200.341 107.164 197.671 107.755L196.679 107.975" stroke="black" stroke-width="0.84" stroke-linecap="round" stroke-linejoin="round"/>
<path d="M199.221 100.556C200.077 101.333 200.71 102.324 201.054 103.428" stroke="black" stroke-width="0.84" stroke-linecap="round" stroke-linejoin="round"/>
<path d="M192.571 98.7204C192.826 98.6918 193.111 98.6712 193.311 98.8311C193.512 98.991 193.488 99.3997 193.233 99.4313" stroke="black" stroke-width="0.84" stroke-linecap="round" stroke-linejoin="round"/>
</g>
<ellipse cx="189.55" cy="100.006" rx="25.0425" ry="25.123" stroke="black" stroke-width="0.84" stroke-linecap="round" stroke-linejoin="round"/>
<ellipse cx="304.746" cy="174.217" rx="19.1406" ry="19.2021" fill="white"/>
<mask id="mask16_0_3121" style="mask-type:alpha" maskUnits="userSpaceOnUse" x="285" y="155" width="39" height="39">
<ellipse cx="304.745" cy="174.217" rx="19.1406" ry="19.2021" fill="white"/>
</mask>
<g mask="url(#mask16_0_3121)">
<path d="M313.785 163.232C313.796 160.073 311.408 157.422 308.266 157.104C305.123 156.786 302.252 158.904 301.629 162.001C298.1 162.926 295.867 166.398 296.488 169.993C297.11 173.587 300.38 176.108 304.014 175.795C307.649 175.481 310.439 172.438 310.435 168.79C310.435 168.764 310.432 168.741 310.432 168.716C312.491 167.663 313.786 165.545 313.785 163.232Z" fill="white" stroke="black" stroke-width="0.84" stroke-linecap="round" stroke-linejoin="round"/>
<ellipse cx="302.393" cy="181.782" rx="7.00847" ry="7.031" fill="white" stroke="black" stroke-width="0.84" stroke-linecap="round" stroke-linejoin="round"/>
<path d="M317.092 203.15C317.092 203.15 320.611 207.786 322.245 208.162L331.051 200.469C332.611 199.106 332.729 196.502 331.3 194.967L318.635 181.364C317.013 179.621 314.446 179.67 312.877 181.473C311.153 183.453 311.428 187.675 313.39 189.352L322.889 197.494L317.092 203.15Z" fill="white"/>
<mask id="mask17_0_3121" style="mask-type:alpha" maskUnits="userSpaceOnUse" x="311" y="180" width="22" height="29">
<path fill-rule="evenodd" clip-rule="evenodd" d="M317.092 203.15C317.092 203.15 320.611 207.786 322.245 208.162L331.051 200.469C332.611 199.106 332.729 196.502 331.3 194.967L318.635 181.364C317.013 179.621 314.446 179.67 312.877 181.473C311.153 183.453 311.428 187.675 313.39 189.352L322.889 197.494L317.092 203.15Z" fill="white"/>
</mask>
<g mask="url(#mask17_0_3121)">
<path d="M318.281 186.745C317.468 196.03 322.018 196.748 322.018 196.748L312.811 195.373L316.3 186.847" fill="white"/>
</g>
<path fill-rule="evenodd" clip-rule="evenodd" d="M317.092 203.15C317.092 203.15 320.611 207.786 322.245 208.162L331.051 200.469C332.611 199.106 332.729 196.502 331.3 194.967L318.635 181.364C317.013 179.621 314.446 179.67 312.877 181.473V181.473C311.153 183.453 311.428 187.675 313.39 189.352L322.889 197.494L317.092 203.15Z" stroke="black" stroke-width="0.84" stroke-linecap="round" stroke-linejoin="round"/>
<path d="M316.306 180.123C316.306 180.123 303.223 176.618 294.18 179.569C294.18 179.569 294.812 196.369 296.911 203.188C306.064 205.593 314.465 203.443 314.465 203.443C314.465 203.443 318.869 193.968 318.214 186.078" fill="white"/>
<mask id="mask18_0_3121" style="mask-type:alpha" maskUnits="userSpaceOnUse" x="294" y="178" width="25" height="27">
<path fill-rule="evenodd" clip-rule="evenodd" d="M316.306 180.123C316.306 180.123 303.223 176.618 294.18 179.569C294.18 179.569 294.812 196.369 296.911 203.188C306.064 205.593 314.465 203.443 314.465 203.443C314.465 203.443 318.869 193.968 318.214 186.078" fill="white"/>
</mask>
<g mask="url(#mask18_0_3121)">
<ellipse cx="306.034" cy="179.676" rx="4.2949" ry="5.47556" transform="rotate(-68.4146 306.034 179.676)" fill="white" stroke="black" stroke-width="0.840027" stroke-linecap="round" stroke-linejoin="round"/>
<ellipse cx="302.92" cy="189.979" rx="3.67762" ry="3.68945" fill="white" stroke="black" stroke-width="0.84" stroke-linecap="round" stroke-linejoin="round"/>
<rect x="308.063" y="186.645" width="5.34959" height="5.36678" fill="white" stroke="black" stroke-width="0.84" stroke-linecap="round" stroke-linejoin="round"/>
</g>
<path d="M316.306 180.123C316.306 180.123 303.223 176.618 294.18 179.569C294.18 179.569 294.812 196.369 296.911 203.188C306.064 205.593 314.465 203.443 314.465 203.443C314.465 203.443 318.869 193.968 318.214 186.078" stroke="black" stroke-width="0.84" stroke-linecap="round" stroke-linejoin="round"/>
<path d="M310.951 204.745H302.721C302.462 204.758 302.212 204.646 302.048 204.445C301.884 204.243 301.826 203.976 301.891 203.725L304.396 191.264C304.531 190.682 305.04 190.264 305.636 190.243H313.866C314.125 190.231 314.375 190.342 314.539 190.544C314.703 190.745 314.761 191.012 314.696 191.264L312.191 203.725C312.056 204.306 311.547 204.725 310.951 204.745Z" fill="white" stroke="black" stroke-width="0.84" stroke-linecap="round" stroke-linejoin="round"/>
<path d="M309.534 179.543L310.03 171.151H303.427L302.627 179.062" fill="white"/>
<mask id="mask19_0_3121" style="mask-type:alpha" maskUnits="userSpaceOnUse" x="302" y="171" width="9" height="9">
<path fill-rule="evenodd" clip-rule="evenodd" d="M309.534 179.543L310.03 171.151H303.427L302.627 179.062" fill="white"/>
</mask>
<g mask="url(#mask19_0_3121)">
<path d="M311.708 179.195C306.712 179.195 308.711 176.512 305.102 174.019C302.164 171.99 309.402 172.466 309.402 172.466L311.708 179.195Z" fill="white"/>
</g>
<path d="M309.534 179.543L310.03 171.151H303.427L302.627 179.062" stroke="black" stroke-width="0.84" stroke-linecap="round" stroke-linejoin="round"/>
<path d="M305.095 174.382C312.586 178.955 314.027 170.22 311.941 165.768C310.018 166.659 308.161 164.309 308.161 164.309C307.398 166.08 304.478 165.736 304.478 165.736C304.478 165.736 304.302 169.293 301.465 170.745L301.507 171.557" fill="white"/>
<mask id="mask20_0_3121" style="mask-type:alpha" maskUnits="userSpaceOnUse" x="301" y="164" width="12" height="12">
<path fill-rule="evenodd" clip-rule="evenodd" d="M305.095 174.383C312.586 178.955 314.027 170.221 311.941 165.768C310.018 166.659 308.161 164.309 308.161 164.309C307.398 166.08 304.478 165.736 304.478 165.736C304.478 165.736 304.302 169.293 301.465 170.746L301.507 171.557" fill="white"/>
</mask>
<g mask="url(#mask20_0_3121)">
<path d="M311.296 169.697C311.069 169.692 310.888 169.504 310.893 169.277L310.908 168.576C310.913 168.348 311.101 168.168 311.329 168.173C311.556 168.178 311.737 168.366 311.732 168.594L311.717 169.294C311.712 169.522 311.524 169.702 311.296 169.697L311.296 169.697Z" fill="white"/>
<path d="M309.454 168.846C309.689 169.842 309.755 170.136 309.755 170.136C311.43 170.058 309.908 171.559 309.908 171.559" stroke="black" stroke-width="0.6" stroke-linecap="round" stroke-linejoin="round"/>
<path d="M308.894 171.817C308.982 172.159 309.3 172.391 309.653 172.371" stroke="black" stroke-width="0.6" stroke-linecap="round" stroke-linejoin="round"/>
<path d="M307.457 169.458C307.23 169.454 307.049 169.265 307.054 169.038L307.069 168.337C307.074 168.11 307.262 167.929 307.49 167.934C307.717 167.939 307.898 168.127 307.893 168.355L307.878 169.055C307.873 169.283 307.685 169.463 307.457 169.458L307.457 169.458Z" fill="white"/>
<path d="M311.452 167.201C312.288 167.465 312.111 167.886 311.578 167.755C311.045 167.624 310.906 167.028 311.452 167.201Z" fill="white"/>
<path d="M307.536 166.928C306.69 167.156 306.849 167.584 307.387 167.476C307.925 167.368 308.088 166.779 307.536 166.928Z" fill="white"/>
</g>
<path d="M305.095 174.382C312.586 178.955 314.027 170.22 311.941 165.768C310.018 166.659 308.161 164.309 308.161 164.309C307.398 166.08 304.478 165.736 304.478 165.736C304.478 165.736 304.302 169.293 301.465 170.745L301.507 171.557" stroke="black" stroke-width="0.84" stroke-linecap="round" stroke-linejoin="round"/>
<path d="M303.631 169.391C299.905 165.87 297.791 172.846 303.427 173.217L303.631 169.391Z" fill="white"/>
<path d="M303.631 169.391C299.905 165.87 297.791 172.846 303.427 173.217" stroke="black" stroke-width="0.84" stroke-linecap="round" stroke-linejoin="round"/>
<path d="M295.384 179.212C293.526 179.641 291.741 180.542 291.086 182.347L282.625 204.502C282.54 204.692 282.471 204.889 282.42 205.091L282.401 205.146L282.407 205.145C282.222 205.904 282.297 206.703 282.619 207.415C283.47 209.313 285.808 210.267 287.928 209.581L300.11 205.639C300.78 203.805 299.437 199.14 299.437 199.14L293.116 200.544L298.393 187.554" fill="white"/>
<path d="M295.384 179.212C293.526 179.641 291.741 180.542 291.086 182.347L282.625 204.502C282.54 204.692 282.471 204.889 282.42 205.091L282.401 205.146L282.407 205.145C282.222 205.904 282.297 206.703 282.619 207.415C283.47 209.313 285.808 210.267 287.928 209.581L300.11 205.639C300.78 203.805 299.437 199.14 299.437 199.14L293.116 200.544L298.393 187.554" stroke="black" stroke-width="0.84" stroke-linecap="round" stroke-linejoin="round"/>
<path d="M301.576 161.99C301.439 162.646 301.596 163.329 302.006 163.859" stroke="black" stroke-width="0.84" stroke-linecap="round" stroke-linejoin="round"/>
<path d="M310.852 162.552L311.065 163.194" stroke="black" stroke-width="0.84" stroke-linecap="round" stroke-linejoin="round"/>
</g>
<ellipse cx="304.746" cy="174.217" rx="19.1406" ry="19.2021" stroke="black" stroke-width="0.84" stroke-linecap="round" stroke-linejoin="round"/>
<ellipse cx="286.538" cy="98.7595" rx="22.641" ry="22.7138" fill="white"/>
<mask id="mask21_0_3121" style="mask-type:alpha" maskUnits="userSpaceOnUse" x="263" y="76" width="47" height="46">
<ellipse cx="286.538" cy="98.7595" rx="22.641" ry="22.7138" fill="white"/>
</mask>
<g mask="url(#mask21_0_3121)">
<path d="M324.029 145.497L334.196 144.689C334.196 144.689 300.588 114.183 299.657 113.665C298.726 113.147 293.396 119.595 293.396 119.595L294.198 128.845L296.998 130.53L318.43 148.244" fill="white"/>
<path d="M324.029 145.497L334.196 144.689C334.196 144.689 300.588 114.183 299.657 113.665C298.726 113.147 293.396 119.595 293.396 119.595L294.198 128.845L296.998 130.53L318.43 148.244" stroke="black" stroke-width="0.84" stroke-linecap="round" stroke-linejoin="round"/>
<path d="M299.658 113.665C299.658 113.665 289.796 107.276 272.182 110.831C269.392 111.394 267.34 113.796 267.144 116.643L264.398 156.533L304.085 149.715L301.346 127.409" fill="white"/>
<mask id="mask22_0_3121" style="mask-type:alpha" maskUnits="userSpaceOnUse" x="264" y="109" width="41" height="48">
<path fill-rule="evenodd" clip-rule="evenodd" d="M299.658 113.665C299.658 113.665 289.796 107.276 272.182 110.831C269.392 111.394 267.34 113.796 267.144 116.643L264.398 156.533L304.085 149.715L301.346 127.409" fill="white"/>
</mask>
<g mask="url(#mask22_0_3121)">
<ellipse cx="286.343" cy="110.716" rx="5.52134" ry="8.68795" transform="rotate(-60.8387 286.343 110.716)" fill="white" stroke="black" stroke-width="0.84" stroke-linecap="round" stroke-linejoin="round"/>
</g>
<path d="M299.658 113.665C299.658 113.665 289.796 107.276 272.182 110.831C269.392 111.394 267.34 113.796 267.144 116.643L264.398 156.533L304.085 149.715L301.346 127.409" stroke="black" stroke-width="0.84" stroke-linecap="round" stroke-linejoin="round"/>
<path d="M278.306 99.1661C278.496 99.543 280.562 110.174 280.562 110.174C280.562 110.174 284.93 115.929 289.881 115.451C294.022 115.052 292.5 112.028 292.5 112.028L288.751 97.4106L278.306 99.1661Z" fill="white"/>
<mask id="mask23_0_3121" style="mask-type:alpha" maskUnits="userSpaceOnUse" x="278" y="97" width="15" height="19">
<path fill-rule="evenodd" clip-rule="evenodd" d="M278.305 99.1661C278.495 99.543 280.561 110.174 280.561 110.174C280.561 110.174 284.929 115.929 289.88 115.451C294.021 115.052 292.499 112.028 292.499 112.028L288.75 97.4106L278.305 99.1661Z" fill="white"/>
</mask>
<g mask="url(#mask23_0_3121)">
<path d="M285.525 103.502C290.429 113.216 292.763 111.351 292.763 111.351L291.283 97.7446L281.397 99.0945" fill="white"/>
</g>
<path fill-rule="evenodd" clip-rule="evenodd" d="M278.306 99.1661C278.496 99.543 280.562 110.174 280.562 110.174C280.562 110.174 284.93 115.929 289.881 115.451C294.022 115.052 292.5 112.028 292.5 112.028L288.751 97.4106L278.306 99.1661Z" stroke="black" stroke-width="0.84" stroke-linecap="round" stroke-linejoin="round"/>
<path d="M285.525 103.502C289.749 103.274 294.944 102.556 295.148 100.431C295.745 94.1871 288.597 82.8594 288.597 82.8594L281.166 88.7256L277.026 97.3829L278.706 100.253" fill="white"/>
<path d="M285.525 103.502C289.749 103.274 294.944 102.556 295.148 100.431C295.745 94.1871 288.597 82.8594 288.597 82.8594L281.166 88.7256L277.026 97.3829L278.706 100.253" stroke="black" stroke-width="0.84" stroke-linecap="round" stroke-linejoin="round"/>
<path d="M279.057 98.4517C280.94 97.0026 281.776 93.3495 280.921 92.0758C280.921 92.0758 293.023 85.6958 293.778 80.0247C294.534 74.3537 284.383 77.0165 279.622 85.3227C279.622 85.3227 281.93 79.7724 277.54 83.4835C273.149 87.1947 273.326 91.8345 273.326 91.8345C273.326 91.8345 271.352 97.6434 279.166 103.796L279.057 98.4517Z" fill="white" stroke="black" stroke-width="0.84" stroke-linecap="round" stroke-linejoin="round"/>
<path d="M281.96 95.9712C275.57 90.8387 273.427 98.7507 279.212 101.608C279.496 101.751 279.789 101.876 280.088 101.984" fill="white"/>
<path d="M281.96 95.9712C275.57 90.8387 273.427 98.7507 279.212 101.608C279.496 101.751 279.789 101.876 280.088 101.984" stroke="black" stroke-width="0.84" stroke-linecap="round" stroke-linejoin="round"/>
<path d="M269.717 111.93L236.499 134.956C228.822 139.56 228.721 147.67 236.329 152.39L252.132 166.082C252.132 166.082 258.746 157.699 260.427 155.046L250.908 145.083C250.908 145.083 266.418 133.579 272.044 129.536" fill="white"/>
<path d="M269.717 111.93L236.499 134.956C228.822 139.56 228.721 147.67 236.329 152.39L252.132 166.082C252.132 166.082 258.746 157.699 260.427 155.046L250.908 145.083C250.908 145.083 266.418 133.579 272.044 129.536" stroke="black" stroke-width="0.84" stroke-linecap="round" stroke-linejoin="round"/>
<path d="M291.989 92.1663C292.147 92.0994 292.27 91.9704 292.33 91.8096C292.39 91.6488 292.382 91.4704 292.306 91.3163L291.818 90.3446C291.647 90.0228 291.255 89.8908 290.924 90.0438C290.766 90.1106 290.642 90.2396 290.582 90.4004C290.522 90.5612 290.531 90.7396 290.607 90.8937L291.094 91.8655C291.265 92.1872 291.658 92.3192 291.989 92.1663Z" fill="white"/>
<path d="M289.535 91.9084C290.281 93.3361 290.497 93.7591 290.497 93.7591C293.022 92.9886 291.285 95.8709 291.285 95.8709" stroke="black" stroke-width="0.808224" stroke-linecap="round" stroke-linejoin="round"/>
<path d="M289.836 96.6599C290.104 97.1478 290.68 97.3782 291.211 97.2104" stroke="black" stroke-width="0.808224" stroke-linecap="round" stroke-linejoin="round"/>
<path d="M288.025 93.7617C288.183 93.6949 288.307 93.5659 288.367 93.4051C288.427 93.2443 288.418 93.0659 288.342 92.9118L287.855 91.94C287.683 91.6183 287.291 91.4863 286.96 91.6392C286.802 91.7061 286.678 91.8351 286.618 91.9959C286.558 92.1567 286.567 92.3351 286.643 92.4892L287.13 93.4609C287.302 93.7826 287.694 93.9147 288.025 93.7617Z" fill="white"/>
<path d="M290.395 88.619C291.803 88.4012 291.783 89.1955 290.912 89.3862C290.041 89.5769 289.475 88.7614 290.395 88.619Z" fill="white"/>
<path d="M286.294 90.2214C285.229 91.1242 285.772 91.6032 286.477 91.0801C287.181 90.5569 286.989 89.6315 286.294 90.2214Z" fill="white"/>
<path d="M288.265 81.03C287.535 82.5975 286.223 83.8023 284.944 84.9635" stroke="black" stroke-width="0.84" stroke-linecap="round" stroke-linejoin="round"/>
<path d="M278.986 96.9463C278.786 96.9602 278.571 96.9796 278.416 97.1075C278.26 97.2354 278.216 97.5139 278.382 97.6276" stroke="black" stroke-width="0.84" stroke-linecap="round" stroke-linejoin="round"/>
</g>
<ellipse cx="286.538" cy="98.7595" rx="22.641" ry="22.7138" stroke="black" stroke-width="0.84" stroke-linecap="round" stroke-linejoin="round"/>
<path d="M150.7 197.283C150.723 197.258 150.727 197.222 150.712 197.192C150.697 197.162 150.665 197.143 150.632 197.146C95.9241 201.558 134.431 257.067 84.6731 240.641C34.8518 224.194 49.5427 286.137 101.6 267.554C141.393 253.349 105.624 202.036 150.722 203.795L150.7 197.283Z" fill="white"/>
<mask id="mask24_0_3121" style="mask-type:alpha" maskUnits="userSpaceOnUse" x="54" y="197" width="97" height="75">
<path fill-rule="evenodd" clip-rule="evenodd" d="M150.7 197.283C150.723 197.258 150.727 197.222 150.712 197.192C150.697 197.162 150.665 197.143 150.632 197.146C95.9241 201.558 134.431 257.067 84.6731 240.641C34.8518 224.194 49.5427 286.137 101.6 267.554C141.393 253.349 105.624 202.036 150.722 203.795L150.7 197.283Z" fill="white"/>
</mask>
<g mask="url(#mask24_0_3121)">
<ellipse cx="85.6885" cy="239.361" rx="10.4326" ry="15.2721" fill="white" stroke="black" stroke-width="0.84" stroke-linecap="round" stroke-linejoin="round"/>
<ellipse cx="66.0807" cy="271.069" rx="10.4364" ry="15.2665" transform="rotate(-19.599 66.0807 271.069)" fill="white" stroke="black" stroke-width="0.84" stroke-linecap="round" stroke-linejoin="round"/>
<ellipse cx="120.581" cy="256.57" rx="10.4367" ry="15.2669" transform="rotate(-19.5964 120.581 256.57)" fill="white" stroke="black" stroke-width="0.840019" stroke-linecap="round" stroke-linejoin="round"/>
<path d="M127.681 204.836C113.352 215.032 124.684 238.344 121.76 252.024C119.505 262.571 142.839 215.937 142.839 215.937L136.073 199.195" fill="white"/>
</g>
<path fill-rule="evenodd" clip-rule="evenodd" d="M150.7 197.283C150.723 197.258 150.727 197.222 150.712 197.192C150.697 197.162 150.665 197.143 150.632 197.146C95.9241 201.558 134.431 257.067 84.6731 240.641C34.8518 224.194 49.5427 286.137 101.6 267.554C141.393 253.349 105.624 202.036 150.722 203.795L150.7 197.283Z" stroke="black" stroke-width="0.84" stroke-linecap="round" stroke-linejoin="round"/>
<path d="M225.481 279.543H163.543C161.148 279.544 158.84 278.647 157.075 277.027C58.0101 185.949 194.132 163.986 239.229 257.328C239.229 257.328 240.427 250.76 246.175 249.558C246.175 249.558 247.625 250.238 248.264 257.287C248.264 257.287 253.605 255.449 257.083 260.426C257.083 260.426 259.908 257.889 263.805 257.916C263.805 257.916 265.751 261.568 263.315 267.817C268.318 276.734 257.418 279.543 257.418 279.543H223.565" fill="white"/>
<mask id="mask25_0_3121" style="mask-type:alpha" maskUnits="userSpaceOnUse" x="121" y="197" width="144" height="83">
<path fill-rule="evenodd" clip-rule="evenodd" d="M225.48 279.543H163.542C161.147 279.544 158.839 278.647 157.074 277.027C58.0091 185.949 194.131 163.986 239.228 257.328C239.228 257.328 240.426 250.76 246.174 249.558C246.174 249.558 247.625 250.238 248.263 257.287C248.263 257.287 253.604 255.449 257.082 260.426C257.082 260.426 259.907 257.889 263.804 257.916C263.804 257.916 265.75 261.568 263.314 267.817C268.317 276.734 257.417 279.543 257.417 279.543H223.564" fill="white"/>
</mask>
<g mask="url(#mask25_0_3121)">
<path d="M242.098 245.528L239.229 257.328C239.229 257.328 229.298 258.478 234.279 270.555C234.279 270.555 224.995 255.781 239.411 245.528" fill="white"/>
<path d="M203.003 283.895C203.003 283.895 205.815 259.042 185.46 271.362C185.46 271.362 227.02 215.711 183.303 211.894C178.923 211.511 178.471 215.259 178.471 215.259L184.222 234.107L163.542 279.543L146.262 281.811" fill="white"/>
<path d="M235.534 280.874C235.534 280.874 237.7 265.243 217.167 268.599C196.635 271.955 210.774 285.132 210.774 285.132H228.251" fill="white"/>
<ellipse cx="218.667" cy="217.54" rx="15.8761" ry="23.2238" transform="rotate(-19.599 218.667 217.54)" fill="white" stroke="black" stroke-width="0.84" stroke-linecap="round" stroke-linejoin="round"/>
<ellipse cx="253.744" cy="256.809" rx="4.27153" ry="4.28527" fill="white"/>
<ellipse cx="264.628" cy="275.531" rx="4.27153" ry="4.28527" fill="white"/>
<ellipse cx="236.979" cy="268.164" rx="3.02042" ry="3.03014" fill="white"/>
<ellipse cx="139.911" cy="262.931" rx="23.1893" ry="15.8997" transform="rotate(-40.7431 139.911 262.931)" fill="white" stroke="black" stroke-width="0.84" stroke-linecap="round" stroke-linejoin="round"/>
<path d="M234.279 270.555C229.834 265.938 234.585 257.089 239.229 257.328" stroke="black" stroke-width="0.84" stroke-linecap="round" stroke-linejoin="round"/>
</g>
<path d="M225.481 279.543H163.543C161.148 279.544 158.84 278.647 157.075 277.027C58.0101 185.949 194.132 163.986 239.229 257.328C239.229 257.328 240.427 250.76 246.175 249.558C246.175 249.558 247.625 250.238 248.264 257.287C248.264 257.287 253.605 255.449 257.083 260.426C257.083 260.426 259.908 257.889 263.805 257.916C263.805 257.916 265.751 261.568 263.315 267.817C268.318 276.734 257.418 279.543 257.418 279.543H223.565" stroke="black" stroke-width="0.84" stroke-linecap="round" stroke-linejoin="round"/>
<path d="M212.28 241.309C180.983 264.591 198.654 279.543 198.654 279.543H234.21C234.21 279.543 235.534 265.839 216.33 269.913L222.822 261.355" fill="white"/>
<mask id="mask26_0_3121" style="mask-type:alpha" maskUnits="userSpaceOnUse" x="193" y="241" width="42" height="39">
<path fill-rule="evenodd" clip-rule="evenodd" d="M212.28 241.309C180.983 264.591 198.654 279.543 198.654 279.543H234.21C234.21 279.543 235.534 265.839 216.33 269.913L222.822 261.355" fill="white"/>
</mask>
<g mask="url(#mask26_0_3121)">
<path d="M190.057 266.193C201.812 265.175 198.767 281.811 198.767 281.811L184.982 277.191L187.475 270.555" fill="white"/>
</g>
<path d="M212.28 241.309C180.983 264.591 198.654 279.543 198.654 279.543H234.21C234.21 279.543 235.534 265.839 216.33 269.913L222.822 261.355" stroke="black" stroke-width="0.84" stroke-linecap="round" stroke-linejoin="round"/>
<path d="M178.92 211.556C208.364 213.075 196.759 255.155 182.793 272.708C182.793 272.708 200.505 262.242 196.759 279.543H161.502" fill="white"/>
<path d="M178.92 211.556C208.364 213.075 196.759 255.155 182.793 272.708C182.793 272.708 200.505 262.242 196.759 279.543H161.502" stroke="black" stroke-width="0.84" stroke-linecap="round" stroke-linejoin="round"/>
<ellipse cx="246.73" cy="267.395" rx="4.33663" ry="2.1513" transform="rotate(-68.5133 246.73 267.395)" fill="white"/>
<mask id="mask27_0_3121" style="mask-type:alpha" maskUnits="userSpaceOnUse" x="244" y="263" width="6" height="9">
<ellipse cx="246.73" cy="267.395" rx="4.33663" ry="2.1513" transform="rotate(-68.5133 246.73 267.395)" fill="white"/>
</mask>
<g mask="url(#mask27_0_3121)">
<ellipse cx="248.883" cy="266.876" rx="1.13125" ry="1.52466" transform="rotate(-76.7079 248.883 266.876)" fill="white" stroke="black" stroke-width="0.84" stroke-linecap="round" stroke-linejoin="round"/>
</g>
<ellipse cx="246.73" cy="267.395" rx="4.33663" ry="2.1513" transform="rotate(-68.5133 246.73 267.395)" stroke="black" stroke-width="0.84" stroke-linecap="round" stroke-linejoin="round"/>
<ellipse cx="254.844" cy="269.913" rx="4.33663" ry="2.1513" transform="rotate(-68.5133 254.844 269.913)" fill="white"/>
<mask id="mask28_0_3121" style="mask-type:alpha" maskUnits="userSpaceOnUse" x="252" y="265" width="6" height="10">
<ellipse cx="254.845" cy="269.913" rx="4.33663" ry="2.1513" transform="rotate(-68.5133 254.845 269.913)" fill="white"/>
</mask>
<g mask="url(#mask28_0_3121)">
<ellipse cx="256.997" cy="269.394" rx="1.13125" ry="1.52466" transform="rotate(-76.7079 256.997 269.394)" fill="white" stroke="black" stroke-width="0.84" stroke-linecap="round" stroke-linejoin="round"/>
</g>
<ellipse cx="254.844" cy="269.913" rx="4.33663" ry="2.1513" transform="rotate(-68.5133 254.844 269.913)" stroke="black" stroke-width="0.84" stroke-linecap="round" stroke-linejoin="round"/>
<path d="M254.589 274.65C258.766 273.472 267.12 274.929 270.447 276.835" stroke="black" stroke-width="0.84" stroke-linecap="round" stroke-linejoin="round"/>
<path d="M254.463 276.561C258.64 275.383 265.877 278.968 269.204 280.874" stroke="black" stroke-width="0.84" stroke-linecap="round" stroke-linejoin="round"/>
<path d="M253.744 278.49C261.566 279.435 265.829 283.61 267.168 285.132" stroke="black" stroke-width="0.84" stroke-linecap="round" stroke-linejoin="round"/>
<path d="M243.994 271.362C241.47 268.104 233.874 264.612 229.964 264.271" stroke="black" stroke-width="0.84" stroke-linecap="round" stroke-linejoin="round"/>
<path d="M242.818 272.946C240.293 269.689 232.163 268.504 228.252 268.164" stroke="black" stroke-width="0.84" stroke-linecap="round" stroke-linejoin="round"/>
<path d="M242.099 274.876C235.267 271.273 229.099 272.211 227.021 272.672" stroke="black" stroke-width="0.84" stroke-linecap="round" stroke-linejoin="round"/>
<path d="M247.947 276.687L247.46 275.786C247.098 275.114 247.739 274.355 248.543 274.504L249.165 274.619C249.344 274.652 249.52 274.707 249.687 274.781L250.256 275.035C250.589 275.165 250.809 275.486 250.81 275.844C250.81 276.202 250.591 276.523 250.258 276.654L249.27 277.098C248.789 277.321 248.217 277.143 247.947 276.687Z" fill="white" stroke="black" stroke-width="0.84" stroke-linecap="round" stroke-linejoin="round"/>
<path d="M135.003 218.315C133.121 220.662 133.152 224.344 135.072 226.659" stroke="black" stroke-width="0.84" stroke-linecap="round" stroke-linejoin="round"/>
<path d="M98.2296 257.869L97.1729 260.226" stroke="black" stroke-width="0.84" stroke-linecap="round" stroke-linejoin="round"/>
<path d="M180.358 229.641C182.918 230.806 184.185 234.208 183.014 236.771" stroke="black" stroke-width="0.84" stroke-linecap="round" stroke-linejoin="round"/>
<path d="M228.059 251.401C227.187 252.024 226.668 253.027 226.662 254.098" stroke="black" stroke-width="0.84" stroke-linecap="round" stroke-linejoin="round"/>
</g>
</svg>
