<svg width="480" height="360" viewBox="0 0 480 360" fill="none" xmlns="http://www.w3.org/2000/svg">
<mask id="mask0_0_2928" style="mask-type:alpha" maskUnits="userSpaceOnUse" x="0" y="0" width="480" height="360">
<rect width="480" height="360" fill="white"/>
</mask>
<g mask="url(#mask0_0_2928)">
<path opacity="0.2" d="M127.452 235.494C139.499 241.381 154.842 244.711 171.709 244.77C171.718 244.827 171.724 244.883 171.734 244.94C178.43 284.242 236.052 307.21 300.437 296.24C361.757 285.791 407.094 248.326 405.484 210.83C431.096 197.538 446.626 177.057 443.223 157.087C441.062 144.401 431.62 134.052 417.699 127.147C424.358 115.93 427.172 104 425.161 92.1994C418.465 52.8973 360.843 29.9295 296.458 40.8995C255.634 47.8553 221.9 66.7876 204.381 89.7299C188.466 87.907 171.078 88.3287 153.165 91.3808C88.7805 102.351 42.0155 143.104 48.7119 182.407C53.594 211.06 85.5475 231.027 127.452 235.494Z" fill="white"/>
<ellipse cx="341.281" cy="336.685" rx="27.9322" ry="2.44433" fill="#1B1B1B" stroke="#1B1B1B" stroke-width="0.84" stroke-linecap="round" stroke-linejoin="round"/>
<path d="M351.014 282.345L350.047 282.692C350.047 282.692 311.535 187.476 220.197 163.129C220.197 163.129 303.621 176.968 351.014 282.345Z" fill="#190000"/>
<path d="M425.976 179.595C425.976 179.595 348.786 192.793 333.13 277.617L337.543 279.757C337.543 279.757 414.752 251.767 425.976 179.595Z" fill="white"/>
<mask id="mask1_0_2928" style="mask-type:alpha" maskUnits="userSpaceOnUse" x="333" y="179" width="93" height="101">
<path fill-rule="evenodd" clip-rule="evenodd" d="M425.976 179.595C425.976 179.595 348.787 192.793 333.131 277.617L337.543 279.757C337.543 279.757 414.753 251.767 425.976 179.595Z" fill="white"/>
</mask>
<g mask="url(#mask1_0_2928)">
<path d="M328.082 257.623C357.189 238.36 424.43 285.295 396.089 239.468C367.749 193.641 453.095 296.754 453.095 296.754L325.795 282.658" fill="white"/>
</g>
<path fill-rule="evenodd" clip-rule="evenodd" d="M425.976 179.595C425.976 179.595 348.786 192.793 333.13 277.617L337.543 279.757C337.543 279.757 414.752 251.767 425.976 179.595Z" stroke="#1B1B1B" stroke-width="0.84" stroke-linecap="round" stroke-linejoin="round"/>
<path fill-rule="evenodd" clip-rule="evenodd" d="M419.406 185.381C411.225 190.441 401.943 198.638 392.595 208.119L392.596 208.119C392.642 208.128 404.475 210.449 415.763 206.366C404.886 211.726 390.616 210.157 390.604 210.156C380.068 221.032 369.547 233.371 360.516 244.538C360.969 244.624 376.123 247.439 390.665 242.077C377.765 248.528 361.269 247.504 358.325 247.26C344.485 264.538 334.658 278.358 334.658 278.358L333.131 277.617C333.131 277.617 350.696 252.754 371.966 228.362C370.848 225.69 368.728 219.285 369.937 211.271C369.444 219.89 372.569 225.341 373.44 226.681C388.714 209.323 405.707 192.501 419.406 185.381ZM392.474 208.241L390.949 209.802C391.457 209.278 391.966 208.758 392.474 208.241Z" fill="white"/>
<path d="M383.052 85.2781C383.052 85.2781 296.35 149.628 337.405 267.061C337.405 267.061 420.596 183.902 383.052 85.2781Z" fill="white"/>
<mask id="mask2_0_2928" style="mask-type:alpha" maskUnits="userSpaceOnUse" x="326" y="85" width="67" height="183">
<path fill-rule="evenodd" clip-rule="evenodd" d="M383.052 85.2781C383.052 85.2781 296.35 149.628 337.405 267.061C337.405 267.061 420.596 183.902 383.052 85.2781Z" fill="white"/>
</mask>
<g mask="url(#mask2_0_2928)">
<path d="M335.427 119.029C371.497 164.052 319.973 265.121 390.602 181.87C461.231 98.6184 379.001 279.757 379.001 279.757C379.001 279.757 286.457 314.441 285.606 305.881C284.755 297.321 251.852 151.332 251.852 151.332L277.738 108.824" fill="white"/>
</g>
<path fill-rule="evenodd" clip-rule="evenodd" d="M383.052 85.2781C383.052 85.2781 296.35 149.628 337.405 267.061V267.061C337.405 267.061 420.596 183.902 383.052 85.2781Z" stroke="#1B1B1B" stroke-width="0.84" stroke-linecap="round" stroke-linejoin="round"/>
<path fill-rule="evenodd" clip-rule="evenodd" d="M361.845 142.098C361.88 142.088 378.292 137.746 389.444 125.59C379.729 139.1 360.851 145.903 360.819 145.914C355.463 166.229 351.169 188.392 347.895 208.149C349.098 207.817 369.613 201.98 383.682 186.438C372.223 202.586 350.95 211.454 347.109 212.958C342.208 243.445 339.836 267.061 339.836 267.061H337.405C337.405 267.061 341.531 224.642 350.606 180.537C347.306 177.83 340.094 170.998 335.878 160.07C341.418 171.326 349.2 176.326 351.242 177.492C357.872 146.021 367.023 114.171 379 96.679C372.425 108.152 366.717 124.29 361.845 142.098ZM360.992 145.264C361.254 144.276 361.519 143.292 361.786 142.313L360.992 145.264Z" fill="white"/>
<path d="M317.338 151.332C317.338 151.332 276.632 213.091 334.987 280.327L339.661 278.724C339.661 278.724 368.386 207.1 317.338 151.332Z" fill="white"/>
<mask id="mask3_0_2928" style="mask-type:alpha" maskUnits="userSpaceOnUse" x="303" y="151" width="45" height="130">
<path fill-rule="evenodd" clip-rule="evenodd" d="M317.338 151.332C317.338 151.332 276.632 213.091 334.987 280.327L339.661 278.724C339.661 278.724 368.386 207.1 317.338 151.332Z" fill="white"/>
</mask>
<g mask="url(#mask3_0_2928)">
<path d="M317.338 151.332C317.337 209.101 230.018 193.285 327.15 242.819C396.838 278.358 257.264 333.295 257.264 333.295C257.264 333.295 163.483 302.139 168.164 294.933C172.845 287.727 238.356 153.26 238.356 153.26L285.073 136.406" fill="white"/>
</g>
<path fill-rule="evenodd" clip-rule="evenodd" d="M317.338 151.332C317.338 151.332 276.632 213.091 334.987 280.327L339.661 278.724C339.661 278.724 368.386 207.1 317.338 151.332Z" stroke="#1B1B1B" stroke-width="0.84" stroke-linecap="round" stroke-linejoin="round"/>
<path fill-rule="evenodd" clip-rule="evenodd" d="M326.403 239.504C326.774 239.251 339.149 230.726 344.486 217.176C341.109 230.392 329.221 241.042 327.15 242.819C331.944 263.825 336.605 279.772 336.605 279.772L334.987 280.327C334.987 280.327 326.525 251.715 320.912 220.874C318 219.861 311.395 217.05 305.701 210.883C312.362 216.962 318.863 218.447 320.53 218.742C316.628 196.701 314.303 173.836 317.654 159.694C316.308 168.678 316.773 180.507 318.236 193.235L318.236 193.235C318.305 193.188 328.044 186.618 332.244 176.17C329.358 187.16 318.656 195.881 318.561 195.958L318.561 195.959C320.364 210.432 323.362 225.869 326.403 239.504ZM318.509 195.527C318.42 194.808 318.334 194.091 318.252 193.377L318.509 195.527Z" fill="white"/>
<path d="M277.739 221.095C277.739 221.095 280.482 268.738 343.509 281.202L345.553 278.578C345.553 278.578 331.563 230.418 277.739 221.095Z" fill="white"/>
<mask id="mask4_0_2928" style="mask-type:alpha" maskUnits="userSpaceOnUse" x="277" y="221" width="69" height="61">
<path fill-rule="evenodd" clip-rule="evenodd" d="M277.739 221.095C277.739 221.095 280.482 268.738 343.509 281.202L345.553 278.578C345.553 278.578 331.563 230.418 277.739 221.095Z" fill="white"/>
</mask>
<g mask="url(#mask4_0_2928)">
<path d="M248.329 229.676C305.759 271.615 315.959 250.433 351.015 278.358C386.071 306.283 290.953 302.594 290.953 302.594L264.033 282.692" fill="white"/>
</g>
<path fill-rule="evenodd" clip-rule="evenodd" d="M277.739 221.095C277.739 221.095 280.482 268.738 343.509 281.202L345.553 278.578C345.553 278.578 331.563 230.418 277.739 221.095Z" stroke="#1B1B1B" stroke-width="0.84" stroke-linecap="round" stroke-linejoin="round"/>
<path fill-rule="evenodd" clip-rule="evenodd" d="M322.802 264.763C334.635 273.814 344.216 280.293 344.216 280.293L343.509 281.202C343.509 281.202 326.265 269.613 309.726 255.778C305.425 256.934 300.927 257.159 296.532 256.437C303.042 257.032 307.484 255.306 308.583 254.82C296.826 244.889 285.638 233.928 281.518 225.309C284.593 230.483 289.951 236.437 296.277 242.474L296.277 242.473C296.316 242.376 299.16 235.258 297.132 228.252C300.168 235.057 297.662 243.68 297.639 243.757C304.918 250.573 313.298 257.424 320.941 263.329C321.056 263.039 324.619 253.879 321.918 244.814C325.624 252.962 323.25 263.046 322.802 264.763ZM296.699 242.878C296.731 242.907 296.762 242.937 296.794 242.967L296.453 242.644C296.534 242.722 296.617 242.8 296.699 242.878Z" fill="white"/>
<path d="M369.213 275.077H313.349C317.728 280.567 317.638 286.818 312.944 292.232C302.682 304.069 292.821 324.573 313.349 336.685H369.213C389.741 324.573 379.88 304.069 369.618 292.232C364.925 286.818 364.834 280.567 369.213 275.077Z" fill="#1B1B1B"/>
<mask id="mask5_0_2928" style="mask-type:alpha" maskUnits="userSpaceOnUse" x="301" y="275" width="81" height="62">
<path fill-rule="evenodd" clip-rule="evenodd" d="M369.213 275.077H313.349C317.728 280.567 317.637 286.818 312.944 292.232C302.682 304.069 292.821 324.573 313.349 336.685H369.213C389.741 324.573 379.88 304.069 369.618 292.232C364.924 286.818 364.834 280.567 369.213 275.077Z" fill="white"/>
</mask>
<g mask="url(#mask5_0_2928)">
<path d="M391.334 251.353C310.398 284.299 418.02 331.555 332.244 338.451C246.468 345.346 390.602 361.555 390.602 361.555L403.182 359.154L425.976 316.531L392.784 279.757L376.268 271.319L391.334 251.353Z" fill="#1B1B1B"/>
</g>
<path fill-rule="evenodd" clip-rule="evenodd" d="M369.213 275.077H313.349C317.728 280.567 317.638 286.818 312.944 292.232C302.682 304.069 292.821 324.573 313.349 336.685H369.213C389.741 324.573 379.88 304.069 369.618 292.232C364.925 286.818 364.834 280.567 369.213 275.077Z" stroke="#1B1B1B" stroke-width="0.84" stroke-linecap="round" stroke-linejoin="round"/>
<path d="M331.168 313.357C335.755 316.686 341.765 317.963 347.303 316.786" stroke="#1B1B1B" stroke-width="0.84" stroke-linecap="round" stroke-linejoin="round"/>
<path d="M368.941 173.515L365.897 177.678" stroke="#1B1B1B" stroke-width="0.84" stroke-linecap="round" stroke-linejoin="round"/>
<path d="M232.49 55.708L339.262 20.8708L277.679 67.8003L232.49 55.708Z" fill="white"/>
<path fill-rule="evenodd" clip-rule="evenodd" d="M232.49 55.708L339.262 20.8708L277.679 67.8003L232.49 55.708V55.708Z" stroke="#1B1B1B" stroke-width="0.84" stroke-linecap="round" stroke-linejoin="round"/>
<path d="M277.679 94.7501V67.8003L339.262 20.8708L277.679 94.7501Z" fill="white" stroke="#1B1B1B" stroke-width="0.84" stroke-linecap="round" stroke-linejoin="round"/>
<path d="M308.471 69.6589L286.476 71.5175L277.679 94.75L294.998 73.9728" fill="white"/>
<path d="M308.471 69.6589L286.476 71.5175L277.679 94.75L294.998 73.9728" stroke="#1B1B1B" stroke-width="0.84" stroke-linecap="round" stroke-linejoin="round"/>
<path d="M286.476 71.5176L322.904 82.0136L339.262 20.8708L286.476 71.5176Z" fill="white"/>
<mask id="mask6_0_2928" style="mask-type:alpha" maskUnits="userSpaceOnUse" x="286" y="20" width="54" height="63">
<path fill-rule="evenodd" clip-rule="evenodd" d="M286.476 71.5176L322.904 82.0136L339.262 20.8708L286.476 71.5176Z" fill="white"/>
</mask>
<g mask="url(#mask6_0_2928)">
<path d="M339.262 16.467C322.653 88.023 317.899 75.147 283.566 69.659C249.232 64.171 300.732 97.5638 300.732 97.5638L335.594 103.129L346.686 53.8351L344.045 14.0818" fill="white"/>
</g>
<path fill-rule="evenodd" clip-rule="evenodd" d="M286.476 71.5176L322.904 82.0136L339.262 20.8708L286.476 71.5176V71.5176Z" stroke="#1B1B1B" stroke-width="0.84" stroke-linecap="round" stroke-linejoin="round"/>
<path d="M260.082 50.9395L255.472 55.8561" stroke="#1B1B1B" stroke-width="0.84" stroke-linecap="round" stroke-linejoin="round"/>
<path d="M330.139 35.7209L328.721 37.4795" stroke="#1B1B1B" stroke-width="0.84" stroke-linecap="round" stroke-linejoin="round"/>
<path d="M164.269 272.803L345.659 213.62L241.037 293.346L164.269 272.803Z" fill="white"/>
<path fill-rule="evenodd" clip-rule="evenodd" d="M164.269 272.803L345.659 213.62L241.037 293.346L164.269 272.803V272.803Z" stroke="#1B1B1B" stroke-width="0.84" stroke-linecap="round" stroke-linejoin="round"/>
<path d="M241.038 339.129V293.346L345.659 213.62L241.038 339.129Z" fill="white" stroke="#1B1B1B" stroke-width="0.84" stroke-linecap="round" stroke-linejoin="round"/>
<path d="M293.348 296.503L255.983 299.661L241.038 339.129L270.46 303.832" fill="white"/>
<path d="M293.348 296.503L255.983 299.661L241.038 339.129L270.46 303.832" stroke="#1B1B1B" stroke-width="0.84" stroke-linecap="round" stroke-linejoin="round"/>
<path d="M255.983 299.661L317.87 317.492L345.659 213.62L255.983 299.661Z" fill="white"/>
<path fill-rule="evenodd" clip-rule="evenodd" d="M255.983 299.661L317.87 317.492L345.659 213.62L255.983 299.661V299.661Z" stroke="#1B1B1B" stroke-width="0.84" stroke-linecap="round" stroke-linejoin="round"/>
<path d="M223.229 266.622C220.828 268.894 218.248 270.969 215.513 272.826" stroke="#1B1B1B" stroke-width="0.84" stroke-linecap="round" stroke-linejoin="round"/>
<path d="M329.103 242.25L328.666 243.604" stroke="#1B1B1B" stroke-width="0.84" stroke-linecap="round" stroke-linejoin="round"/>
<rect x="167.291" y="171.27" width="159.809" height="95.1703" rx="5.70554" fill="white"/>
<rect x="167.291" y="171.27" width="159.809" height="95.1703" rx="5.70554" stroke="#1B1B1B" stroke-width="0.84" stroke-linecap="round" stroke-linejoin="round"/>
<path d="M219.24 94.7181H219.24C211.674 92.3069 203.593 96.507 201.19 104.099L178.296 176.438L205.695 185.17L228.589 112.831C230.992 105.239 226.806 97.1294 219.24 94.7181Z" fill="white"/>
<mask id="mask7_0_2928" style="mask-type:alpha" maskUnits="userSpaceOnUse" x="178" y="94" width="52" height="92">
<path fill-rule="evenodd" clip-rule="evenodd" d="M219.24 94.7181H219.24C211.674 92.3069 203.593 96.507 201.19 104.099L178.296 176.438L205.695 185.17L228.589 112.831C230.992 105.239 226.806 97.1294 219.24 94.7181Z" fill="white"/>
</mask>
<g mask="url(#mask7_0_2928)">
<path d="M193.172 94.0375C230.003 98.148 222.705 148.768 205.695 185.17C188.686 221.572 260.024 94.718 260.024 94.718L254.984 84.2505L205.735 72.0942" fill="white"/>
</g>
<path fill-rule="evenodd" clip-rule="evenodd" d="M219.24 94.7181H219.24C211.674 92.3069 203.593 96.507 201.19 104.099L178.296 176.438L205.695 185.17L228.589 112.831C230.992 105.239 226.806 97.1294 219.24 94.7181Z" stroke="#1B1B1B" stroke-width="0.84" stroke-linecap="round" stroke-linejoin="round"/>
<path d="M358.147 138.987H358.147L256.799 106.688V106.688L219.24 94.7183C226.806 97.1295 230.992 105.239 228.589 112.831L225.365 123.017L172.433 290.267L311.34 334.536L364.272 167.286L367.496 157.1C369.899 149.508 365.713 141.399 358.147 138.987Z" fill="white" stroke="#1B1B1B" stroke-width="0.84" stroke-linecap="round" stroke-linejoin="round"/>
<path d="M186.132 294.633C185.307 294.37 186.873 295.024 186.132 294.633V294.633Z" fill="#1B1B1B" stroke="#1B1B1B" stroke-width="0.84" stroke-linecap="round" stroke-linejoin="round"/>
<g opacity="0.73">
<path fill-rule="evenodd" clip-rule="evenodd" d="M232.221 159.693C234.802 158.351 237.811 158.092 240.584 158.973C246.351 160.811 249.541 166.992 247.71 172.779C246.837 175.554 244.896 177.868 242.314 179.209C239.733 180.551 236.724 180.81 233.951 179.93C228.184 178.092 224.994 171.91 226.826 166.123C227.698 163.348 229.639 161.034 232.221 159.693ZM232.077 169.902C232.261 171.999 233.691 173.777 235.699 174.406V174.406C238.429 175.258 241.334 173.748 242.205 171.025C242.844 169.02 242.211 166.827 240.601 165.472C238.992 164.116 236.724 163.865 234.857 164.835C232.99 165.806 231.892 167.806 232.077 169.902Z" fill="white"/>
<path d="M240.584 158.973L240.711 158.572L240.711 158.572L240.584 158.973ZM232.221 159.693L232.414 160.065L232.221 159.693ZM247.71 172.779L247.309 172.652L247.309 172.653L247.71 172.779ZM242.314 179.209L242.121 178.837L242.314 179.209ZM233.951 179.93L233.824 180.33L233.824 180.33L233.951 179.93ZM226.826 166.123L227.226 166.25L227.226 166.249L226.826 166.123ZM235.699 174.406H236.119C236.119 174.222 236 174.06 235.825 174.005L235.699 174.406ZM232.077 169.902L231.658 169.939L232.077 169.902ZM235.699 174.406H235.279C235.279 174.59 235.399 174.752 235.574 174.807L235.699 174.406ZM242.205 171.025L242.605 171.153L242.605 171.152L242.205 171.025ZM240.601 165.472L240.872 165.15L240.601 165.472ZM234.857 164.835L234.663 164.463L234.857 164.835ZM240.711 158.572C237.832 157.658 234.707 157.927 232.027 159.32L232.414 160.065C234.897 158.775 237.79 158.526 240.457 159.373L240.711 158.572ZM248.11 172.906C250.011 166.899 246.7 160.481 240.711 158.572L240.456 159.373C246.002 161.14 249.071 167.085 247.309 172.652L248.11 172.906ZM242.508 179.582C245.188 178.189 247.204 175.787 248.11 172.905L247.309 172.653C246.47 175.322 244.603 177.547 242.121 178.837L242.508 179.582ZM233.824 180.33C236.703 181.244 239.828 180.975 242.508 179.582L242.121 178.837C239.638 180.127 236.745 180.376 234.078 179.529L233.824 180.33ZM226.425 165.996C224.524 172.003 227.835 178.421 233.824 180.33L234.079 179.529C228.534 177.762 225.464 171.817 227.226 166.25L226.425 165.996ZM232.027 159.32C229.347 160.713 227.331 163.116 226.425 165.997L227.226 166.249C228.065 163.581 229.932 161.356 232.414 160.065L232.027 159.32ZM235.825 174.005C233.979 173.427 232.665 171.792 232.495 169.866L231.658 169.939C231.858 172.205 233.404 174.127 235.574 174.807L235.825 174.005ZM236.119 174.406V174.406H235.279V174.406H236.119ZM241.805 170.897C241.004 173.4 238.334 174.788 235.825 174.005L235.574 174.807C238.524 175.728 241.664 174.096 242.605 171.153L241.805 170.897ZM240.331 165.793C241.81 167.039 242.392 169.054 241.805 170.897L242.605 171.152C243.296 168.985 242.611 166.616 240.872 165.15L240.331 165.793ZM235.05 165.208C236.767 164.316 238.851 164.547 240.331 165.793L240.872 165.15C239.132 163.685 236.681 163.414 234.663 164.463L235.05 165.208ZM232.495 169.866C232.325 167.939 233.334 166.1 235.05 165.208L234.663 164.463C232.645 165.511 231.459 167.674 231.658 169.939L232.495 169.866Z" fill="#1B1B1B"/>
<path d="M338.811 200.213L254.118 173.222C253.555 173.042 253.245 172.44 253.424 171.877L254.628 168.072C254.713 167.802 254.902 167.577 255.153 167.446C255.405 167.315 255.698 167.29 255.968 167.376L340.661 194.367C341.224 194.547 341.534 195.149 341.355 195.712L340.151 199.517C340.066 199.787 339.877 200.012 339.625 200.143C339.374 200.274 339.081 200.299 338.811 200.213Z" fill="white" stroke="#1B1B1B" stroke-width="0.84" stroke-linecap="round" stroke-linejoin="round"/>
<path d="M281.034 191.434L251.333 181.969C250.779 181.791 250.473 181.198 250.649 180.644L251.835 176.897C251.919 176.63 252.105 176.408 252.353 176.28C252.6 176.151 252.889 176.126 253.155 176.211L282.856 185.676C283.41 185.854 283.716 186.446 283.54 187.001L282.354 190.748C282.27 191.014 282.084 191.236 281.836 191.365C281.588 191.494 281.3 191.519 281.034 191.434Z" fill="white" stroke="#1B1B1B" stroke-width="0.84" stroke-linecap="round" stroke-linejoin="round"/>
<path d="M316.227 202.65L286.526 193.185C285.972 193.007 285.667 192.414 285.843 191.86L287.029 188.113C287.112 187.847 287.299 187.625 287.546 187.496C287.794 187.367 288.083 187.342 288.349 187.427L318.05 196.892C318.604 197.07 318.91 197.663 318.733 198.217L317.548 201.964C317.464 202.23 317.278 202.452 317.03 202.581C316.782 202.71 316.493 202.735 316.227 202.65Z" fill="white" stroke="#1B1B1B" stroke-width="0.84" stroke-linecap="round" stroke-linejoin="round"/>
</g>
<g opacity="0.73">
<path fill-rule="evenodd" clip-rule="evenodd" d="M207.999 236.225C210.58 234.883 213.59 234.624 216.362 235.505C222.129 237.343 225.32 243.524 223.488 249.311C222.615 252.086 220.674 254.4 218.093 255.742C215.511 257.083 212.502 257.342 209.73 256.462C203.963 254.624 200.772 248.443 202.604 242.655C203.477 239.88 205.418 237.567 207.999 236.225ZM207.855 246.435C208.039 248.531 209.47 250.309 211.478 250.938C214.207 251.79 217.113 250.28 217.983 247.557C218.622 245.552 217.989 243.36 216.38 242.004C214.77 240.648 212.502 240.397 210.635 241.368C208.768 242.338 207.67 244.339 207.855 246.435Z" fill="white"/>
<path d="M216.362 235.505L216.49 235.105L216.489 235.105L216.362 235.505ZM207.999 236.225L208.193 236.598L207.999 236.225ZM223.488 249.311L223.088 249.184L223.087 249.185L223.488 249.311ZM209.73 256.462L209.602 256.862L209.602 256.862L209.73 256.462ZM202.604 242.655L203.004 242.782L203.004 242.781L202.604 242.655ZM211.478 250.938L211.352 251.339L211.353 251.339L211.478 250.938ZM207.855 246.435L207.436 246.472L207.855 246.435ZM217.983 247.557L218.383 247.685L218.384 247.684L217.983 247.557ZM216.38 242.004L216.65 241.683L216.38 242.004ZM210.635 241.368L210.441 240.995L210.635 241.368ZM216.489 235.105C213.61 234.19 210.486 234.459 207.805 235.852L208.193 236.598C210.675 235.308 213.569 235.058 216.235 235.905L216.489 235.105ZM223.888 249.438C225.789 243.431 222.478 237.013 216.49 235.105L216.235 235.905C221.78 237.672 224.85 243.617 223.088 249.184L223.888 249.438ZM218.286 256.114C220.967 254.721 222.982 252.319 223.889 249.437L223.087 249.185C222.248 251.854 220.381 254.079 217.899 255.369L218.286 256.114ZM209.602 256.862C212.482 257.776 215.606 257.507 218.286 256.114L217.899 255.369C215.417 256.659 212.523 256.908 209.857 256.062L209.602 256.862ZM202.203 242.529C200.302 248.536 203.613 254.953 209.602 256.862L209.857 256.062C204.312 254.294 201.242 248.35 203.004 242.782L202.203 242.529ZM207.805 235.852C205.125 237.245 203.109 239.648 202.203 242.529L203.004 242.781C203.844 240.113 205.71 237.888 208.193 236.598L207.805 235.852ZM211.603 250.537C209.758 249.959 208.443 248.325 208.273 246.398L207.436 246.472C207.636 248.737 209.182 250.659 211.352 251.339L211.603 250.537ZM217.583 247.429C216.783 249.932 214.112 251.321 211.603 250.537L211.353 251.339C214.302 252.26 217.442 250.628 218.383 247.685L217.583 247.429ZM216.109 242.325C217.589 243.571 218.17 245.586 217.583 247.429L218.384 247.684C219.074 245.517 218.39 243.148 216.65 241.683L216.109 242.325ZM210.829 241.74C212.545 240.848 214.63 241.079 216.109 242.325L216.65 241.683C214.911 240.218 212.459 239.946 210.441 240.995L210.829 241.74ZM208.273 246.398C208.104 244.471 209.113 242.632 210.829 241.74L210.441 240.995C208.423 242.044 207.237 244.206 207.436 246.472L208.273 246.398Z" fill="#1B1B1B"/>
<path d="M314.589 276.746L229.896 249.754C229.334 249.574 229.023 248.972 229.202 248.409L230.406 244.605C230.491 244.334 230.68 244.109 230.932 243.978C231.183 243.847 231.476 243.822 231.746 243.908L316.439 270.899C317.002 271.08 317.312 271.681 317.134 272.244L315.929 276.049C315.844 276.319 315.655 276.545 315.404 276.675C315.152 276.806 314.859 276.831 314.589 276.746Z" fill="white" stroke="#1B1B1B" stroke-width="0.84" stroke-linecap="round" stroke-linejoin="round"/>
<path d="M256.812 267.966L227.111 258.501C226.557 258.323 226.251 257.731 226.427 257.176L227.613 253.429C227.697 253.163 227.883 252.941 228.131 252.812C228.379 252.683 228.667 252.658 228.933 252.743L258.634 262.208C259.188 262.386 259.494 262.979 259.318 263.533L258.132 267.28C258.048 267.547 257.862 267.769 257.614 267.897C257.367 268.026 257.078 268.051 256.812 267.966Z" fill="white" stroke="#1B1B1B" stroke-width="0.84" stroke-linecap="round" stroke-linejoin="round"/>
<path d="M292.006 279.182L262.305 269.717C261.751 269.539 261.445 268.947 261.621 268.392L262.807 264.645C262.891 264.379 263.077 264.157 263.325 264.028C263.572 263.899 263.861 263.874 264.127 263.959L293.828 273.425C294.382 273.602 294.688 274.195 294.512 274.749L293.326 278.496C293.242 278.763 293.056 278.985 292.808 279.113C292.56 279.242 292.272 279.267 292.006 279.182Z" fill="white" stroke="#1B1B1B" stroke-width="0.84" stroke-linecap="round" stroke-linejoin="round"/>
</g>
<path d="M308.639 153.425L279.848 144.249C279.273 144.065 278.956 143.451 279.139 142.876L280.368 138.992C280.455 138.716 280.648 138.486 280.905 138.353C281.161 138.219 281.461 138.193 281.736 138.281L310.528 147.457C311.102 147.641 311.419 148.255 311.236 148.83L310.007 152.713C309.92 152.989 309.727 153.219 309.471 153.353C309.214 153.486 308.915 153.512 308.639 153.425Z" fill="white" stroke="#1B1B1B" stroke-width="0.84" stroke-linecap="round" stroke-linejoin="round"/>
<path d="M316.639 166.142L266.001 150.004C265.673 149.898 265.492 149.547 265.596 149.219L266.299 147C266.348 146.842 266.459 146.711 266.605 146.634C266.752 146.558 266.923 146.543 267.081 146.593L317.718 162.731C318.046 162.837 318.228 163.188 318.123 163.516L317.421 165.735C317.371 165.893 317.261 166.024 317.114 166.101C316.968 166.177 316.797 166.192 316.639 166.142Z" fill="white" stroke="#1B1B1B" stroke-width="0.84" stroke-linecap="round" stroke-linejoin="round"/>
<path fill-rule="evenodd" clip-rule="evenodd" d="M220.11 197.959C222.691 196.617 225.7 196.358 228.473 197.239C234.24 199.077 237.43 205.258 235.599 211.045C234.726 213.82 232.785 216.134 230.204 217.476C227.622 218.817 224.613 219.076 221.84 218.196C216.073 216.358 212.883 210.176 214.715 204.389C215.587 201.614 217.529 199.3 220.11 197.959ZM219.966 208.169C220.15 210.265 221.581 212.043 223.589 212.672V212.672C226.318 213.524 229.223 212.014 230.094 209.291C230.733 207.286 230.1 205.093 228.491 203.738C226.881 202.382 224.613 202.131 222.746 203.101C220.879 204.072 219.781 206.072 219.966 208.169Z" fill="white"/>
<path d="M228.473 197.239L228.601 196.839L228.6 196.838L228.473 197.239ZM220.11 197.959L220.304 198.332L220.11 197.959ZM235.599 211.045L235.198 210.918L235.198 210.919L235.599 211.045ZM230.204 217.476L230.01 217.103L230.204 217.476ZM221.84 218.196L221.713 218.596L221.713 218.596L221.84 218.196ZM214.715 204.389L215.115 204.516L215.115 204.515L214.715 204.389ZM223.589 212.672H224.009C224.009 212.488 223.889 212.326 223.714 212.271L223.589 212.672ZM219.966 208.169L219.547 208.205L219.966 208.169ZM223.589 212.672H223.169C223.169 212.856 223.288 213.018 223.463 213.073L223.589 212.672ZM230.094 209.291L230.494 209.419L230.494 209.418L230.094 209.291ZM228.491 203.738L228.761 203.417L228.491 203.738ZM222.746 203.101L222.552 202.729L222.746 203.101ZM228.6 196.838C225.721 195.924 222.597 196.193 219.916 197.586L220.304 198.332C222.786 197.041 225.68 196.792 228.346 197.639L228.6 196.838ZM235.999 211.172C237.9 205.165 234.589 198.747 228.601 196.839L228.345 197.639C233.891 199.406 236.96 205.351 235.198 210.918L235.999 211.172ZM230.397 217.848C233.078 216.455 235.093 214.053 235.999 211.171L235.198 210.919C234.359 213.588 232.492 215.813 230.01 217.103L230.397 217.848ZM221.713 218.596C224.592 219.51 227.717 219.241 230.397 217.848L230.01 217.103C227.528 218.393 224.634 218.642 221.968 217.795L221.713 218.596ZM214.314 204.263C212.413 210.27 215.724 216.687 221.713 218.596L221.968 217.796C216.423 216.028 213.353 210.083 215.115 204.516L214.314 204.263ZM219.916 197.586C217.236 198.979 215.22 201.382 214.314 204.263L215.115 204.515C215.955 201.847 217.821 199.622 220.304 198.332L219.916 197.586ZM223.714 212.271C221.868 211.693 220.554 210.058 220.384 208.132L219.547 208.205C219.747 210.471 221.293 212.393 223.463 213.073L223.714 212.271ZM224.009 212.672V212.672H223.169V212.672H224.009ZM229.694 209.163C228.894 211.666 226.223 213.054 223.714 212.271L223.463 213.073C226.413 213.994 229.553 212.362 230.494 209.419L229.694 209.163ZM228.22 204.059C229.699 205.305 230.281 207.32 229.694 209.163L230.494 209.418C231.185 207.251 230.501 204.882 228.761 203.417L228.22 204.059ZM222.94 203.474C224.656 202.582 226.741 202.813 228.22 204.059L228.761 203.417C227.022 201.951 224.57 201.68 222.552 202.729L222.94 203.474ZM220.384 208.132C220.214 206.205 221.223 204.366 222.94 203.474L222.552 202.729C220.534 203.778 219.348 205.94 219.547 208.205L220.384 208.132Z" fill="#1B1B1B"/>
<path d="M326.7 238.479L242.007 211.488C241.444 211.308 241.134 210.706 241.313 210.143L242.517 206.338C242.602 206.068 242.791 205.843 243.043 205.712C243.294 205.581 243.587 205.556 243.857 205.642L328.55 232.633C329.113 232.814 329.423 233.415 329.244 233.978L328.04 237.783C327.955 238.053 327.766 238.279 327.515 238.409C327.263 238.54 326.97 238.565 326.7 238.479Z" fill="white" stroke="#1B1B1B" stroke-width="0.84" stroke-linecap="round" stroke-linejoin="round"/>
<path d="M268.923 229.7L239.222 220.235C238.668 220.057 238.362 219.465 238.538 218.91L239.724 215.163C239.808 214.897 239.994 214.675 240.242 214.546C240.489 214.417 240.778 214.392 241.044 214.477L270.745 223.942C271.299 224.12 271.605 224.713 271.429 225.267L270.243 229.014C270.159 229.28 269.973 229.503 269.725 229.631C269.477 229.76 269.189 229.785 268.923 229.7Z" fill="white" stroke="#1B1B1B" stroke-width="0.84" stroke-linecap="round" stroke-linejoin="round"/>
<path d="M304.117 240.916L274.416 231.451C273.862 231.273 273.556 230.681 273.732 230.126L274.918 226.379C275.002 226.113 275.188 225.891 275.436 225.762C275.683 225.633 275.972 225.608 276.238 225.693L305.939 235.158C306.493 235.336 306.799 235.929 306.623 236.483L305.437 240.23C305.353 240.497 305.167 240.719 304.919 240.847C304.671 240.976 304.383 241.001 304.117 240.916Z" fill="white" stroke="#1B1B1B" stroke-width="0.84" stroke-linecap="round" stroke-linejoin="round"/>
<path d="M327.816 339.129H166.575C158.618 339.129 151.562 332.616 150.802 324.465L141.841 228.29C140.918 218.391 147.423 210.237 156.385 210.237H338.006C346.968 210.237 353.473 218.391 352.55 228.29L343.589 324.465C342.829 332.616 335.773 339.129 327.816 339.129Z" fill="white"/>
<path fill-rule="evenodd" clip-rule="evenodd" d="M327.816 339.129H166.575C158.618 339.129 151.562 332.616 150.802 324.465L141.841 228.29C140.918 218.391 147.423 210.237 156.385 210.237H338.006C346.968 210.237 353.473 218.391 352.55 228.29L343.589 324.465C342.829 332.616 335.773 339.129 327.816 339.129Z" stroke="#1B1B1B" stroke-width="0.84" stroke-linecap="round" stroke-linejoin="round"/>
<path d="M215.057 251.047L204.193 260.542" stroke="#1B1B1B" stroke-width="0.84" stroke-linecap="round" stroke-linejoin="round"/>
<path d="M342.587 150.89L339.562 154.463" stroke="#1B1B1B" stroke-width="0.84" stroke-linecap="round" stroke-linejoin="round"/>
<path d="M70.4787 286.454L59.2969 302.991L68.0862 308.165L83.1211 291.624L70.4787 286.454Z" fill="white"/>
<mask id="mask8_0_2928" style="mask-type:alpha" maskUnits="userSpaceOnUse" x="59" y="286" width="25" height="23">
<path fill-rule="evenodd" clip-rule="evenodd" d="M70.4782 286.454L59.2964 302.991L68.0857 308.165L83.1206 291.624L70.4782 286.454Z" fill="white"/>
</mask>
<g mask="url(#mask8_0_2928)">
<path d="M61.4854 288.522C66.1045 297.119 75.7869 300.112 75.7869 300.112L68.5989 285.011L66.0323 283.598" fill="white"/>
</g>
<path fill-rule="evenodd" clip-rule="evenodd" d="M70.4787 286.454L59.2969 302.991L68.0862 308.165L83.1211 291.624L70.4787 286.454V286.454Z" stroke="#1B1B1B" stroke-width="0.84" stroke-linecap="round" stroke-linejoin="round"/>
<path d="M143.32 315.104L148.423 335.118L157.679 329.641L154.976 305.943L143.32 315.104Z" fill="white"/>
<mask id="mask9_0_2928" style="mask-type:alpha" maskUnits="userSpaceOnUse" x="143" y="305" width="15" height="31">
<path fill-rule="evenodd" clip-rule="evenodd" d="M143.32 315.103L148.423 335.117L157.679 329.64L154.976 305.943L143.32 315.103Z" fill="white"/>
</mask>
<g mask="url(#mask9_0_2928)">
<path d="M137.412 318.725C153.537 322.127 158.472 311.867 158.472 311.867L142.115 312.64L138.797 314.568" fill="white"/>
</g>
<path fill-rule="evenodd" clip-rule="evenodd" d="M143.32 315.104L148.423 335.118L157.679 329.641L154.976 305.943L143.32 315.104V315.104Z" stroke="#1B1B1B" stroke-width="0.84" stroke-linecap="round" stroke-linejoin="round"/>
<path d="M102.272 209.602L100.216 208.997L101.73 204.125C101.978 203.34 101.879 202.487 101.458 201.781C101.035 201.061 100.334 200.548 99.5209 200.362L90.4537 198.219C88.9463 197.848 87.3989 198.659 86.8464 200.109L84.7165 205.885L82.6953 205.179L84.8251 199.403C85.7271 196.956 88.365 195.572 90.9604 196.187L100.028 198.33C101.411 198.646 102.603 199.519 103.322 200.743C104.038 201.945 104.207 203.396 103.786 204.73L102.272 209.602Z" fill="white" stroke="#1B1B1B" stroke-width="0.84" stroke-linecap="round" stroke-linejoin="round"/>
<path d="M177.654 87.78C175.679 85.1907 171.123 82.1969 170.962 81.064C170.8 79.9312 167.414 71.3542 161.608 71.9206C155.802 72.487 158.221 81.8732 158.221 81.8732C158.221 81.8732 163.705 84.948 164.672 86.0808C165.64 87.2136 172.252 96.2761 172.252 96.2761L177.654 87.78Z" fill="white"/>
<mask id="mask10_0_2928" style="mask-type:alpha" maskUnits="userSpaceOnUse" x="157" y="71" width="21" height="26">
<path fill-rule="evenodd" clip-rule="evenodd" d="M177.655 87.7802C175.679 85.191 171.123 82.1971 170.962 81.0643C170.801 79.9315 167.414 71.3545 161.609 71.9209C155.803 72.4873 158.222 81.8734 158.222 81.8734C158.222 81.8734 163.705 84.9482 164.673 86.081C165.64 87.2138 172.252 96.2763 172.252 96.2763L177.655 87.7802Z" fill="white"/>
</mask>
<g mask="url(#mask10_0_2928)">
<path d="M165.601 89.1773C171.489 89.7964 175.354 85.5112 175.354 85.5112L173.088 89.9371L167.059 91.119L166.908 91.4319" fill="white"/>
</g>
<path fill-rule="evenodd" clip-rule="evenodd" d="M177.654 87.78C175.679 85.1907 171.123 82.1969 170.962 81.064C170.8 79.9312 167.414 71.3542 161.608 71.9206C155.802 72.487 158.221 81.8732 158.221 81.8732C158.221 81.8732 163.705 84.948 164.672 86.0808C165.64 87.2136 172.252 96.2761 172.252 96.2761L177.654 87.78Z" stroke="#1B1B1B" stroke-width="0.84" stroke-linecap="round" stroke-linejoin="round"/>
<path d="M157.169 67.5229L168.888 79.4784C169.654 80.4266 169.585 81.7998 168.726 82.6655L165.619 85.7934C165.152 86.2639 164.509 86.5176 163.847 86.493C163.185 86.4683 162.563 86.1676 162.133 85.6637L154.593 76.8565L157.169 67.5229Z" fill="white"/>
<path fill-rule="evenodd" clip-rule="evenodd" d="M157.169 67.5229L168.888 79.4784C169.654 80.4266 169.585 81.7998 168.726 82.6655L165.619 85.7934C165.152 86.2639 164.509 86.5176 163.847 86.493C163.185 86.4683 162.563 86.1676 162.133 85.6637L154.593 76.8565L157.169 67.5229Z" stroke="#1B1B1B" stroke-width="0.84" stroke-linecap="round" stroke-linejoin="round"/>
<path d="M66.4806 289.65C66.6817 296.039 80.0737 301.431 80.0737 301.431C80.0737 301.431 137.92 246.675 142.029 241.789C157.319 223.603 153.943 176.266 157.124 162.684L121.994 161.83C121.994 161.83 120.168 189.962 115.718 226.623C115.718 226.623 66.2795 283.261 66.4806 289.65Z" fill="white"/>
<path fill-rule="evenodd" clip-rule="evenodd" d="M66.4806 289.65C66.6817 296.039 80.0737 301.431 80.0737 301.431C80.0737 301.431 137.92 246.675 142.029 241.789C157.319 223.603 153.943 176.266 157.124 162.684L121.994 161.83C121.994 161.83 120.168 189.962 115.718 226.623C115.718 226.623 66.2795 283.261 66.4806 289.65Z" stroke="#1B1B1B" stroke-width="0.84" stroke-linecap="round" stroke-linejoin="round"/>
<path d="M61.0894 300.297L54.7479 307.509C54.3965 307.908 54.2248 308.435 54.2731 308.964C54.3215 309.494 54.5855 309.981 55.0033 310.311L82.0921 331.41C82.0921 331.41 89.9545 323.62 77.1741 319.122C73.0581 317.674 70.5957 308.934 70.8268 305.67C70.8268 305.67 63.715 306.492 61.0894 300.297Z" fill="#1B1B1B" stroke="#1B1B1B" stroke-width="0.84" stroke-linecap="round" stroke-linejoin="round"/>
<path d="M148.939 156.48L119.041 159.508C119.041 159.508 103.152 186.865 127.181 241.585C127.181 241.585 133.136 313.761 137.123 316.842C141.11 319.924 158.573 314.876 158.573 314.876L153.124 240.972L149.496 181.001" fill="white"/>
<path d="M148.939 156.48L119.041 159.508C119.041 159.508 103.152 186.865 127.181 241.585C127.181 241.585 133.136 313.761 137.123 316.842C141.11 319.924 158.573 314.876 158.573 314.876L153.124 240.972L149.496 181.001" stroke="#1B1B1B" stroke-width="0.84" stroke-linecap="round" stroke-linejoin="round"/>
<path d="M167.688 92.5853C174.718 86.3443 175.679 85.1907 175.679 85.1907C175.679 85.1907 201.903 111.25 197.186 125.814C192.469 140.379 136.673 114.289 136.673 114.289L159.785 100.356L178.582 108.69L167.688 92.5853Z" fill="white"/>
<mask id="mask11_0_2928" style="mask-type:alpha" maskUnits="userSpaceOnUse" x="136" y="85" width="62" height="46">
<path fill-rule="evenodd" clip-rule="evenodd" d="M167.688 92.5855C174.718 86.3445 175.679 85.1909 175.679 85.1909C175.679 85.1909 201.903 111.25 197.186 125.815C192.469 140.379 136.673 114.289 136.673 114.289L159.785 100.356L178.582 108.691L167.688 92.5855Z" fill="white"/>
</mask>
<g mask="url(#mask11_0_2928)">
<path d="M159.105 104.504C168.092 123.512 160.6 126.556 183.781 130.812C206.963 135.068 157.908 138.67 157.908 138.67L154.593 116.159" fill="white"/>
<ellipse cx="201.103" cy="128.33" rx="9.12295" ry="10.5054" fill="white"/>
</g>
<path fill-rule="evenodd" clip-rule="evenodd" d="M167.688 92.5853C174.718 86.3443 175.679 85.1907 175.679 85.1907C175.679 85.1907 201.903 111.25 197.186 125.814C192.469 140.379 136.673 114.289 136.673 114.289L159.785 100.356L178.582 108.69L167.688 92.5853Z" stroke="#1B1B1B" stroke-width="0.84" stroke-linecap="round" stroke-linejoin="round"/>
<path d="M161.148 108.539C163.15 123.943 166.238 156.761 157.722 165.859C157.722 165.859 124.193 172.551 115.122 165.709C108.632 160.815 114.832 106.156 114.832 106.156L115.33 100.309C115.33 100.309 134.595 94.5038 139.07 94.6657C143.545 94.8275 159.975 100.449 159.975 100.449" fill="white"/>
<mask id="mask12_0_2928" style="mask-type:alpha" maskUnits="userSpaceOnUse" x="112" y="94" width="52" height="75">
<path fill-rule="evenodd" clip-rule="evenodd" d="M161.149 108.539C163.151 123.943 166.239 156.761 157.722 165.859C157.722 165.859 124.194 172.551 115.122 165.709C108.633 160.815 114.833 106.156 114.833 106.156L115.331 100.309C115.331 100.309 134.595 94.5038 139.071 94.6657C143.546 94.8275 159.976 100.449 159.976 100.449" fill="white"/>
</mask>
<g mask="url(#mask12_0_2928)">
<path d="M122.612 119.715C110.478 198.078 161.81 164.818 161.81 164.818C161.81 164.818 123.023 186.875 120.63 188.076C118.237 189.276 95.165 167.965 95.165 167.965L111.765 135.548" fill="white"/>
</g>
<path d="M161.148 108.539C163.15 123.943 166.238 156.761 157.722 165.859C157.722 165.859 124.193 172.551 115.122 165.709C108.632 160.815 114.832 106.156 114.832 106.156L115.33 100.309C115.33 100.309 134.595 94.5038 139.07 94.6657C143.545 94.8275 159.975 100.449 159.975 100.449" stroke="#1B1B1B" stroke-width="0.84" stroke-linecap="round" stroke-linejoin="round"/>
<path d="M137.073 74.2629C137.011 82.3544 134.998 95.3066 134.998 95.3066L147.799 99.0506L148.706 84.1467L137.073 74.2629Z" fill="white"/>
<mask id="mask13_0_2928" style="mask-type:alpha" maskUnits="userSpaceOnUse" x="134" y="74" width="15" height="26">
<path fill-rule="evenodd" clip-rule="evenodd" d="M137.073 74.2629C137.011 82.3544 134.998 95.3066 134.998 95.3066L147.799 99.0506L148.706 84.1467L137.073 74.2629Z" fill="white"/>
</mask>
<g mask="url(#mask13_0_2928)">
<path d="M141.852 83.5309C141.852 83.5309 139.25 88.3178 150.517 95.2319C155.42 98.2406 146.7 79.3767 146.7 79.3767L141.852 83.5309Z" fill="white"/>
</g>
<path fill-rule="evenodd" clip-rule="evenodd" d="M137.073 74.2629C137.011 82.3544 134.998 95.3066 134.998 95.3066L147.799 99.0506L148.706 84.1467L137.073 74.2629Z" stroke="#1B1B1B" stroke-width="0.84" stroke-linecap="round" stroke-linejoin="round"/>
<path d="M137.5 99.091L143.7 102.203C143.7 102.203 144.913 131.211 138.291 147.669L140.54 157.641L148.706 152.164C148.706 152.164 149.19 112.356 146.61 102.203L149.496 97.2532L142.599 98.2792L137.5 99.091Z" fill="white" stroke="#1B1B1B" stroke-width="0.84" stroke-linecap="round" stroke-linejoin="round"/>
<path d="M146.458 327.409L147.697 337.458C147.755 337.957 148.01 338.413 148.405 338.724C148.8 339.035 149.302 339.175 149.801 339.114L181.937 335.022C181.937 335.022 182.87 326.898 170.688 329.692C166.486 330.656 159.57 327.508 157.836 324.922C157.836 324.922 152.19 329.907 146.458 327.409Z" fill="#1B1B1B" stroke="#1B1B1B" stroke-width="0.84" stroke-linecap="round" stroke-linejoin="round"/>
<path d="M101.957 216.137L119.615 210.721C120.672 211.288 121.219 212.492 120.95 213.661L110.116 256.092C109.996 256.564 109.525 256.858 109.049 256.756L106.435 256.195L104.376 238.508L101.957 216.137Z" fill="white" stroke="#1B1B1B" stroke-width="0.84" stroke-linecap="round" stroke-linejoin="round"/>
<path d="M92.7772 185.281C92.1724 190.697 88.9068 195.171 89.9953 199.527C91.0839 203.884 100.938 201.214 100.938 201.214C100.938 201.214 98.2784 196.902 102.592 198.432C102.592 198.432 101.728 193.287 99.9133 191.874L101.244 182.219L92.7772 185.281Z" fill="white"/>
<mask id="mask14_0_2928" style="mask-type:alpha" maskUnits="userSpaceOnUse" x="89" y="182" width="14" height="21">
<path fill-rule="evenodd" clip-rule="evenodd" d="M92.7767 185.28C92.1719 190.697 88.9063 195.171 89.9948 199.527C91.0834 203.884 100.937 201.214 100.937 201.214C100.937 201.214 98.2779 196.902 102.592 198.432C102.592 198.432 101.727 193.287 99.9128 191.874L101.243 182.219L92.7767 185.28Z" fill="white"/>
</mask>
<g mask="url(#mask14_0_2928)">
<path d="M91.7246 186.332C100.698 190.318 96.6039 189.717 101.371 191.683C106.138 193.648 102.941 186.933 102.941 186.933L94.4166 185.404" fill="white"/>
</g>
<path fill-rule="evenodd" clip-rule="evenodd" d="M92.7772 185.281C92.1724 190.697 88.9068 195.171 89.9953 199.527C91.0839 203.884 100.938 201.214 100.938 201.214C100.938 201.214 98.2784 196.902 102.592 198.432C102.592 198.432 101.728 193.287 99.9133 191.874L101.244 182.219L92.7772 185.281Z" stroke="#1B1B1B" stroke-width="0.84" stroke-linecap="round" stroke-linejoin="round"/>
<path d="M115.687 100.202C103.395 102.125 95.68 142.07 95.68 142.07L90.6001 186.576C101.123 190.461 103.663 189.402 103.663 189.402L112.008 147.015C112.008 147.015 119.619 132.574 122.612 119.715" fill="white"/>
<mask id="mask15_0_2928" style="mask-type:alpha" maskUnits="userSpaceOnUse" x="90" y="100" width="33" height="90">
<path fill-rule="evenodd" clip-rule="evenodd" d="M115.687 100.202C103.395 102.125 95.68 142.07 95.68 142.07L90.6001 186.576C101.123 190.461 103.663 189.402 103.663 189.402L112.008 147.015C112.008 147.015 119.619 132.574 122.612 119.715" fill="white"/>
</mask>
<g mask="url(#mask15_0_2928)">
<ellipse cx="95.2644" cy="143.6" rx="4.66432" ry="6.1907" fill="white"/>
</g>
<path d="M115.687 100.202C103.395 102.125 95.68 142.07 95.68 142.07L90.6001 186.576C101.123 190.461 103.663 189.402 103.663 189.402L112.008 147.015C112.008 147.015 119.619 132.574 122.612 119.715" stroke="#1B1B1B" stroke-width="0.84" stroke-linecap="round" stroke-linejoin="round"/>
<path d="M64.9762 202.776L54.1705 239.794C53.8921 240.744 54.015 241.766 54.5103 242.622C55.0057 243.478 55.8304 244.094 56.7921 244.326L106.435 256.195C107.446 256.436 108.463 255.815 108.711 254.805L119.628 210.713L68.2242 200.839C66.8046 200.554 65.4001 201.392 64.9762 202.776Z" fill="white"/>
<mask id="mask16_0_2928" style="mask-type:alpha" maskUnits="userSpaceOnUse" x="54" y="200" width="66" height="57">
<path fill-rule="evenodd" clip-rule="evenodd" d="M64.9762 202.776L54.1705 239.794C53.8921 240.744 54.015 241.766 54.5103 242.622C55.0057 243.478 55.8304 244.094 56.7921 244.326L106.435 256.195C107.446 256.436 108.463 255.815 108.711 254.805L119.628 210.713L68.2242 200.839C66.8046 200.554 65.4001 201.392 64.9762 202.776Z" fill="white"/>
</mask>
<g mask="url(#mask16_0_2928)">
<path d="M53.9209 215.919C66.9323 209.616 77.5568 228.029 81.1058 228.502C84.6547 228.976 115.508 218.203 115.508 218.203L70.9703 208.265L54.3695 207.139L49.8828 214.568" fill="white"/>
<path d="M51.0981 231.631C54.0892 248.992 110.141 259.474 111.488 247.792C112.835 236.109 112.16 269.107 112.16 269.107L44.0669 259.982" fill="white"/>
<path d="M53.1048 198.786L82.6949 226.307L130.433 212.914L99.9129 191.874L43.8901 187.482L53.1048 198.786Z" fill="white" stroke="#1B1B1B" stroke-width="0.84" stroke-linecap="round" stroke-linejoin="round"/>
</g>
<path fill-rule="evenodd" clip-rule="evenodd" d="M64.9762 202.776L54.1705 239.794C53.8921 240.744 54.015 241.766 54.5103 242.622C55.0057 243.478 55.8304 244.094 56.7921 244.326L106.435 256.195C107.446 256.436 108.463 255.815 108.711 254.805L119.628 210.713L68.2242 200.839C66.8046 200.554 65.4001 201.392 64.9762 202.776V202.776Z" stroke="#1B1B1B" stroke-width="0.84" stroke-linecap="round" stroke-linejoin="round"/>
<path d="M129.197 97.0269L135.743 90.3877C136.893 91.1863 145.202 97.7572 145.202 97.7572L140.056 103.368L129.197 97.0269Z" fill="white" stroke="#1B1B1B" stroke-width="0.84" stroke-linecap="round" stroke-linejoin="round"/>
<path d="M148.141 93.4316L145.202 97.7572L150.297 102.883L150.517 97.8619L148.141 93.4316Z" fill="white" stroke="#1B1B1B" stroke-width="0.84" stroke-linecap="round" stroke-linejoin="round"/>
<path d="M141.49 84.6199C151.563 95.5277 158.032 85.0904 157.616 66.7198C157.164 46.7391 135.744 64.9033 135.744 64.9033L136.673 69.9357" fill="white"/>
<mask id="mask17_0_2928" style="mask-type:alpha" maskUnits="userSpaceOnUse" x="135" y="57" width="23" height="33">
<path fill-rule="evenodd" clip-rule="evenodd" d="M141.491 84.6197C151.563 95.5275 158.033 85.0902 157.617 66.7195C157.164 46.7389 135.745 64.9031 135.745 64.9031L136.673 69.9355" fill="white"/>
</mask>
<g mask="url(#mask17_0_2928)">
<path d="M153.922 75.6035C153.34 75.5485 152.912 75.0316 152.967 74.4489L153.136 72.6536C153.191 72.071 153.708 71.6432 154.291 71.6982C154.874 71.7532 155.302 72.2701 155.247 72.8528L155.077 74.6481C155.051 74.9279 154.914 75.1858 154.698 75.3649C154.481 75.5441 154.202 75.63 153.922 75.6035Z" fill="#1B1B1B"/>
<path d="M150.373 73.8809C150.505 75.7769 150.538 76.3361 150.538 76.3361C153.632 76.6966 150.392 78.9917 150.392 78.9917" stroke="#1B1B1B" stroke-width="0.84" stroke-linecap="round" stroke-linejoin="round"/>
<path d="M148.453 79.1602C148.513 79.8145 149.026 80.3357 149.68 80.4052" stroke="#1B1B1B" stroke-width="0.84" stroke-linecap="round" stroke-linejoin="round"/>
<path d="M146.138 74.2681C145.556 74.2131 145.128 73.6961 145.183 73.1134L145.352 71.3182C145.407 70.7355 145.924 70.3077 146.507 70.3627C146.787 70.3891 147.045 70.5256 147.224 70.7422C147.403 70.9587 147.489 71.2376 147.462 71.5174L147.293 73.3126C147.267 73.5924 147.13 73.8503 146.914 74.0295C146.697 74.2087 146.418 74.2945 146.138 74.2681L146.138 74.2681Z" fill="#1B1B1B"/>
<path d="M154.787 69.2273C156.881 70.0607 156.177 71.1825 154.835 70.7472C153.492 70.3119 153.419 68.6828 154.787 69.2273Z" fill="#1B1B1B"/>
<path d="M146.811 67.7905C144.599 68.2174 144.927 69.3453 146.327 69.1689C147.727 68.9925 148.257 67.5115 146.811 67.7905Z" fill="#1B1B1B"/>
</g>
<path d="M141.49 84.6199C151.563 95.5277 158.032 85.0904 157.616 66.7198C157.164 46.7391 135.744 64.9033 135.744 64.9033L136.673 69.9357" stroke="#1B1B1B" stroke-width="0.84" stroke-linecap="round" stroke-linejoin="round"/>
<path d="M136.138 75.1246C137.803 74.3299 142.381 65.5088 142.381 65.5088C142.381 65.5088 157.239 71.5636 161.086 62.0273C164.932 52.4911 155.128 47.8349 148.264 52.1489C148.264 52.1489 140.873 48.2528 138.761 55.9726C138.761 55.9726 128.099 58.3083 131.973 68.839C134.722 76.3101 136.138 75.1246 136.138 75.1246Z" fill="#1B1B1B" stroke="#1B1B1B" stroke-width="0.84" stroke-linecap="round" stroke-linejoin="round"/>
<path d="M139.47 73.1996C129.524 68.7273 133.18 80.9483 138.761 81.2511L139.47 73.1996Z" fill="white"/>
<path d="M139.47 73.1996C129.524 68.7273 133.18 80.9483 138.761 81.2511" stroke="#1B1B1B" stroke-width="0.84" stroke-linecap="round" stroke-linejoin="round"/>
<path d="M90.6001 175.229V186.576C90.6001 186.576 96.9654 190.517 103.663 189.401L105.523 179.954C105.523 179.954 95.4045 179.731 90.6001 175.229Z" fill="white" stroke="#1B1B1B" stroke-width="0.84" stroke-linecap="round" stroke-linejoin="round"/>
<ellipse cx="93.1672" cy="181.463" rx="0.753588" ry="0.756216" fill="white" stroke="#1B1B1B" stroke-width="0.84" stroke-linecap="round" stroke-linejoin="round"/>
<path d="M172.598 102.655L166.583 93.5309C166.583 93.5309 169.413 87.0967 175.18 84.5586L181.625 91.2016C181.625 91.2016 173.924 96.5703 172.598 102.655Z" fill="white" stroke="#1B1B1B" stroke-width="0.84" stroke-linecap="round" stroke-linejoin="round"/>
<ellipse cx="171.277" cy="96.3254" rx="0.698892" ry="0.72834" transform="rotate(-31.258 171.277 96.3254)" fill="white" stroke="#1B1B1B" stroke-width="0.84" stroke-linecap="round" stroke-linejoin="round"/>
<path d="M136.433 75.0481C136.236 75.3363 136.226 75.7131 136.408 76.0114" stroke="#1B1B1B" stroke-width="0.84" stroke-linecap="round" stroke-linejoin="round"/>
<path d="M151.309 58.1525C152.583 58.7449 154.055 58.7408 155.326 58.1414" stroke="#1B1B1B" stroke-width="0.84" stroke-linecap="round" stroke-linejoin="round"/>
<path d="M137.841 61.7705L137.393 62.2207" stroke="#1B1B1B" stroke-width="0.84" stroke-linecap="round" stroke-linejoin="round"/>
<path d="M127.285 145.972C128.038 147.208 129.257 148.089 130.668 148.415" stroke="#1B1B1B" stroke-width="0.84" stroke-linecap="round" stroke-linejoin="round"/>
<path d="M112.043 146.864C110.846 147.007 109.641 146.688 108.672 145.972" stroke="#1B1B1B" stroke-width="0.84" stroke-linecap="round" stroke-linejoin="round"/>
<path d="M177.977 108.2C178.656 108.457 179.179 109.011 179.397 109.703" stroke="#1B1B1B" stroke-width="0.84" stroke-linecap="round" stroke-linejoin="round"/>
<path d="M128.832 242.587C130.739 244 133.507 244.119 135.527 242.874" stroke="#1B1B1B" stroke-width="0.84" stroke-linecap="round" stroke-linejoin="round"/>
<path d="M131.333 179.925C132.201 185.222 131.449 190.657 129.174 195.519C128.508 196.933 127.166 198.512 125.707 197.962" stroke="#1B1B1B" stroke-width="0.84" stroke-linecap="round" stroke-linejoin="round"/>
<path d="M162.355 325.377L161.525 327.46L166.859 326.76" stroke="#1B1B1B" stroke-width="0.84" stroke-linecap="round" stroke-linejoin="round"/>
<path d="M72.783 307.521L71.2554 308.434C72.435 308.872 73.6371 309.247 74.8567 309.556" stroke="#1B1B1B" stroke-width="0.84" stroke-linecap="round" stroke-linejoin="round"/>
<path d="M75.8906 285.347C78.7426 288.024 82.369 289.729 86.2498 290.217" stroke="#1B1B1B" stroke-width="0.84" stroke-linecap="round" stroke-linejoin="round"/>
<path d="M84.4526 239.814C87.3625 240.211 90.325 239.754 92.9805 238.5" stroke="#1B1B1B" stroke-width="0.84" stroke-linecap="round" stroke-linejoin="round"/>
</g>
</svg>
