<svg width="480" height="360" viewBox="0 0 480 360" fill="none" xmlns="http://www.w3.org/2000/svg">
<mask id="mask0_0_2119" style="mask-type:alpha" maskUnits="userSpaceOnUse" x="0" y="0" width="480" height="360">
<rect width="480" height="360" fill="white"/>
</mask>
<g mask="url(#mask0_0_2119)">
<path opacity="0.2" d="M125.264 230.756C137.071 237.11 152.271 241.038 169.123 241.759C169.13 241.815 169.134 241.872 169.142 241.929C174.293 281.463 230.971 306.671 295.736 298.232C357.419 290.195 404.189 254.535 404.049 217.004C430.162 204.726 446.482 184.869 443.865 164.781C442.202 152.02 433.173 141.309 419.533 133.864C426.626 122.917 429.906 111.106 428.359 99.2356C423.208 59.7012 366.53 34.4933 301.765 42.9322C260.7 48.2831 226.25 65.879 207.845 88.1172C192.014 85.6721 174.623 85.4122 156.604 87.7601C91.8391 96.1989 43.5132 135.089 48.6645 174.623C52.4201 203.446 83.5667 224.649 125.264 230.756Z" fill="white"/>
<path d="M239.741 112.85H142.986C131.791 112.85 122.715 121.956 122.715 133.189V301.33C122.715 312.563 131.791 321.669 142.986 321.669H263.198C274.394 321.669 283.47 312.563 283.47 301.33V156.521L239.741 112.85Z" fill="white"/>
<path fill-rule="evenodd" clip-rule="evenodd" d="M239.741 112.85H142.986C131.791 112.85 122.715 121.956 122.715 133.189V301.33C122.715 312.563 131.791 321.669 142.986 321.669H263.198C274.394 321.669 283.47 312.563 283.47 301.33V156.521L239.741 112.85Z" stroke="#1B1B1B" stroke-width="0.84" stroke-linecap="round" stroke-linejoin="round"/>
<path d="M283.47 156.726H244.07C241.655 156.722 239.701 154.761 239.705 152.346V112.813L283.47 156.726Z" fill="white"/>
<path fill-rule="evenodd" clip-rule="evenodd" d="M283.47 156.726H244.07C241.655 156.722 239.701 154.761 239.705 152.346V112.813L283.47 156.726Z" stroke="#1B1B1B" stroke-width="0.84" stroke-linecap="round" stroke-linejoin="round"/>
<rect x="148.547" y="220.039" width="87.8294" height="10.9584" fill="white" stroke="#1B1B1B" stroke-width="0.84" stroke-linecap="round" stroke-linejoin="round"/>
<rect x="148.547" y="249.947" width="109.901" height="10.9584" fill="white"/>
<rect x="148.547" y="269.124" width="87.8294" height="10.9584" fill="white"/>
<path d="M256.522 278.938C253.991 282.519 250.941 285.703 247.471 288.384" stroke="#1B1B1B" stroke-width="0.84" stroke-linecap="round" stroke-linejoin="round"/>
<ellipse cx="183.408" cy="163.637" rx="39.843" ry="39.9766" fill="white"/>
<mask id="mask1_0_2119" style="mask-type:alpha" maskUnits="userSpaceOnUse" x="143" y="123" width="81" height="81">
<ellipse cx="183.408" cy="163.636" rx="39.843" ry="39.9766" fill="white"/>
</mask>
<g mask="url(#mask1_0_2119)">
<path d="M209.804 179.66L226.251 168.587L235.904 175.383L237.126 182.581L215.803 193.762L209.804 179.66Z" fill="white"/>
<mask id="mask2_0_2119" style="mask-type:alpha" maskUnits="userSpaceOnUse" x="209" y="168" width="29" height="26">
<path fill-rule="evenodd" clip-rule="evenodd" d="M209.804 179.66L226.251 168.586L235.904 175.383L237.126 182.581L215.803 193.761L209.804 179.66Z" fill="white"/>
</mask>
<g mask="url(#mask2_0_2119)">
<path d="M232.06 197.461C229.738 184.616 218.126 173.596 218.126 173.596L219.783 194.917L227.029 193.761" fill="white"/>
</g>
<path fill-rule="evenodd" clip-rule="evenodd" d="M209.804 179.66L226.251 168.587L235.904 175.383L237.126 182.581L215.803 193.762L209.804 179.66V179.66Z" stroke="#1B1B1B" stroke-width="0.84" stroke-linecap="round" stroke-linejoin="round"/>
<path d="M218.125 173.596C218.125 173.596 227.782 189.898 224.125 192.617C224.125 192.617 201.149 204.58 204.893 204.411L201.811 179.023C201.811 179.023 209.029 177.528 218.125 173.596Z" fill="white"/>
<path fill-rule="evenodd" clip-rule="evenodd" d="M218.125 173.596C218.125 173.596 227.782 189.898 224.125 192.617C224.125 192.617 201.149 204.58 204.893 204.411L201.811 179.023C201.811 179.023 209.029 177.528 218.125 173.596Z" stroke="#1B1B1B" stroke-width="0.84" stroke-linecap="round" stroke-linejoin="round"/>
<path d="M154.12 176.913L134.794 169.77C134.794 169.77 124.306 182.427 125.907 184.682L151.292 197.461L154.12 176.913Z" fill="white"/>
<mask id="mask3_0_2119" style="mask-type:alpha" maskUnits="userSpaceOnUse" x="125" y="169" width="30" height="29">
<path fill-rule="evenodd" clip-rule="evenodd" d="M154.12 176.913L134.794 169.77C134.794 169.77 124.306 182.427 125.907 184.682L151.292 197.461L154.12 176.913Z" fill="white"/>
</mask>
<g mask="url(#mask3_0_2119)">
<path d="M148.357 172.577C136.357 182.965 134.712 196.267 134.712 196.267L147.002 195.005" fill="white"/>
</g>
<path fill-rule="evenodd" clip-rule="evenodd" d="M154.12 176.913L134.794 169.77C134.794 169.77 124.306 182.427 125.907 184.682L151.292 197.461L154.12 176.913Z" stroke="#1B1B1B" stroke-width="0.84" stroke-linecap="round" stroke-linejoin="round"/>
<path d="M203.19 179.132C203.19 179.132 159.352 174.291 161.667 178.784C169.48 193.949 163.251 171.049 158.168 239.855C158.168 239.855 188.776 253.877 205.482 241.059C205.482 241.059 207.806 214.922 206.914 196.431" fill="white"/>
<mask id="mask4_0_2119" style="mask-type:alpha" maskUnits="userSpaceOnUse" x="158" y="176" width="50" height="71">
<path fill-rule="evenodd" clip-rule="evenodd" d="M203.19 179.132C203.19 179.132 159.352 174.29 161.667 178.783C169.48 193.949 163.251 171.049 158.168 239.855C158.168 239.855 188.776 253.876 205.482 241.058C205.482 241.058 207.806 214.922 206.914 196.431" fill="white"/>
</mask>
<g mask="url(#mask4_0_2119)">
<path d="M197.286 179.142C199.964 184.318 197.39 189.005 190.127 189.005C182.865 189.005 173.664 184.318 170.986 179.142C168.309 173.966 172.025 169.77 179.288 169.77C186.55 169.77 194.608 173.966 197.286 179.142Z" fill="white" stroke="#1B1B1B" stroke-width="0.84" stroke-linecap="round" stroke-linejoin="round"/>
<ellipse cx="183.064" cy="177.803" rx="6.66983" ry="13.3998" transform="rotate(-60.855 183.064 177.803)" fill="white" stroke="#1B1B1B" stroke-width="0.84" stroke-linecap="round" stroke-linejoin="round"/>
</g>
<path d="M203.19 179.132C203.19 179.132 159.352 174.291 161.667 178.784C169.48 193.949 163.251 171.049 158.168 239.855C158.168 239.855 188.776 253.877 205.482 241.059C205.482 241.059 207.806 214.922 206.914 196.431" stroke="#1B1B1B" stroke-width="0.84" stroke-linecap="round" stroke-linejoin="round"/>
<path d="M168.778 178.082C168.778 178.082 150.098 173.596 146.062 173.122C146.062 173.122 136.434 182.581 139.035 193.761C139.035 193.761 171.099 205.209 175.377 206.623" fill="white"/>
<path d="M168.778 178.082C168.778 178.082 150.098 173.596 146.062 173.122C146.062 173.122 136.434 182.581 139.035 193.761C139.035 193.761 171.099 205.209 175.377 206.623" stroke="#1B1B1B" stroke-width="0.84" stroke-linecap="round" stroke-linejoin="round"/>
<path d="M142.753 175.685L160.999 157.346C160.999 157.346 166.24 156.886 167.747 155.966C169.254 155.046 176.001 147.158 176.001 147.158C176.001 147.158 175.87 145.251 174.298 146.5C174.298 146.5 176.46 144.265 175.215 143.279C175.215 143.279 159.383 151.825 157.833 152.613C156.775 153.151 137.852 165.042 125.926 172.55C121.47 175.354 121.463 181.859 125.907 184.682" fill="white"/>
<path d="M142.753 175.685L160.999 157.346C160.999 157.346 166.24 156.886 167.747 155.966C169.254 155.046 176.001 147.158 176.001 147.158C176.001 147.158 175.87 145.251 174.298 146.5C174.298 146.5 176.46 144.265 175.215 143.279C175.215 143.279 159.383 151.825 157.833 152.613C156.775 153.151 137.852 165.042 125.926 172.55C121.47 175.354 121.463 181.859 125.907 184.682" stroke="#1B1B1B" stroke-width="0.84" stroke-linecap="round" stroke-linejoin="round"/>
<path d="M223.488 177.796L202.375 157.346C202.375 157.346 197.134 156.886 195.627 155.966C194.12 155.046 187.372 147.158 187.372 147.158C187.372 147.158 187.503 145.251 189.075 146.5C189.075 146.5 186.913 144.265 188.158 143.279C188.158 143.279 203.99 151.825 205.541 152.613C206.632 153.168 225.348 164.797 236.354 171.646C240.258 174.075 240.646 179.619 237.126 182.581" fill="white"/>
<path d="M223.488 177.796L202.375 157.346C202.375 157.346 197.134 156.886 195.627 155.966C194.12 155.046 187.372 147.158 187.372 147.158C187.372 147.158 187.503 145.251 189.075 146.5C189.075 146.5 186.913 144.265 188.158 143.279C188.158 143.279 203.99 151.825 205.541 152.613C206.632 153.168 225.348 164.797 236.354 171.646C240.258 174.075 240.646 179.619 237.126 182.581V182.581" stroke="#1B1B1B" stroke-width="0.84" stroke-linecap="round" stroke-linejoin="round"/>
<path d="M175.063 170.55L170.081 152.742C168.569 147.338 172.955 142.102 178.521 142.667L191.654 144.001C193.181 144.138 194.626 144.75 195.787 145.752C198.628 148.268 202.353 153.84 194.495 162.48C183.402 174.677 175.063 170.55 175.063 170.55Z" fill="#1B1B1B" stroke="#1B1B1B" stroke-width="0.84" stroke-linecap="round" stroke-linejoin="round"/>
<path d="M190.86 179.047L189.631 160.361L178.237 163.443L177.218 177.827" fill="white"/>
<mask id="mask5_0_2119" style="mask-type:alpha" maskUnits="userSpaceOnUse" x="177" y="160" width="14" height="20">
<path fill-rule="evenodd" clip-rule="evenodd" d="M190.86 179.047L189.631 160.361L178.237 163.443L177.218 177.827" fill="white"/>
</mask>
<g mask="url(#mask5_0_2119)">
<path d="M182.769 168.381C188.22 171.615 191.524 181.808 191.032 173.938C190.814 170.44 194.398 169.016 194.398 169.016L191.991 162.716L182.818 167.478" fill="white"/>
</g>
<path d="M190.86 179.047L189.631 160.361L178.237 163.443L177.218 177.827" stroke="#1B1B1B" stroke-width="0.84" stroke-linecap="round" stroke-linejoin="round"/>
<path d="M182.769 168.381C186.563 169.695 192.867 170.867 194.301 168.904C197.804 164.105 196.386 150.904 191.989 147.963C187.591 145.023 179.858 152.91 179.858 152.91L179.96 164.471" fill="white"/>
<path d="M182.769 168.381C186.563 169.695 192.867 170.867 194.301 168.904C197.804 164.105 196.386 150.904 191.989 147.963C187.591 145.023 179.858 152.91 179.858 152.91L179.96 164.471" stroke="#1B1B1B" stroke-width="0.84" stroke-linecap="round" stroke-linejoin="round"/>
<path d="M193.021 146.919L177.593 145.117L173.735 152.166L176.415 166.272L177.298 161.42" fill="#1B1B1B"/>
<path d="M177.299 161.42C177.299 161.42 195.131 160.465 193.022 146.919L177.299 161.42Z" fill="#1B1B1B"/>
<path d="M177.299 161.42C177.299 161.42 195.131 160.465 193.022 146.919" stroke="#1B1B1B" stroke-width="0.84" stroke-linecap="round" stroke-linejoin="round"/>
<path d="M183.388 160.685C177.417 153.343 172.581 162.552 180.732 164.673L183.388 160.685Z" fill="white"/>
<path d="M183.388 160.685C177.417 153.343 172.581 162.552 180.732 164.673" stroke="#1B1B1B" stroke-width="0.84" stroke-linecap="round" stroke-linejoin="round"/>
<path d="M191.897 158.055C191.657 158.153 191.388 158.15 191.15 158.049C190.912 157.947 190.723 157.755 190.627 157.515L190.009 155.982C189.807 155.482 190.048 154.912 190.548 154.708C190.788 154.611 191.057 154.613 191.295 154.714C191.533 154.816 191.722 155.008 191.818 155.248L192.436 156.781C192.638 157.281 192.397 157.851 191.897 158.055Z" fill="#1B1B1B"/>
<path d="M190.128 151.345C187.347 152.332 187.197 153.715 188.976 153.212C190.755 152.709 191.945 150.7 190.128 151.345Z" fill="#1B1B1B"/>
<path d="M194.43 155.607C198.621 156.397 198.076 160.285 195.43 160.387L194.43 155.607Z" fill="white"/>
<path d="M194.43 155.607C198.621 156.397 198.076 160.285 195.43 160.387" stroke="#1B1B1B" stroke-width="0.84" stroke-linecap="round" stroke-linejoin="round"/>
<path d="M180.466 160.466C180.207 160.186 179.805 160.091 179.448 160.224C179.091 160.358 178.849 160.693 178.837 161.074C178.824 161.455 179.043 161.805 179.39 161.962" stroke="#1B1B1B" stroke-width="0.84" stroke-linecap="round" stroke-linejoin="round"/>
<path d="M160.473 155.103L160.873 155.907" stroke="#1B1B1B" stroke-width="0.84" stroke-linecap="round" stroke-linejoin="round"/>
<path d="M175.964 150.681L175.163 153.629" stroke="#1B1B1B" stroke-width="0.84" stroke-linecap="round" stroke-linejoin="round"/>
<path d="M177.166 153.897V154.433" stroke="#1B1B1B" stroke-width="0.84" stroke-linecap="round" stroke-linejoin="round"/>
<path d="M185.471 180.865C186.509 182.138 187.833 183.147 189.334 183.812" stroke="#1B1B1B" stroke-width="0.84" stroke-linecap="round" stroke-linejoin="round"/>
</g>
<ellipse cx="183.408" cy="163.637" rx="39.843" ry="39.9766" stroke="#1B1B1B" stroke-width="0.84" stroke-linecap="round" stroke-linejoin="round"/>
<path d="M329.388 48.6016H232.633C221.438 48.6016 212.362 57.7079 212.362 68.9411V237.082C212.362 248.315 221.438 257.421 232.633 257.421H352.845C364.041 257.421 373.117 248.315 373.117 237.082V92.2734L329.388 48.6016Z" fill="white"/>
<path fill-rule="evenodd" clip-rule="evenodd" d="M329.388 48.6016H232.633C221.438 48.6016 212.362 57.7079 212.362 68.9411V237.082C212.362 248.315 221.438 257.421 232.633 257.421H352.845C364.041 257.421 373.117 248.315 373.117 237.082V92.2734L329.388 48.6016Z" stroke="#1B1B1B" stroke-width="0.84" stroke-linecap="round" stroke-linejoin="round"/>
<path d="M373.117 92.4776H333.717C332.557 92.4756 331.446 92.0131 330.627 91.1916C329.808 90.3702 329.35 89.2572 329.352 88.0975V48.5654L373.117 92.4776Z" fill="white"/>
<path fill-rule="evenodd" clip-rule="evenodd" d="M373.117 92.4776H333.717C332.557 92.4756 331.446 92.0131 330.627 91.1916C329.808 90.3702 329.35 89.2572 329.352 88.0975V48.5654L373.117 92.4776Z" stroke="#1B1B1B" stroke-width="0.84" stroke-linecap="round" stroke-linejoin="round"/>
<rect x="238.193" y="155.791" width="87.8294" height="10.9584" fill="white" stroke="#1B1B1B" stroke-width="0.84" stroke-linecap="round" stroke-linejoin="round"/>
<rect x="238.193" y="185.699" width="109.901" height="10.9584" fill="white"/>
<rect x="238.193" y="204.876" width="87.8294" height="10.9584" fill="white"/>
<path d="M346.168 214.69C343.638 218.271 340.587 221.455 337.117 224.136" stroke="#1B1B1B" stroke-width="0.84" stroke-linecap="round" stroke-linejoin="round"/>
<ellipse cx="273.055" cy="99.3882" rx="39.843" ry="39.9766" fill="white"/>
<mask id="mask6_0_2119" style="mask-type:alpha" maskUnits="userSpaceOnUse" x="233" y="59" width="80" height="81">
<ellipse cx="273.054" cy="99.3882" rx="39.843" ry="39.9766" fill="white"/>
</mask>
<g mask="url(#mask6_0_2119)">
<path d="M274.692 83.7508L273.41 76.5406C273.41 76.5406 260.69 71.122 257.171 88.6393C253.652 106.157 264.344 105.749 255.818 113.49C247.292 121.23 237.547 131.822 247.088 137.932C256.63 144.043 296.014 134.062 296.014 134.062L288.908 107.831L274.692 83.7508Z" fill="#1B1B1B" stroke="#1B1B1B" stroke-width="0.84" stroke-linecap="round" stroke-linejoin="round"/>
<path d="M271.382 77.2327C270.702 78.2054 270.072 79.2119 269.494 80.2482C263.502 91.0408 272.531 92.1769 275.684 100.517C277.086 104.228 277.329 109.359 274.55 117.419C266.473 140.845 271.041 153.419 297.502 140.241C316.044 131.007 287.893 68.6778 271.382 77.2327Z" fill="#1B1B1B" stroke="#1B1B1B" stroke-width="0.84" stroke-linecap="round" stroke-linejoin="round"/>
<path d="M279.004 120.348L276.184 97.0618L264.322 101.317L261.688 121.845" fill="white"/>
<mask id="mask7_0_2119" style="mask-type:alpha" maskUnits="userSpaceOnUse" x="261" y="97" width="19" height="25">
<path fill-rule="evenodd" clip-rule="evenodd" d="M279.004 120.348L276.184 97.0618L264.322 101.317L261.688 121.845" fill="white"/>
</mask>
<g mask="url(#mask7_0_2119)">
<path d="M263.428 119C266.779 113.333 268.574 110.112 268.574 110.112L263.248 108.656C263.248 108.656 260.076 124.667 263.428 119Z" fill="white"/>
</g>
<path d="M279.004 120.348L276.184 97.0618L264.322 101.317L261.688 121.845" stroke="#1B1B1B" stroke-width="0.84" stroke-linecap="round" stroke-linejoin="round"/>
<path d="M272.425 97.0591C272.806 96.7226 273.211 96.414 273.637 96.1358C276.869 94.0184 280.611 94.0246 281.993 96.1495C283.376 98.2745 281.876 101.714 278.643 103.831C277.875 104.337 277.043 104.737 276.168 105.021" fill="white"/>
<path d="M272.425 97.0591C272.806 96.7226 273.211 96.414 273.637 96.1358C276.869 94.0184 280.611 94.0246 281.993 96.1495C283.376 98.2745 281.876 101.714 278.643 103.831C277.875 104.337 277.043 104.737 276.168 105.021" stroke="#1B1B1B" stroke-width="0.84" stroke-linecap="round" stroke-linejoin="round"/>
<path d="M274.973 98.9276C271.82 90.5873 263.502 91.0409 269.494 80.2483C266.662 80.8728 264.563 82.1017 262.469 85.3128L258.453 94.8069C255.891 100.862 259.145 107.806 265.424 109.692L268.85 110.72" fill="white"/>
<mask id="mask8_0_2119" style="mask-type:alpha" maskUnits="userSpaceOnUse" x="257" y="80" width="18" height="31">
<path fill-rule="evenodd" clip-rule="evenodd" d="M274.973 98.9276C271.82 90.5873 263.502 91.0409 269.494 80.2483C266.662 80.8728 264.563 82.1017 262.469 85.3128L258.453 94.8069C255.891 100.862 259.145 107.806 265.424 109.692L268.85 110.72" fill="white"/>
</mask>
<g mask="url(#mask8_0_2119)">
<path d="M261.133 93.5192C260.716 93.4271 260.452 93.0142 260.543 92.5964L260.821 91.3167C260.864 91.1161 260.985 90.9409 261.158 90.8297C261.33 90.7185 261.54 90.6806 261.741 90.7242C262.158 90.8163 262.423 91.2292 262.331 91.647L262.053 92.9267C262.01 93.1273 261.889 93.3025 261.716 93.4137C261.544 93.5249 261.334 93.5628 261.133 93.5192Z" fill="#1B1B1B"/>
<path d="M268.357 94.4831C267.939 94.3909 267.675 93.9781 267.766 93.5603L268.044 92.2806C268.087 92.08 268.209 91.9047 268.381 91.7936C268.554 91.6824 268.763 91.6445 268.964 91.6881C269.381 91.7802 269.646 92.193 269.554 92.6109L269.276 93.8905C269.233 94.0912 269.112 94.2664 268.939 94.3776C268.767 94.4887 268.557 94.5267 268.357 94.4831Z" fill="#1B1B1B"/>
<path d="M264.109 93.6155C263.517 95.4213 263.348 95.9553 263.348 95.9553C260.259 95.5461 262.838 98.5656 262.838 98.5656" stroke="#1B1B1B" stroke-width="0.84" stroke-linecap="round" stroke-linejoin="round"/>
<path d="M264.676 99.2043C264.458 99.8241 263.832 100.203 263.182 100.111" stroke="#1B1B1B" stroke-width="0.84" stroke-linecap="round" stroke-linejoin="round"/>
<path d="M261.94 88.8972C260.301 89.0112 260.44 89.8566 261.469 89.8524C262.498 89.8482 263.011 88.8227 261.94 88.8972Z" fill="#1B1B1B"/>
<path d="M269.319 89.8328C270.762 90.6208 270.285 91.3317 269.351 90.8981C268.417 90.4645 268.376 89.3179 269.319 89.8328Z" fill="#1B1B1B"/>
</g>
<path d="M274.973 98.9276C271.82 90.5873 263.502 91.0409 269.494 80.2483C266.662 80.8728 264.563 82.1017 262.469 85.3128L258.453 94.8069C255.891 100.862 259.145 107.806 265.424 109.692L268.85 110.72" stroke="#1B1B1B" stroke-width="0.84" stroke-linecap="round" stroke-linejoin="round"/>
<path d="M256.184 180.002L258.128 126.784L256.184 125.332L248.627 129.566C245.626 131.251 243.769 134.425 243.771 137.867V183.075L256.184 180.002Z" fill="white"/>
<path fill-rule="evenodd" clip-rule="evenodd" d="M256.184 180.002L258.128 126.784L256.184 125.332L248.627 129.566C245.626 131.251 243.769 134.425 243.771 137.867V183.075L256.184 180.002Z" stroke="#1B1B1B" stroke-width="0.84" stroke-linecap="round" stroke-linejoin="round"/>
<path d="M249.002 137.742C246.578 143.644 245.357 150.445 249.252 155.255C257.635 165.606 256.184 180.002 256.184 180.002L289.553 196.5L292.294 193.426C292.294 193.426 290.955 132.151 293.051 122.931C293.051 122.931 286.71 111.579 284.395 112.069C283.838 112.186 256.184 125.332 256.184 125.332" fill="white"/>
<path d="M249.002 137.742C246.578 143.644 245.357 150.445 249.252 155.255C257.635 165.606 256.184 180.002 256.184 180.002L289.553 196.5L292.294 193.426C292.294 193.426 290.955 132.151 293.051 122.931C293.051 122.931 286.71 111.579 284.395 112.069C283.838 112.186 256.184 125.332 256.184 125.332" stroke="#1B1B1B" stroke-width="0.84" stroke-linecap="round" stroke-linejoin="round"/>
<path d="M277.648 188.006L284.889 185.036L307.124 150.079L293.051 122.931L290.647 115.427L286.056 111.933C289.962 111.614 293.774 113.249 296.236 116.299L323.406 149.917L294.427 188.442L290.113 193.548L284.615 191.347L277.648 188.006Z" fill="white"/>
<path fill-rule="evenodd" clip-rule="evenodd" d="M277.648 188.006L284.889 185.036L307.124 150.079L293.051 122.931L290.647 115.427L286.056 111.933C289.962 111.614 293.774 113.249 296.236 116.299L323.406 149.917L294.427 188.442L290.113 193.548L284.615 191.347L277.648 188.006Z" stroke="#1B1B1B" stroke-width="0.84" stroke-linecap="round" stroke-linejoin="round"/>
<path d="M279.873 129.049L298.339 149.758L285.919 173.774C286.349 178.479 301.125 184.284 301.125 184.284L320.742 156.932C324.14 152.192 323.835 145.738 320.005 141.338L297.501 115.518C294.644 112.236 290.221 110.778 285.973 111.719L284.394 112.069" fill="white"/>
<path d="M279.873 129.049L298.339 149.758L285.919 173.774C286.349 178.479 301.125 184.284 301.125 184.284L320.742 156.932C324.14 152.192 323.835 145.738 320.005 141.338L297.501 115.518C294.644 112.236 290.221 110.778 285.973 111.719L284.394 112.069" stroke="#1B1B1B" stroke-width="0.84" stroke-linecap="round" stroke-linejoin="round"/>
<path d="M288.439 100.263C289.802 101.499 290.809 103.077 291.356 104.833" stroke="#1B1B1B" stroke-width="0.84" stroke-linecap="round" stroke-linejoin="round"/>
<path d="M277.859 97.3422C278.265 97.2967 278.717 97.2639 279.037 97.5183C279.356 97.7727 279.317 98.4231 278.913 98.4734" stroke="#1B1B1B" stroke-width="0.84" stroke-linecap="round" stroke-linejoin="round"/>
</g>
<ellipse cx="273.055" cy="99.3882" rx="39.843" ry="39.9766" stroke="#1B1B1B" stroke-width="0.84" stroke-linecap="round" stroke-linejoin="round"/>
<path d="M240.303 285.843L226.09 267.555L285.792 220.847L300.004 239.135L240.303 285.843Z" fill="#1B1B1B"/>
<mask id="mask9_0_2119" style="mask-type:alpha" maskUnits="userSpaceOnUse" x="226" y="220" width="75" height="66">
<path fill-rule="evenodd" clip-rule="evenodd" d="M240.303 285.843L226.09 267.555L285.792 220.847L300.004 239.135L240.303 285.843Z" fill="white"/>
</mask>
<g mask="url(#mask9_0_2119)">
<path d="M310.449 253.345C261.216 240.074 283.227 232.651 250.652 243.831C218.077 255.011 269.177 184.671 269.177 184.671L302.512 222.469L310.637 231" fill="white"/>
</g>
<path fill-rule="evenodd" clip-rule="evenodd" d="M240.303 285.843L226.09 267.555L285.792 220.847L300.004 239.135L240.303 285.843V285.843Z" stroke="#1B1B1B" stroke-width="0.84" stroke-linecap="round" stroke-linejoin="round"/>
<path fill-rule="evenodd" clip-rule="evenodd" d="M299.647 124.049C334.105 97.0909 383.819 103.264 410.687 137.837C437.555 172.41 431.403 222.29 396.946 249.249C362.489 276.207 312.774 270.034 285.906 235.461C259.038 200.888 265.19 151.007 299.647 124.049ZM312.596 140.711C287.31 160.494 282.795 197.098 302.512 222.469C322.229 247.84 358.711 252.37 383.997 232.587C409.283 212.804 413.798 176.199 394.081 150.829C374.364 125.458 337.882 120.928 312.596 140.711Z" fill="#1B1B1B"/>
<path d="M410.687 137.837L410.355 138.094L410.687 137.837ZM299.647 124.049L299.389 123.718L299.647 124.049ZM285.906 235.461L285.574 235.719L285.906 235.461ZM302.512 222.469L302.844 222.211V222.211L302.512 222.469ZM312.596 140.711L312.337 140.38L312.596 140.711ZM394.081 150.829L394.413 150.571L394.081 150.829ZM411.019 137.579C384.008 102.823 334.029 96.6166 299.389 123.718L299.906 124.38C334.18 97.5651 383.63 103.705 410.355 138.094L411.019 137.579ZM397.205 249.579C431.845 222.478 438.029 172.334 411.019 137.579L410.355 138.094C437.082 172.485 430.962 222.102 396.687 248.918L397.205 249.579ZM285.574 235.719C312.585 270.475 362.564 276.681 397.205 249.579L396.687 248.918C362.413 275.733 312.964 269.593 286.238 235.203L285.574 235.719ZM299.389 123.718C264.749 150.819 258.565 200.964 285.574 235.719L286.238 235.203C259.511 200.813 265.632 151.195 299.906 124.38L299.389 123.718ZM302.844 222.211C283.269 197.023 287.751 160.682 312.855 141.042L312.337 140.38C286.869 160.306 282.322 197.174 302.18 222.727L302.844 222.211ZM383.738 232.256C358.636 251.896 322.418 247.399 302.844 222.211L302.18 222.727C322.04 248.281 358.786 252.844 384.256 232.918L383.738 232.256ZM393.749 151.086C413.324 176.275 408.842 212.616 383.738 232.256L384.256 232.918C409.725 212.992 414.271 176.124 394.413 150.571L393.749 151.086ZM312.855 141.042C337.958 121.402 374.175 125.899 393.749 151.086L394.413 150.571C374.553 125.017 337.807 120.454 312.337 140.38L312.855 141.042Z" fill="#1B1B1B"/>
<path d="M191.174 315.16L186.079 308.605C182.275 303.707 183.144 296.655 188.025 292.828L250.652 243.831C251.527 243.146 252.637 242.838 253.739 242.975C254.841 243.112 255.843 243.682 256.523 244.56L270.251 262.224C271.672 264.053 271.347 266.686 269.525 268.115L206.898 317.113C204.556 318.945 201.581 319.77 198.63 319.403C195.679 319.037 192.996 317.51 191.174 315.16Z" fill="white"/>
<mask id="mask10_0_2119" style="mask-type:alpha" maskUnits="userSpaceOnUse" x="183" y="242" width="89" height="78">
<path fill-rule="evenodd" clip-rule="evenodd" d="M191.174 315.16L186.079 308.605C182.275 303.707 183.144 296.655 188.025 292.828L250.652 243.831C251.527 243.146 252.637 242.838 253.739 242.975C254.841 243.112 255.843 243.682 256.523 244.56L270.251 262.224C271.672 264.053 271.347 266.686 269.525 268.115L206.898 317.113C204.556 318.945 201.581 319.77 198.63 319.403C195.679 319.037 192.996 317.51 191.174 315.16Z" fill="white"/>
</mask>
<g mask="url(#mask10_0_2119)">
<path d="M237.121 321.236L200.494 274.106L221.291 257.835L257.918 304.965L237.121 321.236Z" fill="white" stroke="#1B1B1B" stroke-width="0.84" stroke-linecap="round" stroke-linejoin="round"/>
<path d="M232.562 306.167C180.418 324.769 185.053 282.637 185.053 282.637L157.243 300.353L166.6 345.696L229.705 311.693" fill="white"/>
</g>
<path fill-rule="evenodd" clip-rule="evenodd" d="M191.174 315.16L186.079 308.605C182.275 303.707 183.144 296.655 188.025 292.828L250.652 243.831C251.527 243.146 252.637 242.838 253.739 242.975C254.841 243.112 255.843 243.682 256.523 244.56L270.251 262.224C271.672 264.053 271.347 266.686 269.525 268.115L206.898 317.113C204.556 318.945 201.581 319.77 198.63 319.403C195.679 319.037 192.996 317.51 191.174 315.16Z" stroke="#1B1B1B" stroke-width="0.84" stroke-linecap="round" stroke-linejoin="round"/>
<ellipse opacity="0.3" cx="348.296" cy="186.649" rx="58.0581" ry="58.2528" fill="white" stroke="#1B1B1B" stroke-width="0.84" stroke-linecap="round" stroke-linejoin="round"/>
<path d="M390.639 131.308L383.686 128.983" stroke="#1B1B1B" stroke-width="0.84" stroke-linecap="round" stroke-linejoin="round"/>
<path d="M244.277 272.73L238.863 268.087" stroke="#1B1B1B" stroke-width="0.84" stroke-linecap="round" stroke-linejoin="round"/>
<path d="M119.547 46.6132C119.547 39.5316 113.825 33.7905 106.767 33.7905C100.685 33.7988 95.449 38.0882 94.2439 44.0501C87.8439 45.7602 83.3932 51.5594 83.3965 58.1839C83.3965 66.2682 89.9282 72.8216 97.9854 72.8216C106.043 72.8216 112.574 66.2682 112.574 58.184C112.574 58.1318 112.567 58.0819 112.566 58.0299C116.853 55.8377 119.55 51.4279 119.547 46.6132Z" fill="#1B1B1B" stroke="#1B1B1B" stroke-width="0.84" stroke-linecap="round" stroke-linejoin="round"/>
<path d="M129.789 138.057H135.98C136.728 138.057 136.52 139.475 135.315 139.642H137.351C137.518 139.642 138.916 141.291 134.498 141.633C130.08 141.976 129.582 141.633 129.582 141.633L129.789 138.057Z" fill="white" stroke="#1B1B1B" stroke-width="0.84" stroke-linecap="round" stroke-linejoin="round"/>
<path d="M134.095 123.125C134.095 123.125 122.809 133.861 122.587 134.472C122.365 135.083 125.468 142.921 125.468 142.921C125.468 142.921 127.85 142.81 128.238 142.476C128.238 142.476 128.404 143.977 131.839 143.866C135.274 143.755 136.936 144.589 136.936 144.589C136.936 144.589 139.65 141.921 130.897 141.031C130.897 141.031 130.897 137.085 131.119 136.862C131.34 136.64 137.767 131.47 137.767 131.47L134.095 123.125Z" fill="white"/>
<mask id="mask11_0_2119" style="mask-type:alpha" maskUnits="userSpaceOnUse" x="122" y="123" width="16" height="22">
<path fill-rule="evenodd" clip-rule="evenodd" d="M134.095 123.125C134.095 123.125 122.809 133.861 122.587 134.472C122.365 135.083 125.468 142.921 125.468 142.921C125.468 142.921 127.85 142.81 128.238 142.476C128.238 142.476 128.404 143.977 131.839 143.866C135.274 143.755 136.936 144.589 136.936 144.589C136.936 144.589 139.65 141.921 130.897 141.031C130.897 141.031 130.897 137.085 131.119 136.862C131.34 136.64 137.767 131.47 137.767 131.47L134.095 123.125Z" fill="white"/>
</mask>
<g mask="url(#mask11_0_2119)">
<path d="M125.758 128.424C126.424 135.187 130.76 134.33 130.962 138.057C131.165 141.785 134.943 131.248 134.943 131.248L128.905 126.491L128.276 126.12" fill="white"/>
</g>
<path fill-rule="evenodd" clip-rule="evenodd" d="M134.095 123.125C134.095 123.125 122.809 133.861 122.587 134.472C122.365 135.083 125.468 142.921 125.468 142.921C125.468 142.921 127.85 142.81 128.238 142.476C128.238 142.476 128.404 143.977 131.839 143.866C135.274 143.755 136.936 144.589 136.936 144.589C136.936 144.589 139.65 141.921 130.897 141.031C130.897 141.031 130.897 137.085 131.119 136.862C131.34 136.64 137.767 131.47 137.767 131.47L134.095 123.125Z" stroke="#1B1B1B" stroke-width="0.84" stroke-linecap="round" stroke-linejoin="round"/>
<ellipse cx="95.8339" cy="85.2332" rx="14.5888" ry="14.6377" fill="#1B1B1B" stroke="#1B1B1B" stroke-width="0.84" stroke-linecap="round" stroke-linejoin="round"/>
<path d="M159.135 290.205C159.583 290.861 167.561 314.267 167.561 314.267L153.045 312.845L141.505 279.705L159.135 290.205Z" fill="white"/>
<mask id="mask12_0_2119" style="mask-type:alpha" maskUnits="userSpaceOnUse" x="141" y="279" width="27" height="36">
<path fill-rule="evenodd" clip-rule="evenodd" d="M159.136 290.205C159.584 290.862 167.562 314.267 167.562 314.267L153.045 312.845L141.506 279.706L159.136 290.205Z" fill="white"/>
</mask>
<g mask="url(#mask12_0_2119)">
<path d="M160.979 293.228C163.534 299.917 152.09 294.12 150.09 297.687C148.09 301.254 150.95 309.017 150.95 309.017C150.95 309.017 143.868 303.707 144.091 301.366C144.313 299.025 144.757 288.657 144.757 288.657L156.868 290.106" fill="white"/>
</g>
<path fill-rule="evenodd" clip-rule="evenodd" d="M159.135 290.205C159.583 290.861 167.561 314.267 167.561 314.267L153.045 312.845L141.505 279.705L159.135 290.205Z" stroke="#1B1B1B" stroke-width="0.84" stroke-linecap="round" stroke-linejoin="round"/>
<path d="M157.456 321.048H193.167C193.167 321.048 199.545 315.329 181.484 315.579C168.068 315.765 165.1 304.945 165.1 304.945C165.1 304.945 161.757 309.279 150.95 309.017L153.129 317.695C153.572 319.462 155.62 321.048 157.456 321.048Z" fill="#1B1B1B" stroke="#1B1B1B" stroke-width="0.84" stroke-linecap="round" stroke-linejoin="round"/>
<path d="M140.454 294.169C140.454 294.169 162.137 298.504 163.622 294.169L130.928 154.744C129.686 149.46 127.713 144.375 125.067 139.635L118.059 127.065L103.386 130.542L103.274 162.959L140.454 294.169Z" fill="white"/>
<path fill-rule="evenodd" clip-rule="evenodd" d="M140.454 294.169C140.454 294.169 162.137 298.504 163.622 294.169L130.928 154.744C129.686 149.46 127.713 144.375 125.067 139.635L118.059 127.065L103.386 130.542L103.274 162.959L140.454 294.169Z" stroke="#1B1B1B" stroke-width="0.84" stroke-linecap="round" stroke-linejoin="round"/>
<path d="M126.43 129.717C126.43 129.717 133.755 139.371 137.158 140.153L155.487 124.137C158.735 121.298 158.981 115.877 156.006 112.682L129.641 84.3613C126.265 80.7341 120.921 80.8352 117.655 84.5882C114.067 88.7109 114.64 97.5015 118.724 100.992L138.497 117.943L126.43 129.717Z" fill="white"/>
<mask id="mask13_0_2119" style="mask-type:alpha" maskUnits="userSpaceOnUse" x="115" y="81" width="44" height="60">
<path fill-rule="evenodd" clip-rule="evenodd" d="M126.43 129.717C126.43 129.717 133.755 139.371 137.158 140.153L155.487 124.137C158.735 121.298 158.981 115.877 156.006 112.682L129.641 84.3613C126.265 80.7341 120.921 80.8352 117.655 84.5882C114.067 88.7109 114.64 97.5015 118.724 100.992L138.497 117.943L126.43 129.717Z" fill="white"/>
</mask>
<g mask="url(#mask13_0_2119)">
<path d="M128.905 95.5654C127.213 114.895 136.684 116.389 136.684 116.389L117.519 113.528L124.782 95.7773" fill="white"/>
</g>
<path fill-rule="evenodd" clip-rule="evenodd" d="M126.43 129.717C126.43 129.717 133.755 139.371 137.158 140.153L155.487 124.137C158.735 121.298 158.981 115.877 156.006 112.682L129.641 84.3613C126.265 80.7341 120.921 80.8352 117.655 84.5882V84.5882C114.067 88.7109 114.64 97.5015 118.724 100.992L138.497 117.943L126.43 129.717Z" stroke="#1B1B1B" stroke-width="0.84" stroke-linecap="round" stroke-linejoin="round"/>
<path d="M106.544 290.224C106.405 290.881 109.485 314.329 109.485 314.329L123.33 312.905L119.213 279.705L106.544 290.224Z" fill="white"/>
<mask id="mask14_0_2119" style="mask-type:alpha" maskUnits="userSpaceOnUse" x="106" y="279" width="18" height="36">
<path fill-rule="evenodd" clip-rule="evenodd" d="M106.544 290.224C106.406 290.881 109.486 314.329 109.486 314.329L123.331 312.905L119.213 279.705L106.544 290.224Z" fill="white"/>
</mask>
<g mask="url(#mask14_0_2119)">
<path d="M102.648 300.697C113.425 302.035 122.967 299.005 121.189 295.103C119.412 291.201 115.647 293.562 115.647 293.562L106.539 296.096" fill="white"/>
</g>
<path fill-rule="evenodd" clip-rule="evenodd" d="M106.544 290.224C106.405 290.881 109.485 314.329 109.485 314.329L123.33 312.905L119.213 279.705L106.544 290.224Z" stroke="#1B1B1B" stroke-width="0.84" stroke-linecap="round" stroke-linejoin="round"/>
<path d="M122.794 321.122H81.1493C81.1493 321.122 78.0039 315.393 96.1832 315.644C109.687 315.83 107.543 304.99 107.543 304.99C107.543 304.99 112.933 309.332 123.617 309.069L125.538 317.763C125.929 319.533 124.631 321.122 122.794 321.122Z" fill="#1B1B1B" stroke="#1B1B1B" stroke-width="0.84" stroke-linecap="round" stroke-linejoin="round"/>
<path d="M105.372 128.264L88.8236 127.065L82.6061 137.718C76.6279 147.961 74.5145 160.314 76.7058 172.207L100.003 298.652C120.509 302.093 121.305 296.326 121.305 296.326L108.115 157.205" fill="white"/>
<mask id="mask15_0_2119" style="mask-type:alpha" maskUnits="userSpaceOnUse" x="75" y="127" width="47" height="173">
<path fill-rule="evenodd" clip-rule="evenodd" d="M105.372 128.264L88.8241 127.065L82.6066 137.718C76.6284 147.961 74.515 160.314 76.7063 172.207L100.004 298.652C120.51 302.093 121.305 296.326 121.305 296.326L108.116 157.205" fill="white"/>
</mask>
<g mask="url(#mask15_0_2119)">
<path d="M61.0693 154.761C92.7719 167.544 76.254 127.922 101.364 123.876C126.474 119.83 73.4606 115.853 73.4606 115.853L59.5879 137.816" fill="white"/>
</g>
<path d="M105.372 128.264L88.8236 127.065L82.6061 137.718C76.6279 147.961 74.5145 160.314 76.7058 172.207L100.003 298.652C120.509 302.093 121.305 296.326 121.305 296.326L108.115 157.205" stroke="#1B1B1B" stroke-width="0.84" stroke-linecap="round" stroke-linejoin="round"/>
<path d="M82.0415 135.661C82.0415 135.661 111.067 138.989 122.587 134.472L120.963 130.329L84.4231 129.796L82.0415 135.661Z" fill="white" stroke="#1B1B1B" stroke-width="0.84" stroke-linecap="round" stroke-linejoin="round"/>
<path d="M124.795 81.7782C124.795 81.7782 97.5624 74.4811 78.7368 80.6256C78.7368 80.6256 80.0537 115.6 84.423 129.796C103.475 134.803 120.963 130.329 120.963 130.329C120.963 130.329 130.129 110.602 128.767 94.1757" fill="white"/>
<mask id="mask16_0_2119" style="mask-type:alpha" maskUnits="userSpaceOnUse" x="78" y="78" width="51" height="55">
<path fill-rule="evenodd" clip-rule="evenodd" d="M124.795 81.7782C124.795 81.7782 97.5624 74.4811 78.7368 80.6256C78.7368 80.6256 80.0537 115.6 84.423 129.796C103.475 134.803 120.963 130.329 120.963 130.329C120.963 130.329 130.129 110.602 128.767 94.1757" fill="white"/>
</mask>
<g mask="url(#mask16_0_2119)">
<ellipse cx="103.405" cy="80.8753" rx="8.94103" ry="11.3978" transform="rotate(-68.402 103.405 80.8753)" fill="white" stroke="#1B1B1B" stroke-width="0.84" stroke-linecap="round" stroke-linejoin="round"/>
<ellipse cx="96.9312" cy="102.296" rx="7.65533" ry="7.681" fill="#1B1B1B" stroke="#1B1B1B" stroke-width="0.84" stroke-linecap="round" stroke-linejoin="round"/>
<rect x="107.638" y="95.3562" width="11.1357" height="11.173" fill="#1B1B1B" stroke="#1B1B1B" stroke-width="0.84" stroke-linecap="round" stroke-linejoin="round"/>
</g>
<path d="M124.795 81.7782C124.795 81.7782 97.5624 74.4811 78.7368 80.6256C78.7368 80.6256 80.0537 115.6 84.423 129.796C103.475 134.803 120.963 130.329 120.963 130.329C120.963 130.329 130.129 110.602 128.767 94.1757" stroke="#1B1B1B" stroke-width="0.84" stroke-linecap="round" stroke-linejoin="round"/>
<path d="M113.647 133.039H96.5163C95.3264 133.039 94.5531 132.088 94.7889 130.915L100.003 104.972C100.238 103.799 101.394 102.848 102.584 102.848H119.715C120.905 102.848 121.678 103.799 121.442 104.972L116.228 130.915C115.993 132.088 114.837 133.039 113.647 133.039Z" fill="white" stroke="#1B1B1B" stroke-width="0.84" stroke-linecap="round" stroke-linejoin="round"/>
<ellipse cx="109.16" cy="117.688" rx="3.02378" ry="2.47633" transform="rotate(-40.1689 109.16 117.688)" fill="white" stroke="#1B1B1B" stroke-width="0.84" stroke-linecap="round" stroke-linejoin="round"/>
<path d="M110.698 80.571L111.73 63.0996H97.9851L96.3198 79.5689" fill="white"/>
<mask id="mask17_0_2119" style="mask-type:alpha" maskUnits="userSpaceOnUse" x="96" y="63" width="16" height="18">
<path fill-rule="evenodd" clip-rule="evenodd" d="M110.698 80.571L111.73 63.0996H97.9851L96.3198 79.5689" fill="white"/>
</mask>
<g mask="url(#mask17_0_2119)">
<path d="M115.223 79.8473C104.823 79.8473 108.984 74.2608 101.472 69.0707C95.3573 64.8461 110.423 65.8375 110.423 65.8375L115.223 79.8473Z" fill="white"/>
</g>
<path d="M110.698 80.571L111.73 63.0996H97.9851L96.3198 79.5689" stroke="#1B1B1B" stroke-width="0.84" stroke-linecap="round" stroke-linejoin="round"/>
<path d="M101.457 69.8273C117.051 79.3461 120.05 61.1624 115.708 51.893C111.706 53.7477 107.839 48.856 107.839 48.856C106.252 52.5425 100.173 51.8268 100.173 51.8268C100.173 51.8268 99.8069 59.2316 93.9004 62.2557L93.9873 63.945" fill="white"/>
<mask id="mask18_0_2119" style="mask-type:alpha" maskUnits="userSpaceOnUse" x="93" y="48" width="25" height="25">
<path fill-rule="evenodd" clip-rule="evenodd" d="M101.457 69.8273C117.051 79.3461 120.05 61.1624 115.708 51.893C111.706 53.7477 107.839 48.856 107.839 48.856C106.252 52.5425 100.173 51.8268 100.173 51.8268C100.173 51.8268 99.8069 59.2316 93.9004 62.2557L93.9873 63.945" fill="white"/>
</mask>
<g mask="url(#mask18_0_2119)">
<rect x="115.223" y="60.0908" width="1.71526" height="3.17429" rx="0.857628" transform="rotate(-178.775 115.223 60.0908)" fill="#1B1B1B"/>
<path d="M111.204 59.1187C111.335 61.0147 111.368 61.5738 111.368 61.5738C114.463 61.9343 111.222 64.2294 111.222 64.2294" stroke="#1B1B1B" stroke-width="0.84" stroke-linecap="round" stroke-linejoin="round"/>
<path d="M109.283 64.3979C109.343 65.0523 109.856 65.5735 110.51 65.643" stroke="#1B1B1B" stroke-width="0.84" stroke-linecap="round" stroke-linejoin="round"/>
<path d="M106.374 59.5754C105.901 59.5653 105.525 59.1732 105.535 58.6996L105.567 57.2409C105.572 57.0135 105.667 56.7973 105.831 56.64C105.995 56.4826 106.215 56.397 106.442 56.4018C106.916 56.412 107.292 56.8041 107.282 57.2776L107.25 58.7363C107.245 58.9637 107.15 59.1799 106.986 59.3372C106.822 59.4946 106.602 59.5803 106.374 59.5754L106.374 59.5754Z" fill="#1B1B1B"/>
<path d="M114.69 54.8757C116.429 55.4252 116.06 56.3013 114.951 56.0289C113.842 55.7565 113.554 54.5167 114.69 54.8757Z" fill="#1B1B1B"/>
<path d="M106.538 54.3078C104.777 54.7824 105.108 55.6734 106.228 55.4487C107.348 55.2241 107.688 53.9976 106.538 54.3078Z" fill="#1B1B1B"/>
</g>
<path d="M101.457 69.8273C117.051 79.3461 120.05 61.1624 115.708 51.893C111.706 53.7477 107.839 48.856 107.839 48.856C106.252 52.5425 100.173 51.8268 100.173 51.8268C100.173 51.8268 99.8069 59.2316 93.9004 62.2557L93.9873 63.945" stroke="#1B1B1B" stroke-width="0.84" stroke-linecap="round" stroke-linejoin="round"/>
<path d="M98.4113 59.436C90.6548 52.106 86.2542 66.6288 97.9854 67.4006L98.4113 59.436Z" fill="white"/>
<path d="M98.4113 59.436C90.6548 52.106 86.2542 66.6288 97.9854 67.4006" stroke="#1B1B1B" stroke-width="0.84" stroke-linecap="round" stroke-linejoin="round"/>
<path d="M86.7671 122.817C88.2473 121.985 89.7932 121.274 91.3893 120.693C94.7469 119.502 94.7469 116.373 97.8161 115.853C97.8161 115.853 96.0903 121.987 99.3175 121.149C104.098 119.907 109.902 116.37 110.658 117.28C111.414 118.19 111.339 119.48 108.541 121.073C108.541 121.073 110.356 122.135 108.692 124.031C108.692 124.031 111.187 126.383 106.198 128.203C101.208 130.024 88.5816 133.039 88.5816 133.039L86.7671 122.817Z" fill="white"/>
<mask id="mask19_0_2119" style="mask-type:alpha" maskUnits="userSpaceOnUse" x="86" y="115" width="26" height="19">
<path fill-rule="evenodd" clip-rule="evenodd" d="M86.7671 122.817C88.2473 121.985 89.7932 121.274 91.3893 120.693C94.7469 119.502 94.7469 116.373 97.8161 115.853C97.8161 115.853 96.0903 121.987 99.3175 121.149C104.098 119.907 109.902 116.37 110.658 117.28C111.414 118.19 111.339 119.48 108.541 121.073C108.541 121.073 110.356 122.135 108.692 124.031C108.692 124.031 111.187 126.383 106.198 128.203C101.208 130.024 88.5816 133.039 88.5816 133.039L86.7671 122.817Z" fill="white"/>
</mask>
<g mask="url(#mask19_0_2119)">
<path d="M88.9444 120.36C93.611 126.38 93.1196 131.967 96.8099 130.966C100.5 129.965 92.1295 134.629 92.1295 134.629C92.1295 134.629 86.3149 132.383 86.352 132.169C86.389 131.954 86.0557 127.066 86.0557 127.066" fill="white"/>
</g>
<path fill-rule="evenodd" clip-rule="evenodd" d="M86.7671 122.817C88.2473 121.985 89.7932 121.274 91.3893 120.693C94.7469 119.502 94.7469 116.373 97.8161 115.853C97.8161 115.853 96.0903 121.987 99.3175 121.149C104.098 119.907 109.902 116.37 110.658 117.28C111.414 118.19 111.339 119.48 108.541 121.073C108.541 121.073 110.356 122.135 108.692 124.031C108.692 124.031 111.187 126.383 106.198 128.203C101.208 130.024 88.5816 133.039 88.5816 133.039L86.7671 122.817Z" stroke="#1B1B1B" stroke-width="0.84" stroke-linecap="round" stroke-linejoin="round"/>
<path d="M81.2451 79.8813C77.3765 80.7761 73.6619 82.6515 72.2966 86.4079L54.6845 132.532C54.5074 132.928 54.365 133.339 54.2587 133.76L54.219 133.874L54.2313 133.872C53.8462 135.452 54.0017 137.115 54.6729 138.596C56.4448 142.549 61.3104 144.534 65.724 143.106L91.0818 134.9C92.4776 131.082 89.6818 121.37 89.6818 121.37L76.5223 124.294L87.5083 97.2496" fill="white"/>
<path d="M81.2451 79.8813C77.3765 80.7761 73.6619 82.6515 72.2966 86.4079L54.6845 132.532C54.5074 132.928 54.365 133.339 54.2587 133.76L54.219 133.874L54.2313 133.872C53.8462 135.452 54.0017 137.115 54.6729 138.596C56.4448 142.549 61.3104 144.534 65.724 143.106L91.0818 134.9C92.4776 131.082 89.6818 121.37 89.6818 121.37L76.5223 124.294L87.5083 97.2496" stroke="#1B1B1B" stroke-width="0.84" stroke-linecap="round" stroke-linejoin="round"/>
<path d="M67.5898 126.429L84.3759 122.549L67.5898 126.429Z" fill="white"/>
<path d="M67.5898 126.429L84.3759 122.549" stroke="#1B1B1B" stroke-width="0.84" stroke-linecap="round" stroke-linejoin="round"/>
<path d="M94.1323 44.0278C93.8465 45.3931 94.1738 46.8151 95.0277 47.918" stroke="#1B1B1B" stroke-width="0.84" stroke-linecap="round" stroke-linejoin="round"/>
<path d="M113.44 45.197L113.884 46.5348" stroke="#1B1B1B" stroke-width="0.84" stroke-linecap="round" stroke-linejoin="round"/>
<path d="M138.774 118.34C139.472 118.24 140.179 118.446 140.713 118.905" stroke="#1B1B1B" stroke-width="0.84" stroke-linecap="round" stroke-linejoin="round"/>
<path d="M95.9531 209.316C97.8756 209.894 99.9136 209.975 101.876 209.551" stroke="#1B1B1B" stroke-width="0.84" stroke-linecap="round" stroke-linejoin="round"/>
<path d="M128.872 206.536C131.603 206.214 134.281 205.531 136.833 204.504" stroke="#1B1B1B" stroke-width="0.84" stroke-linecap="round" stroke-linejoin="round"/>
<path d="M171.478 306.185L168.816 310.053" stroke="#1B1B1B" stroke-width="0.84" stroke-linecap="round" stroke-linejoin="round"/>
<path d="M170.031 310.073L167.957 310.668" stroke="#1B1B1B" stroke-width="0.84" stroke-linecap="round" stroke-linejoin="round"/>
<path d="M103.229 309.471L105.465 312.731" stroke="#1B1B1B" stroke-width="0.84" stroke-linecap="round" stroke-linejoin="round"/>
<path d="M103.071 312.61C103.922 312.514 104.784 312.601 105.598 312.866" stroke="#1B1B1B" stroke-width="0.84" stroke-linecap="round" stroke-linejoin="round"/>
<path d="M336.942 323.672H379.552C379.552 323.672 400.273 299.502 332.272 321.757" fill="white"/>
<path d="M336.942 323.672H379.552C379.552 323.672 400.273 299.502 332.272 321.757" stroke="#1B1B1B" stroke-width="0.84" stroke-linecap="round" stroke-linejoin="round"/>
<path d="M241.544 283.119C241.542 283.156 241.518 283.187 241.483 283.199C241.448 283.211 241.409 283.2 241.385 283.172C202.468 237.297 275.057 224.239 223.9 198.328C172.679 172.383 231.806 135.862 257.746 190.643C277.575 232.519 210.34 244.456 246.582 278.097L241.544 283.119Z" fill="white"/>
<mask id="mask20_0_2119" style="mask-type:alpha" maskUnits="userSpaceOnUse" x="203" y="162" width="59" height="122">
<path fill-rule="evenodd" clip-rule="evenodd" d="M241.544 283.119C241.541 283.156 241.517 283.187 241.482 283.199C241.447 283.211 241.409 283.2 241.385 283.172C202.467 237.297 275.056 224.239 223.9 198.328C172.678 172.383 231.805 135.862 257.745 190.643C277.575 232.519 210.34 244.456 246.581 278.097L241.544 283.119Z" fill="white"/>
</mask>
<g mask="url(#mask20_0_2119)">
<ellipse cx="271.273" cy="204.135" rx="18.4815" ry="18.5435" fill="white" stroke="#1B1B1B" stroke-width="0.84" stroke-linecap="round" stroke-linejoin="round"/>
<ellipse cx="207.65" cy="194.179" rx="18.4815" ry="18.5435" fill="white" stroke="#1B1B1B" stroke-width="0.84" stroke-linecap="round" stroke-linejoin="round"/>
</g>
<path fill-rule="evenodd" clip-rule="evenodd" d="M241.544 283.119C241.542 283.156 241.518 283.187 241.483 283.199C241.448 283.211 241.409 283.2 241.385 283.172C202.468 237.297 275.056 224.239 223.9 198.328C172.679 172.383 231.806 135.862 257.746 190.643C277.575 232.519 210.34 244.456 246.582 278.097L241.544 283.119Z" stroke="#1B1B1B" stroke-width="0.84" stroke-linecap="round" stroke-linejoin="round"/>
<path d="M314.274 323.672H222.808C222.808 323.672 214.977 201.601 311.87 266.023C311.87 266.023 309.864 245.004 314.274 232.641L322.061 240.434C322.061 240.434 339.049 234.913 354.355 239.858L361.359 232.641C361.359 232.641 372.255 257.688 364.896 323.672H314.274Z" fill="white"/>
<mask id="mask21_0_2119" style="mask-type:alpha" maskUnits="userSpaceOnUse" x="222" y="232" width="146" height="92">
<path fill-rule="evenodd" clip-rule="evenodd" d="M314.274 323.672H222.808C222.808 323.672 214.977 201.601 311.87 266.023C311.87 266.023 309.864 245.004 314.274 232.641L322.061 240.434C322.061 240.434 339.049 234.913 354.355 239.858L361.359 232.641C361.359 232.641 372.255 257.688 364.896 323.672H314.274Z" fill="white"/>
</mask>
<g mask="url(#mask21_0_2119)">
<path d="M335.19 327.906C335.19 327.906 339.276 301.006 301.92 312.339C301.92 312.339 325.07 287.56 298.173 269.227C271.275 250.893 263.396 333.177 263.396 333.177" fill="white"/>
<path d="M379.515 279.628C370.799 279.374 369.953 284.275 361.664 286.689C353.375 289.103 351.769 300.362 362.397 301.306C373.024 302.25 370.742 294.478 379.992 295.566C389.243 296.653 392.241 279.999 379.515 279.628Z" fill="white" stroke="#1B1B1B" stroke-width="0.84" stroke-linecap="round" stroke-linejoin="round"/>
<path d="M331.237 343.876C339.884 342.757 339.955 337.784 347.765 334.097C355.574 330.41 355.403 319.038 344.759 319.775C334.116 320.513 337.583 327.831 328.277 328.211C318.971 328.59 318.609 345.51 331.237 343.876Z" fill="white" stroke="#1B1B1B" stroke-width="0.84" stroke-linecap="round" stroke-linejoin="round"/>
<path d="M335.348 221.767C326.632 221.513 325.786 226.414 317.497 228.828C309.208 231.242 307.602 242.501 318.23 243.445C328.857 244.389 326.575 236.616 335.825 237.704C345.076 238.792 348.074 222.138 335.348 221.767Z" fill="white" stroke="#1B1B1B" stroke-width="0.84" stroke-linecap="round" stroke-linejoin="round"/>
</g>
<path fill-rule="evenodd" clip-rule="evenodd" d="M314.274 323.672H222.808C222.808 323.672 214.977 201.601 311.87 266.023C311.87 266.023 309.864 245.004 314.274 232.641L322.061 240.434C322.061 240.434 339.049 234.913 354.355 239.858L361.359 232.641C361.359 232.641 372.255 257.688 364.896 323.672H314.274Z" stroke="#1B1B1B" stroke-width="0.84" stroke-linecap="round" stroke-linejoin="round"/>
<path d="M260.747 269.026C291.128 242.339 325.34 289.094 296.666 315.375C296.666 315.375 327.019 305.907 327.31 323.672H234.113" fill="white"/>
<mask id="mask22_0_2119" style="mask-type:alpha" maskUnits="userSpaceOnUse" x="234" y="261" width="94" height="63">
<path fill-rule="evenodd" clip-rule="evenodd" d="M260.746 269.026C291.128 242.34 325.34 289.094 296.666 315.375C296.666 315.375 327.018 305.907 327.31 323.672H234.113" fill="white"/>
</mask>
<g mask="url(#mask22_0_2119)">
<path d="M308.05 262.388C299.335 262.134 298.488 267.034 290.2 269.448C281.911 271.862 280.305 283.122 290.932 284.066C301.56 285.01 299.278 277.237 308.528 278.325C317.778 279.413 320.777 262.759 308.05 262.388Z" fill="white" stroke="#1B1B1B" stroke-width="0.84" stroke-linecap="round" stroke-linejoin="round"/>
<path d="M280.033 312.798C271.318 312.544 270.471 317.445 262.183 319.859C253.894 322.273 252.288 333.532 262.915 334.476C273.543 335.42 271.261 327.647 280.511 328.735C289.761 329.823 292.76 313.169 280.033 312.798Z" fill="white" stroke="#1B1B1B" stroke-width="0.84" stroke-linecap="round" stroke-linejoin="round"/>
</g>
<path d="M260.747 269.026C291.128 242.339 325.34 289.094 296.666 315.375C296.666 315.375 327.019 305.907 327.31 323.672H234.113" stroke="#1B1B1B" stroke-width="0.84" stroke-linecap="round" stroke-linejoin="round"/>
<ellipse cx="328.801" cy="252.294" rx="5.96522" ry="7.1038" transform="rotate(-0.265 328.801 252.294)" fill="white" stroke="#1B1B1B" stroke-width="0.84" stroke-linecap="round" stroke-linejoin="round"/>
<ellipse cx="331.776" cy="250.014" rx="1.90208" ry="2.26512" transform="rotate(-0.265 331.776 250.014)" fill="url(#paint0_linear_0_2119)"/>
<ellipse cx="350.835" cy="252.189" rx="5.96522" ry="7.1038" transform="rotate(-0.265 350.835 252.189)" fill="white" stroke="#1B1B1B" stroke-width="0.84" stroke-linecap="round" stroke-linejoin="round"/>
<ellipse cx="353.81" cy="249.91" rx="1.90208" ry="2.26512" transform="rotate(-0.265 353.81 249.91)" fill="url(#paint1_linear_0_2119)"/>
<path d="M303.881 255.292L337.239 263.112" stroke="#1B1B1B" stroke-width="0.84" stroke-linecap="round" stroke-linejoin="round"/>
<path d="M303.778 262.378L337.38 264.004" stroke="#1B1B1B" stroke-width="0.84" stroke-linecap="round" stroke-linejoin="round"/>
<path d="M303.825 268.666L337.368 265.199" stroke="#1B1B1B" stroke-width="0.84" stroke-linecap="round" stroke-linejoin="round"/>
<path d="M377.249 251.331L345.49 263.04" stroke="#1B1B1B" stroke-width="0.84" stroke-linecap="round" stroke-linejoin="round"/>
<path d="M376.44 258.367L345.246 263.943" stroke="#1B1B1B" stroke-width="0.84" stroke-linecap="round" stroke-linejoin="round"/>
<path d="M375.594 264.626L345.104 265.131" stroke="#1B1B1B" stroke-width="0.84" stroke-linecap="round" stroke-linejoin="round"/>
<path d="M339.819 260.336C341.566 258.671 344.204 259.852 342.602 262.949C341 266.045 338.516 261.578 339.819 260.336Z" fill="url(#paint2_linear_0_2119)"/>
<path d="M255.945 290.727C259.884 291.273 263.632 292.768 266.864 295.086" stroke="#1B1B1B" stroke-width="0.84" stroke-linecap="round" stroke-linejoin="round"/>
<path d="M346.386 282.259C344.596 284.811 341.947 286.634 338.924 287.396" stroke="#1B1B1B" stroke-width="0.84" stroke-linecap="round" stroke-linejoin="round"/>
<path d="M234.572 180.26C236.475 183.516 237.26 187.306 236.809 191.05" stroke="#1B1B1B" stroke-width="0.84" stroke-linecap="round" stroke-linejoin="round"/>
</g>
<defs>
<linearGradient id="paint0_linear_0_2119" x1="329.867" y1="252.271" x2="333.671" y2="252.283" gradientUnits="userSpaceOnUse">
<stop offset="0.0035" stop-color="#1A2457"/>
<stop offset="1" stop-color="#002A48"/>
</linearGradient>
<linearGradient id="paint1_linear_0_2119" x1="351.901" y1="252.166" x2="355.705" y2="252.179" gradientUnits="userSpaceOnUse">
<stop offset="0.0035" stop-color="#1A2457"/>
<stop offset="1" stop-color="#002A48"/>
</linearGradient>
<linearGradient id="paint2_linear_0_2119" x1="339.454" y1="264.022" x2="343.098" y2="264.022" gradientUnits="userSpaceOnUse">
<stop offset="0.0035" stop-color="#1A2457"/>
<stop offset="1" stop-color="#002A48"/>
</linearGradient>
</defs>
</svg>
