<svg width="480" height="360" viewBox="0 0 480 360" fill="none" xmlns="http://www.w3.org/2000/svg">
<mask id="mask0_0_1832" style="mask-type:alpha" maskUnits="userSpaceOnUse" x="0" y="0" width="480" height="360">
<rect width="480" height="360" fill="white"/>
</mask>
<g mask="url(#mask0_0_1832)">
<path d="M401 206.594C401.004 204.465 399.28 202.735 397.151 202.731H241.951C239.822 202.735 238.098 204.465 238.102 206.594L319.551 258.78L401 206.594Z" fill="white" stroke="#1B1B1B" stroke-width="0.84" stroke-linecap="round" stroke-linejoin="round"/>
<path d="M242.046 92.3516H242.046C234.833 92.3516 228.986 98.219 228.986 105.457V174.418H255.106V105.457C255.106 98.219 249.259 92.3516 242.046 92.3516Z" fill="white" stroke="#1B1B1B" stroke-width="0.84" stroke-linecap="round" stroke-linejoin="round"/>
<path d="M374.467 92.3516H277.851V92.3516H242.046C249.259 92.3516 255.106 98.219 255.106 105.457V115.167V274.608H387.527V105.457C387.527 98.219 381.68 92.3516 374.467 92.3516Z" fill="white"/>
<mask id="mask1_0_1832" style="mask-type:alpha" maskUnits="userSpaceOnUse" x="242" y="92" width="146" height="183">
<path fill-rule="evenodd" clip-rule="evenodd" d="M374.467 92.3521H277.851V92.3521H242.046C249.259 92.3521 255.106 98.2195 255.106 105.457V115.167V274.608H387.527V105.457C387.527 98.2195 381.68 92.3521 374.467 92.3521Z" fill="white"/>
</mask>
<g mask="url(#mask1_0_1832)">
<path d="M387.527 95.3198C380.7 276.338 228.987 225.052 228.987 225.052L255.107 296.451L393.805 327.394L430.808 156.306L387.527 95.3198Z" fill="white"/>
</g>
<path fill-rule="evenodd" clip-rule="evenodd" d="M374.467 92.3516H277.851V92.3516H242.046C249.259 92.3516 255.106 98.219 255.106 105.457V115.167V115.167V274.608H387.527V105.457C387.527 98.219 381.68 92.3516 374.467 92.3516Z" stroke="#1B1B1B" stroke-width="0.84" stroke-linecap="round" stroke-linejoin="round"/>
<path d="M268.166 274.608C267.379 274.608 268.915 274.742 268.166 274.608V274.608Z" fill="#1B1B1B" stroke="#1B1B1B" stroke-width="0.84" stroke-linecap="round" stroke-linejoin="round"/>
<g opacity="0.73">
<path fill-rule="evenodd" clip-rule="evenodd" d="M268.885 148.246C270.443 144.514 274.096 142.09 278.139 142.104C283.646 142.113 288.103 146.586 288.094 152.093C288.094 156.136 285.656 159.781 281.919 161.325C278.182 162.869 273.883 162.008 271.029 159.144C268.174 156.28 267.328 151.978 268.885 148.246ZM273.764 153.912C274.5 155.676 276.227 156.823 278.139 156.816C279.39 156.814 280.588 156.315 281.471 155.429C282.354 154.544 282.848 153.343 282.846 152.093C282.846 150.181 281.693 148.458 279.926 147.727C278.159 146.997 276.126 147.404 274.777 148.759C273.427 150.113 273.027 152.147 273.764 153.912Z" fill="white"/>
<path d="M278.139 142.104L278.138 142.524L278.138 142.524L278.139 142.104ZM268.885 148.246L269.273 148.408L268.885 148.246ZM288.094 152.093L287.674 152.092V152.093L288.094 152.093ZM281.919 161.325L282.079 161.713H282.079L281.919 161.325ZM271.029 159.144L270.731 159.441V159.441L271.029 159.144ZM278.139 156.816L278.138 156.396L278.138 156.396L278.139 156.816ZM273.764 153.912L273.376 154.074L273.764 153.912ZM282.846 152.093L282.426 152.093L282.426 152.094L282.846 152.093ZM279.926 147.727L280.087 147.339L279.926 147.727ZM274.777 148.759L275.074 149.055L274.777 148.759ZM278.141 141.684C273.927 141.669 270.12 144.196 268.498 148.084L269.273 148.408C270.765 144.833 274.264 142.51 278.138 142.524L278.141 141.684ZM288.514 152.094C288.524 146.354 283.879 141.694 278.14 141.684L278.138 142.524C283.414 142.533 287.683 146.817 287.674 152.092L288.514 152.094ZM282.079 161.713C285.974 160.104 288.514 156.306 288.514 152.093L287.674 152.093C287.674 155.966 285.339 159.458 281.759 160.937L282.079 161.713ZM270.731 159.441C273.705 162.425 278.185 163.322 282.079 161.713L281.759 160.937C278.179 162.416 274.06 161.591 271.326 158.848L270.731 159.441ZM268.498 148.084C266.875 151.973 267.757 156.456 270.731 159.441L271.326 158.848C268.592 156.104 267.781 151.983 269.273 148.408L268.498 148.084ZM278.138 156.396C276.396 156.402 274.822 155.358 274.151 153.75L273.376 154.074C274.178 155.995 276.059 157.244 278.141 157.236L278.138 156.396ZM281.173 155.133C280.369 155.94 279.278 156.394 278.138 156.396L278.14 157.236C279.502 157.234 280.807 156.691 281.768 155.726L281.173 155.133ZM282.426 152.094C282.428 153.233 281.977 154.326 281.173 155.133L281.768 155.726C282.73 154.761 283.268 153.454 283.266 152.092L282.426 152.094ZM279.766 148.116C281.376 148.781 282.426 150.351 282.426 152.093L283.266 152.093C283.266 150.011 282.011 148.134 280.087 147.339L279.766 148.116ZM275.074 149.055C276.304 147.821 278.156 147.45 279.766 148.116L280.087 147.339C278.163 146.544 275.949 146.988 274.479 148.462L275.074 149.055ZM274.151 153.75C273.48 152.143 273.845 150.289 275.074 149.055L274.479 148.462C273.01 149.937 272.574 152.152 273.376 154.074L274.151 153.75Z" fill="#1B1B1B"/>
<rect x="292.794" y="145.135" width="82.678" height="5.57334" rx="0.918552" fill="white" stroke="#1B1B1B" stroke-width="0.84" stroke-linecap="round" stroke-linejoin="round"/>
<rect x="292.794" y="153.562" width="30.2244" height="5.48911" rx="0.904668" fill="white" stroke="#1B1B1B" stroke-width="0.84" stroke-linecap="round" stroke-linejoin="round"/>
<rect x="326.345" y="153.562" width="30.2244" height="5.48911" rx="0.904668" fill="white" stroke="#1B1B1B" stroke-width="0.84" stroke-linecap="round" stroke-linejoin="round"/>
</g>
<g opacity="0.73">
<path fill-rule="evenodd" clip-rule="evenodd" d="M268.885 221.205C270.443 217.473 274.096 215.048 278.139 215.062C283.646 215.072 288.103 219.544 288.094 225.051C288.094 229.095 285.656 232.739 281.919 234.284C278.182 235.828 273.883 234.967 271.029 232.103C268.174 229.238 267.328 224.936 268.885 221.205ZM273.764 226.87C274.5 228.635 276.227 229.781 278.139 229.775C279.39 229.773 280.588 229.274 281.471 228.388C282.354 227.502 282.848 226.302 282.846 225.051C282.846 223.139 281.693 221.416 279.926 220.686C278.159 219.956 276.126 220.363 274.777 221.717C273.427 223.072 273.027 225.106 273.764 226.87Z" fill="white"/>
<path d="M278.139 215.062L278.138 215.482L278.138 215.482L278.139 215.062ZM268.885 221.205L269.273 221.366L268.885 221.205ZM288.094 225.051L287.674 225.051V225.051L288.094 225.051ZM281.919 234.284L282.079 234.672H282.079L281.919 234.284ZM271.029 232.103L270.731 232.399V232.399L271.029 232.103ZM278.139 229.775L278.138 229.355L278.138 229.355L278.139 229.775ZM282.846 225.051L282.426 225.051L282.426 225.052L282.846 225.051ZM279.926 220.686L280.087 220.298L279.926 220.686ZM278.141 214.642C273.927 214.627 270.12 217.154 268.498 221.043L269.273 221.366C270.765 217.792 274.264 215.469 278.138 215.482L278.141 214.642ZM288.514 225.052C288.524 219.313 283.879 214.652 278.14 214.642L278.138 215.482C283.414 215.491 287.683 219.775 287.674 225.051L288.514 225.052ZM282.079 234.672C285.974 233.063 288.514 229.265 288.514 225.051L287.674 225.051C287.674 228.925 285.339 232.416 281.759 233.895L282.079 234.672ZM270.731 232.399C273.705 235.384 278.185 236.281 282.079 234.672L281.759 233.895C278.179 235.375 274.06 234.55 271.326 231.806L270.731 232.399ZM268.498 221.043C266.875 224.931 267.757 229.415 270.731 232.399L271.326 231.806C268.592 229.062 267.781 224.941 269.273 221.366L268.498 221.043ZM278.138 229.355C276.396 229.361 274.822 228.316 274.151 226.709L273.376 227.032C274.178 228.953 276.059 230.202 278.141 230.195L278.138 229.355ZM281.173 228.091C280.369 228.898 279.278 229.353 278.138 229.355L278.14 230.195C279.502 230.192 280.807 229.649 281.768 228.684L281.173 228.091ZM282.426 225.052C282.428 226.191 281.977 227.285 281.173 228.091L281.768 228.684C282.73 227.72 283.268 226.413 283.266 225.051L282.426 225.052ZM279.766 221.074C281.376 221.739 282.426 223.309 282.426 225.051L283.266 225.051C283.266 222.969 282.011 221.093 280.087 220.298L279.766 221.074ZM275.074 222.014C276.304 220.78 278.156 220.409 279.766 221.074L280.087 220.298C278.163 219.503 275.949 219.946 274.479 221.421L275.074 222.014ZM274.151 226.709C273.48 225.101 273.845 223.248 275.074 222.014L274.479 221.421C273.01 222.896 272.574 225.111 273.376 227.032L274.151 226.709Z" fill="#1B1B1B"/>
<rect x="292.794" y="218.093" width="82.678" height="5.57334" rx="0.918552" fill="white" stroke="#1B1B1B" stroke-width="0.84" stroke-linecap="round" stroke-linejoin="round"/>
<rect x="292.794" y="226.521" width="30.2244" height="5.48911" rx="0.904668" fill="white" stroke="#1B1B1B" stroke-width="0.84" stroke-linecap="round" stroke-linejoin="round"/>
<rect x="326.345" y="226.521" width="30.2244" height="5.48911" rx="0.904668" fill="white" stroke="#1B1B1B" stroke-width="0.84" stroke-linecap="round" stroke-linejoin="round"/>
</g>
<rect x="307.115" y="112.828" width="29.4269" height="5.68916" rx="0.937644" fill="white" stroke="#1B1B1B" stroke-width="0.84" stroke-linecap="round" stroke-linejoin="round"/>
<rect x="297.126" y="124.071" width="49.4047" height="3.25094" rx="0.5358" fill="white" stroke="#1B1B1B" stroke-width="0.84" stroke-linecap="round" stroke-linejoin="round"/>
<path fill-rule="evenodd" clip-rule="evenodd" d="M268.885 184.726C270.443 180.994 274.096 178.569 278.139 178.583C283.646 178.593 288.103 183.065 288.094 188.572C288.094 192.616 285.656 196.26 281.919 197.805C278.182 199.349 273.883 198.488 271.029 195.624C268.174 192.759 267.328 188.457 268.885 184.726ZM273.764 190.391C274.5 192.156 276.227 193.302 278.139 193.296C279.39 193.294 280.588 192.795 281.471 191.909C282.354 191.023 282.848 189.823 282.846 188.572C282.846 186.66 281.693 184.937 279.926 184.207C278.159 183.477 276.126 183.884 274.777 185.238C273.427 186.593 273.027 188.627 273.764 190.391Z" fill="white"/>
<path d="M278.139 178.583L278.138 179.003L278.138 179.003L278.139 178.583ZM268.885 184.726L269.273 184.887L268.885 184.726ZM288.094 188.572L287.674 188.572V188.572L288.094 188.572ZM281.919 197.805L282.079 198.193H282.079L281.919 197.805ZM271.029 195.624L270.731 195.92V195.92L271.029 195.624ZM278.139 193.296L278.138 192.876L278.138 192.876L278.139 193.296ZM282.846 188.572L282.426 188.572L282.426 188.573L282.846 188.572ZM279.926 184.207L280.087 183.819L279.926 184.207ZM278.141 178.163C273.927 178.148 270.12 180.675 268.498 184.564L269.273 184.887C270.765 181.313 274.264 178.99 278.138 179.003L278.141 178.163ZM288.514 188.573C288.524 182.834 283.879 178.173 278.14 178.163L278.138 179.003C283.414 179.012 287.683 183.296 287.674 188.572L288.514 188.573ZM282.079 198.193C285.974 196.584 288.514 192.786 288.514 188.572L287.674 188.572C287.674 192.446 285.339 195.937 281.759 197.416L282.079 198.193ZM270.731 195.92C273.705 198.905 278.185 199.802 282.079 198.193L281.759 197.416C278.179 198.896 274.06 198.071 271.326 195.327L270.731 195.92ZM268.498 184.564C266.875 188.452 267.757 192.936 270.731 195.92L271.326 195.327C268.592 192.583 267.781 188.462 269.273 184.887L268.498 184.564ZM278.138 192.876C276.396 192.882 274.822 191.837 274.151 190.23L273.376 190.553C274.178 192.474 276.059 193.723 278.141 193.716L278.138 192.876ZM281.173 191.612C280.369 192.419 279.278 192.874 278.138 192.876L278.14 193.716C279.502 193.713 280.807 193.17 281.768 192.205L281.173 191.612ZM282.426 188.573C282.428 189.712 281.977 190.806 281.173 191.612L281.768 192.205C282.73 191.241 283.268 189.934 283.266 188.572L282.426 188.573ZM279.766 184.595C281.376 185.26 282.426 186.83 282.426 188.572L283.266 188.572C283.266 186.49 282.011 184.614 280.087 183.819L279.766 184.595ZM275.074 185.535C276.304 184.301 278.156 183.93 279.766 184.595L280.087 183.819C278.163 183.024 275.949 183.467 274.479 184.942L275.074 185.535ZM274.151 190.23C273.48 188.622 273.845 186.769 275.074 185.535L274.479 184.942C273.01 186.417 272.574 188.632 273.376 190.553L274.151 190.23Z" fill="#1B1B1B"/>
<rect x="292.794" y="181.614" width="82.678" height="5.57334" rx="0.918552" fill="white" stroke="#1B1B1B" stroke-width="0.84" stroke-linecap="round" stroke-linejoin="round"/>
<rect x="292.794" y="190.041" width="30.2244" height="5.48911" rx="0.904668" fill="white" stroke="#1B1B1B" stroke-width="0.84" stroke-linecap="round" stroke-linejoin="round"/>
<rect x="326.345" y="190.041" width="30.2244" height="5.48911" rx="0.904668" fill="white" stroke="#1B1B1B" stroke-width="0.84" stroke-linecap="round" stroke-linejoin="round"/>
<path d="M319.551 258.78L238.102 206.594V304.919C238.093 310.383 242.514 314.819 247.977 314.829H391.125C396.588 314.819 401.01 310.383 401 304.919V206.594L319.551 258.78Z" fill="white"/>
<path fill-rule="evenodd" clip-rule="evenodd" d="M319.551 258.78L238.102 206.594V304.919C238.093 310.383 242.514 314.819 247.977 314.829H391.125C396.588 314.819 401.01 310.383 401 304.919V206.594L319.551 258.78Z" stroke="#1B1B1B" stroke-width="0.84" stroke-linecap="round" stroke-linejoin="round"/>
<path d="M284.744 108.896L280.18 115.13" stroke="#1B1B1B" stroke-width="0.84" stroke-linecap="round" stroke-linejoin="round"/>
<path d="M371.159 265.738C366.237 271.208 360.484 275.868 354.112 279.547" stroke="#1B1B1B" stroke-width="0.84" stroke-linecap="round" stroke-linejoin="round"/>
<rect x="206.304" y="199.523" width="22.5136" height="49.4927" fill="white"/>
<mask id="mask2_0_1832" style="mask-type:alpha" maskUnits="userSpaceOnUse" x="206" y="199" width="23" height="51">
<rect x="206.304" y="199.523" width="22.5136" height="49.4927" fill="white"/>
</mask>
<g mask="url(#mask2_0_1832)">
<path d="M233.422 207.05C227.512 224.326 208.754 210.585 208.24 222.779C207.726 234.973 225.836 237.111 235.925 234.973C246.013 232.836 228.817 254.754 228.817 254.754L189.738 243.15L198.989 205.76L215.692 206.534" fill="white"/>
</g>
<rect x="206.304" y="199.523" width="22.5136" height="49.4927" stroke="#1B1B1B" stroke-width="0.84" stroke-linecap="round" stroke-linejoin="round"/>
<path d="M217.56 314.829C206.473 314.829 197.558 305.673 197.816 294.55L199.196 234.974H235.925L237.305 294.55C237.563 305.673 228.648 314.829 217.56 314.829Z" fill="white"/>
<mask id="mask3_0_1832" style="mask-type:alpha" maskUnits="userSpaceOnUse" x="197" y="234" width="41" height="81">
<path fill-rule="evenodd" clip-rule="evenodd" d="M217.56 314.829C206.473 314.829 197.558 305.672 197.816 294.549L199.196 234.973H235.925L237.305 294.549C237.563 305.672 228.648 314.829 217.56 314.829Z" fill="white"/>
</mask>
<g mask="url(#mask3_0_1832)">
<path d="M234.193 226.647C236.986 318.393 210.809 301.896 193.335 304.24C175.862 306.584 217.56 334.948 217.56 334.948L256.549 339.59L262.411 266.873L241.645 238.353" fill="white"/>
</g>
<path fill-rule="evenodd" clip-rule="evenodd" d="M217.56 314.829V314.829C206.473 314.829 197.558 305.673 197.816 294.55L199.196 234.974H235.925L237.305 294.55C237.563 305.673 228.648 314.829 217.56 314.829Z" stroke="#1B1B1B" stroke-width="0.84" stroke-linecap="round" stroke-linejoin="round"/>
<path fill-rule="evenodd" clip-rule="evenodd" d="M155.312 154.066C155.312 119.816 182.981 92.0508 217.112 92.0508C251.243 92.0508 278.912 119.816 278.912 154.066C278.912 188.316 251.243 216.081 217.112 216.081C182.981 216.081 155.312 188.316 155.312 154.066ZM171.813 154.066C171.813 179.171 192.094 199.523 217.112 199.523C242.13 199.523 262.412 179.171 262.412 154.066C262.412 128.96 242.13 108.608 217.112 108.608C192.094 108.608 171.813 128.96 171.813 154.066Z" fill="#1B1B1B"/>
<path d="M278.912 154.066H279.332H278.912ZM217.112 91.6308C182.748 91.6308 154.893 119.585 154.893 154.066H155.732C155.732 120.047 183.214 92.4708 217.112 92.4708V91.6308ZM154.893 154.066C154.893 188.546 182.748 216.501 217.112 216.501V215.661C183.214 215.661 155.732 188.085 155.732 154.066H154.893ZM217.112 216.501C251.476 216.501 279.332 188.546 279.332 154.066H278.492C278.492 188.085 251.01 215.661 217.112 215.661V216.501ZM279.332 154.066C279.332 119.585 251.477 91.6308 217.112 91.6308V92.4708C251.01 92.4708 278.492 120.047 278.492 154.066H279.332ZM217.112 199.103C192.327 199.103 172.233 178.941 172.233 154.066H171.393C171.393 179.402 191.86 199.943 217.112 199.943V199.103ZM172.233 154.066C172.233 129.191 192.327 109.028 217.112 109.028V108.188C191.86 108.188 171.393 128.73 171.393 154.066H172.233ZM217.112 109.028C241.897 109.028 261.992 129.191 261.992 154.066H262.832C262.832 128.73 242.364 108.188 217.112 108.188V109.028ZM261.992 154.066C261.992 178.941 241.897 199.103 217.112 199.103V199.943C242.364 199.943 262.832 179.402 262.832 154.066H261.992Z" fill="#1B1B1B"/>
<path d="M190.963 107.182C188.305 110.02 185.185 112.385 181.734 114.177" stroke="#1B1B1B" stroke-width="0.84" stroke-linecap="round" stroke-linejoin="round"/>
<path d="M223.351 273.511L221.038 276.605" stroke="#1B1B1B" stroke-width="0.84" stroke-linecap="round" stroke-linejoin="round"/>
<rect x="54.0244" y="208.739" width="212.551" height="53.9642" rx="11.1229" fill="white"/>
<rect x="54.0244" y="208.739" width="212.551" height="53.9642" rx="11.1229" stroke="#1B1B1B" stroke-width="0.84" stroke-linecap="round" stroke-linejoin="round"/>
<g opacity="0.49">
<rect x="118.067" y="222.847" width="122.369" height="8.51472" rx="3.03156" fill="white" stroke="#1B1B1B" stroke-width="0.84" stroke-linecap="round" stroke-linejoin="round"/>
<rect x="118.067" y="235.722" width="44.734" height="8.38603" rx="3.03156" fill="white" stroke="#1B1B1B" stroke-width="0.84" stroke-linecap="round" stroke-linejoin="round"/>
<rect x="167.725" y="235.722" width="44.734" height="8.38603" rx="3.03156" fill="white" stroke="#1B1B1B" stroke-width="0.84" stroke-linecap="round" stroke-linejoin="round"/>
</g>
<path d="M86.5538 246.535C85.7284 246.535 84.9331 246.225 84.3265 245.665L73.1902 235.421C71.8481 234.19 71.756 232.105 72.9844 230.76C74.2128 229.416 76.2978 229.32 77.6449 230.545L86.5157 238.705L102.227 223.754C103.085 222.944 104.309 222.653 105.44 222.99C106.57 223.327 107.435 224.242 107.708 225.39C107.981 226.538 107.621 227.744 106.764 228.554L88.822 245.627C88.2109 246.21 87.3985 246.535 86.5538 246.535Z" fill="white" stroke="#1B1B1B" stroke-width="0.84" stroke-linecap="round" stroke-linejoin="round"/>
<path d="M83.9139 218.993L82.3721 220.54" stroke="#1B1B1B" stroke-width="0.84" stroke-linecap="round" stroke-linejoin="round"/>
<path d="M244.199 246.265C241.434 248.786 238.072 250.56 234.431 251.42" stroke="#1B1B1B" stroke-width="0.84" stroke-linecap="round" stroke-linejoin="round"/>
<path d="M94.3091 136.15C94.3091 136.15 95.845 107.776 107.025 103.44L111.006 121.936L111.087 119.789L97.7967 148.873" fill="white"/>
<path d="M94.3091 136.15C94.3091 136.15 95.845 107.776 107.025 103.44L111.006 121.936L111.087 119.789L97.7967 148.873" stroke="#1B1B1B" stroke-width="0.84" stroke-linecap="round" stroke-linejoin="round"/>
<path d="M171.471 167.162C171.471 167.162 174.516 178.674 179.563 177.861C184.61 177.048 193.066 179.71 193.066 179.71C193.066 179.71 195.442 178.792 191.96 176.274L196.262 177.241C196.262 177.241 198.364 176.443 195.545 175.016C195.545 175.016 199.247 175.953 203.81 173.742C203.81 173.742 203.724 171.537 202.589 171.89C201.453 172.243 186.018 170.859 184.786 169.402C183.553 167.945 180.269 162.918 180.269 162.918L171.471 167.162Z" fill="white"/>
<mask id="mask4_0_1832" style="mask-type:alpha" maskUnits="userSpaceOnUse" x="171" y="162" width="33" height="18">
<path fill-rule="evenodd" clip-rule="evenodd" d="M171.471 167.162C171.471 167.162 174.516 178.674 179.563 177.861C184.61 177.048 193.066 179.71 193.066 179.71C193.066 179.71 195.442 178.792 191.96 176.274L196.262 177.241C196.262 177.241 198.364 176.443 195.545 175.016C195.545 175.016 199.247 175.953 203.81 173.742C203.81 173.742 203.724 171.537 202.589 171.89C201.453 172.243 186.018 170.859 184.786 169.402C183.553 167.945 180.269 162.918 180.269 162.918L171.471 167.162Z" fill="white"/>
</mask>
<g mask="url(#mask4_0_1832)">
<path d="M167.567 171.314C184.775 173.162 186.209 165.931 186.209 165.931L176.888 162.918L165.109 168.865" fill="white"/>
</g>
<path fill-rule="evenodd" clip-rule="evenodd" d="M171.471 167.162C171.471 167.162 174.516 178.674 179.563 177.861C184.61 177.048 193.066 179.71 193.066 179.71C193.066 179.71 195.442 178.792 191.96 176.274L196.262 177.241C196.262 177.241 198.364 176.443 195.545 175.016C195.545 175.016 199.247 175.953 203.81 173.742C203.81 173.742 203.724 171.537 202.589 171.89C201.453 172.243 186.018 170.859 184.786 169.402C183.553 167.945 180.269 162.918 180.269 162.918L171.471 167.162Z" stroke="#1B1B1B" stroke-width="0.84" stroke-linecap="round" stroke-linejoin="round"/>
<path d="M159.95 270.197L171.515 308.885L181.957 304.671L172.628 262.146L159.95 270.197Z" fill="white"/>
<mask id="mask5_0_1832" style="mask-type:alpha" maskUnits="userSpaceOnUse" x="159" y="262" width="23" height="47">
<path fill-rule="evenodd" clip-rule="evenodd" d="M159.95 270.197L171.515 308.885L181.957 304.671L172.628 262.146L159.95 270.197Z" fill="white"/>
</mask>
<g mask="url(#mask5_0_1832)">
<path d="M158.821 292.899C169.035 296.185 178.807 284.72 178.807 284.72L164 283.747L158.821 289.086" fill="white"/>
</g>
<path fill-rule="evenodd" clip-rule="evenodd" d="M159.95 270.197L171.515 308.885L181.957 304.671L172.628 262.146L159.95 270.197V270.197Z" stroke="#1B1B1B" stroke-width="0.84" stroke-linecap="round" stroke-linejoin="round"/>
<path d="M128.155 282.908C128.002 283.545 130.118 306.281 130.118 306.281L143.292 304.9L140.526 272.709L128.155 282.908Z" fill="white"/>
<mask id="mask6_0_1832" style="mask-type:alpha" maskUnits="userSpaceOnUse" x="128" y="272" width="16" height="35">
<path fill-rule="evenodd" clip-rule="evenodd" d="M128.155 282.908C128.002 283.545 130.118 306.281 130.118 306.281L143.292 304.9L140.526 272.709L128.155 282.908Z" fill="white"/>
</mask>
<g mask="url(#mask6_0_1832)">
<path d="M129.142 288.02C119.313 290.908 139.356 295.189 144.174 294.094C148.992 292.999 148.221 286.427 148.221 286.427L134.827 286.228" fill="white"/>
</g>
<path fill-rule="evenodd" clip-rule="evenodd" d="M128.155 282.908C128.002 283.545 130.118 306.281 130.118 306.281L143.292 304.9L140.526 272.709L128.155 282.908Z" stroke="#1B1B1B" stroke-width="0.84" stroke-linecap="round" stroke-linejoin="round"/>
<path d="M114.506 153.011L127.245 290.699C127.245 290.699 133.334 294.404 147.464 288.48L138.253 191.09L142.72 139.696L114.506 153.011Z" fill="white"/>
<path fill-rule="evenodd" clip-rule="evenodd" d="M114.506 153.011L127.245 290.699C127.245 290.699 133.334 294.404 147.464 288.48L138.253 191.09L142.72 139.696L114.506 153.011Z" stroke="#1B1B1B" stroke-width="0.84" stroke-linecap="round" stroke-linejoin="round"/>
<path d="M119.131 178.612L117.093 174.758C121.153 172.596 120.288 168.576 118.381 162.212C117.174 158.187 116.035 154.386 117.78 151.592C118.694 150.131 120.238 149.217 122.38 148.873L123.065 153.18C122.485 153.273 121.735 153.475 121.463 153.909C120.765 155.026 121.751 158.313 122.543 160.955C124.271 166.719 126.637 174.614 119.131 178.612Z" fill="#1B1B1B"/>
<mask id="mask7_0_1832" style="mask-type:alpha" maskUnits="userSpaceOnUse" x="116" y="148" width="9" height="31">
<path fill-rule="evenodd" clip-rule="evenodd" d="M119.131 178.612L117.093 174.759C121.153 172.597 120.288 168.577 118.381 162.212C117.174 158.187 116.035 154.386 117.78 151.592C118.694 150.131 120.238 149.217 122.38 148.874L123.065 153.181C122.485 153.274 121.735 153.476 121.463 153.91C120.765 155.026 121.751 158.314 122.543 160.955C124.271 166.72 126.637 174.614 119.131 178.612Z" fill="white"/>
</mask>
<g mask="url(#mask7_0_1832)">
<path d="M118.466 171.384L122.027 179.097L115.623 181.633L113.383 174.025L116.534 172.502" fill="white"/>
<path d="M118.466 171.384L122.027 179.097L115.623 181.633L113.383 174.025L116.534 172.502" stroke="#1B1B1B" stroke-width="0.84" stroke-linecap="round" stroke-linejoin="round"/>
</g>
<path fill-rule="evenodd" clip-rule="evenodd" d="M119.131 178.612L117.093 174.758C121.153 172.596 120.288 168.576 118.381 162.212C117.174 158.187 116.035 154.386 117.78 151.592C118.694 150.131 120.238 149.217 122.38 148.873L123.065 153.18C122.485 153.273 121.735 153.475 121.463 153.909C120.765 155.026 121.751 158.313 122.543 160.955C124.271 166.719 126.637 174.614 119.131 178.612Z" stroke="#1B1B1B" stroke-width="0.84" stroke-linecap="round" stroke-linejoin="round"/>
<path d="M130.985 173.24L162.808 288.374C162.808 288.374 165.223 291.843 181.281 283.471L150.133 143.096L123.816 147.304" fill="white"/>
<path d="M130.985 173.24L162.808 288.374C162.808 288.374 165.223 291.843 181.281 283.471L150.133 143.096L123.816 147.304" stroke="#1B1B1B" stroke-width="0.84" stroke-linecap="round" stroke-linejoin="round"/>
<path d="M105.901 122.556C106.244 130.89 107.752 140.883 111.993 150.265C111.993 150.265 110.114 155.307 111.936 156.237C123.042 161.908 144.849 160.749 152.841 156.498C154.55 155.589 154.869 153.231 153.491 151.774L152.692 150.93C152.692 150.93 158.894 116.696 149.803 103.44C149.803 103.44 134.606 94.1512 106.631 103.604" fill="white"/>
<mask id="mask8_0_1832" style="mask-type:alpha" maskUnits="userSpaceOnUse" x="105" y="99" width="50" height="62">
<path fill-rule="evenodd" clip-rule="evenodd" d="M105.901 122.557C106.244 130.891 107.752 140.884 111.993 150.266C111.993 150.266 110.114 155.307 111.936 156.238C123.042 161.909 144.849 160.749 152.841 156.499C154.55 155.59 154.869 153.231 153.491 151.775L152.692 150.931C152.692 150.931 158.894 116.697 149.803 103.44C149.803 103.44 134.606 94.1517 106.631 103.605" fill="white"/>
</mask>
<g mask="url(#mask8_0_1832)">
<ellipse cx="127.977" cy="102.413" rx="12.2411" ry="9.61126" transform="rotate(-24.8803 127.977 102.413)" fill="white" stroke="#1B1B1B" stroke-width="0.84" stroke-linecap="round" stroke-linejoin="round"/>
<ellipse cx="127.926" cy="100.752" rx="10.7495" ry="9.35934" transform="rotate(-26.9003 127.926 100.752)" fill="white" stroke="#1B1B1B" stroke-width="0.84" stroke-linecap="round" stroke-linejoin="round"/>
<path d="M139.544 117.574C150.257 143.944 147.844 149.789 135.413 149.086C134.601 149.04 134.542 148.951 135.413 149.086C139.802 149.764 149.711 148.374 153.491 151.775C157.271 155.176 163.243 137.874 163.243 137.874L160.22 131.777" fill="white"/>
</g>
<path d="M105.901 122.556C106.244 130.89 107.752 140.883 111.993 150.265C111.993 150.265 110.114 155.307 111.936 156.237C123.042 161.908 144.849 160.749 152.841 156.498C154.55 155.589 154.869 153.231 153.491 151.774L152.692 150.93C152.692 150.93 158.894 116.696 149.803 103.44C149.803 103.44 134.606 94.1512 106.631 103.604" stroke="#1B1B1B" stroke-width="0.84" stroke-linecap="round" stroke-linejoin="round"/>
<path d="M139.545 117.573L171.788 171.314C175.77 171.053 182.95 168.975 184.763 163.471L154.104 106.972C151.474 103.483 146.345 101.626 144.083 101.159" fill="white"/>
<path d="M139.545 117.573L171.788 171.314C175.77 171.053 182.95 168.975 184.763 163.471L154.104 106.972C151.474 103.483 146.345 101.626 144.083 101.159" stroke="#1B1B1B" stroke-width="0.84" stroke-linecap="round" stroke-linejoin="round"/>
<path d="M142.502 312.868H103.023C103.023 312.868 100.238 307.313 117.463 307.556C130.258 307.736 128.597 297.226 128.597 297.226C128.597 297.226 133.558 301.435 143.695 301.181L145.218 309.611C145.372 310.418 145.156 311.251 144.63 311.882C144.104 312.512 143.323 312.874 142.502 312.868Z" fill="#1B1B1B" stroke="#1B1B1B" stroke-width="0.84" stroke-linecap="round" stroke-linejoin="round"/>
<path d="M169.578 302.702C169.578 302.702 179.048 299.568 180.874 296.227C180.874 296.227 183.232 312.418 196.301 310.176C210.53 307.736 210.225 314.829 210.225 314.829H174.961C173.147 314.819 171.593 313.525 171.255 311.742L169.578 302.702Z" fill="#1B1B1B" stroke="#1B1B1B" stroke-width="0.84" stroke-linecap="round" stroke-linejoin="round"/>
<path d="M96.8007 105.527C96.8007 105.527 97.8861 99.2864 98.7184 95.8823C99.5508 92.4781 88.511 91.1543 88.511 91.1543L87.7715 108.553L96.8007 105.527Z" fill="white" stroke="#1B1B1B" stroke-width="0.84" stroke-linecap="round" stroke-linejoin="round"/>
<path d="M90.5191 102.197H86.7533C86.284 102.193 85.846 101.961 85.5793 101.575C85.3126 101.188 85.2504 100.697 85.4127 100.256L91.6391 84.083H96.8378L91.8089 101.232C91.6427 101.806 91.1163 102.2 90.5191 102.197Z" fill="#1B1B1B" stroke="#1B1B1B" stroke-width="0.84" stroke-linecap="round" stroke-linejoin="round"/>
<path d="M86.3926 98.4962C86.3926 98.4962 92.5767 102.799 92.4184 99.2054C92.4184 99.2054 93.9673 98.7326 93.1767 96.9359C93.1767 96.9359 94.3738 95.7067 93.7684 94.3355C93.7684 94.3355 89.1747 88.3783 87.7265 88.5674C86.2783 88.7565 86.3692 91.6879 86.9569 92.4916C86.9569 92.4916 85.0118 94.8083 86.312 95.8958C86.312 95.8958 84.8172 97.5262 86.3926 98.4962Z" fill="white" stroke="#1B1B1B" stroke-width="0.84" stroke-linecap="round" stroke-linejoin="round"/>
<path d="M95.2851 94.3795C94.9909 93.2205 94.7455 91.4121 91.8372 89.2945C91.8372 89.2945 90.8961 87.6449 91.7168 86.7213C92.5374 85.7978 97.6393 90.1935 98.6871 91.2709C99.7349 92.3484 98.8594 94.9349 98.6331 95.8885" fill="white"/>
<path d="M95.2851 94.3795C94.9909 93.2205 94.7455 91.4121 91.8372 89.2945C91.8372 89.2945 90.8961 87.6449 91.7168 86.7213C92.5374 85.7978 97.6393 90.1935 98.6871 91.2709C99.7349 92.3484 98.8594 94.9349 98.6331 95.8885" stroke="#1B1B1B" stroke-width="0.84" stroke-linecap="round" stroke-linejoin="round"/>
<path d="M98.4473 146.84C97.5493 150.858 94.8287 153.772 91.5146 153.915L91.4253 153.919C86.6156 154.125 82.6896 148.488 83.2176 142.132L86.2534 105.596C92.3773 102.846 99.188 102.596 99.188 102.596L98.8814 132.451" fill="white"/>
<path d="M98.4473 146.84C97.5493 150.858 94.8287 153.772 91.5146 153.915L91.4253 153.919C86.6156 154.125 82.6896 148.488 83.2176 142.132L86.2534 105.596C92.3773 102.846 99.188 102.596 99.188 102.596L98.8814 132.451" stroke="#1B1B1B" stroke-width="0.84" stroke-linecap="round" stroke-linejoin="round"/>
<path d="M78.7223 64.5322C78.7223 64.5322 83.9948 72.7329 96.79 73.5589C99.0422 73.7217 100.829 75.5213 100.975 77.7745C101.06 79.2514 101.028 80.929 100.699 82.4727C100.253 84.6723 98.1607 86.1363 95.941 85.8027C91.7816 85.1773 81.7279 84.9321 74.4868 88.5633L78.7223 64.5322Z" fill="#1B1B1B"/>
<mask id="mask9_0_1832" style="mask-type:alpha" maskUnits="userSpaceOnUse" x="74" y="64" width="28" height="25">
<path fill-rule="evenodd" clip-rule="evenodd" d="M78.7223 64.5317C78.7223 64.5317 83.9948 72.7324 96.79 73.5585C99.0422 73.7212 100.829 75.5208 100.975 77.7741C101.06 79.2509 101.028 80.9285 100.699 82.4722C100.253 84.6719 98.1607 86.1358 95.941 85.8022C91.7816 85.1768 81.7279 84.9316 74.4868 88.5628L78.7223 64.5317Z" fill="white"/>
</mask>
<g mask="url(#mask9_0_1832)">
<path d="M96.8373 69.8805C102.698 86.8061 88.1142 83.0028 77.1778 86.5949C66.2413 90.187 68.3613 93.14 68.3613 93.14L96.8373 93.0988L104.401 81.5697L98.7629 69.3003" fill="white"/>
</g>
<path fill-rule="evenodd" clip-rule="evenodd" d="M78.7223 64.5322C78.7223 64.5322 83.9948 72.7329 96.79 73.5589C99.0422 73.7217 100.829 75.5213 100.975 77.7745C101.06 79.2514 101.028 80.929 100.699 82.4727C100.253 84.6723 98.1607 86.1363 95.941 85.8027C91.7816 85.1773 81.7279 84.9321 74.4868 88.5633L78.7223 64.5322Z" stroke="#1B1B1B" stroke-width="0.84" stroke-linecap="round" stroke-linejoin="round"/>
<ellipse cx="75.8111" cy="76.2646" rx="12.7612" ry="4.64382" transform="rotate(-81.509 75.8111 76.2646)" fill="url(#paint0_linear_0_1832)"/>
<ellipse cx="75.8114" cy="76.271" rx="12.4393" ry="4.52668" transform="rotate(-81.5061 75.8114 76.271)" fill="#1B1B1B"/>
<mask id="mask10_0_1832" style="mask-type:alpha" maskUnits="userSpaceOnUse" x="70" y="63" width="11" height="26">
<ellipse cx="75.8114" cy="76.2715" rx="12.4393" ry="4.52668" transform="rotate(-81.5061 75.8114 76.2715)" fill="white"/>
</mask>
<g mask="url(#mask10_0_1832)">
<path d="M75.8109 61.3711C66.7234 91.7341 80.0213 84.9147 80.0213 84.9147C80.0213 84.9147 78.3832 93.1525 77.7086 93.14C77.034 93.1274 67.7834 88.8949 67.7834 88.8949L67.1089 79.7436" fill="white"/>
</g>
<ellipse cx="75.8114" cy="76.271" rx="12.4393" ry="4.52668" transform="rotate(-81.5061 75.8114 76.271)" stroke="#1B1B1B" stroke-width="0.839973" stroke-linecap="round" stroke-linejoin="round"/>
<mask id="mask11_0_1832" style="mask-type:alpha" maskUnits="userSpaceOnUse" x="70" y="63" width="11" height="26">
<ellipse cx="75.5141" cy="76.2649" rx="12.4238" ry="4.25448" transform="rotate(-82.1639 75.5141 76.2649)" fill="white"/>
</mask>
<g mask="url(#mask11_0_1832)">
<ellipse cx="78.6113" cy="77.0571" rx="3.9278" ry="3.66716" transform="rotate(-78.7803 78.6113 77.0571)" fill="white" stroke="#1B1B1B" stroke-width="0.84" stroke-linecap="round" stroke-linejoin="round"/>
</g>
<path d="M134.027 101.2L129.429 86.8062L118.752 88.8792L120.426 102.056" fill="white"/>
<path d="M127.693 87.605C119.895 89.2706 123.11 98.6313 119.688 101.448C116.266 104.264 118.04 88.7774 118.04 88.7774L124.606 88.3924" fill="white"/>
<path d="M117.061 96.8649C123.099 96.8649 121.5 91.7722 121.5 91.7722L119.913 90.7407L117.382 93.9614L117.253 94.6" fill="white"/>
<path d="M134.027 101.2L129.429 86.8062L118.752 88.8792L120.426 102.056" stroke="#1B1B1B" stroke-width="0.84" stroke-linecap="round" stroke-linejoin="round"/>
<path d="M124.704 85.1457C106.436 77.4424 115.777 61.6703 120.833 67.1988C125.89 72.7274 129.093 74.5441 129.093 74.5441L124.704 85.1457Z" fill="#1B1B1B" stroke="#1B1B1B" stroke-width="0.84" stroke-linecap="round" stroke-linejoin="round"/>
<path d="M122.582 92.126C104.591 98.2443 114.594 73.561 119.927 72.068C125.598 70.4805 131.931 86.9921 131.931 86.9921" fill="white"/>
<mask id="mask12_0_1832" style="mask-type:alpha" maskUnits="userSpaceOnUse" x="112" y="71" width="20" height="23">
<path fill-rule="evenodd" clip-rule="evenodd" d="M122.582 92.1255C104.591 98.2438 114.594 73.5605 119.927 72.0675C125.598 70.48 131.931 86.9916 131.931 86.9916" fill="white"/>
</mask>
<g mask="url(#mask12_0_1832)">
<path d="M115.068 81.9155C114.643 81.7824 114.405 81.3304 114.537 80.905L114.94 79.6023C115.003 79.398 115.144 79.2271 115.333 79.1273C115.522 79.0275 115.743 79.007 115.947 79.0703C116.372 79.2035 116.609 79.6555 116.477 80.0809L116.075 81.3835C116.012 81.5878 115.871 81.7587 115.682 81.8585C115.493 81.9583 115.272 81.9789 115.068 81.9155Z" fill="#1B1B1B"/>
<path d="M120.913 83.2603C120.488 83.1271 120.251 82.6751 120.383 82.2497L120.785 80.947C120.848 80.7428 120.99 80.5719 121.179 80.472C121.368 80.3722 121.588 80.3517 121.793 80.415C122.218 80.5482 122.455 81.0002 122.323 81.4256L121.92 82.7282C121.857 82.9325 121.716 83.1034 121.527 83.2033C121.338 83.3031 121.117 83.3236 120.913 83.2603Z" fill="#1B1B1B"/>
<path d="M117.62 81.9917C117.124 83.6604 116.983 84.1536 116.983 84.1536C114.145 83.8586 116.584 86.5568 116.584 86.5568" fill="white"/>
<path d="M117.62 81.9917C117.124 83.6604 116.983 84.1536 116.983 84.1536C114.145 83.8586 116.584 86.5568 116.584 86.5568" stroke="#1B1B1B" stroke-width="0.84" stroke-linecap="round" stroke-linejoin="round"/>
<path d="M118.284 87.0942C118.1 87.6673 117.537 88.0308 116.939 87.9626L118.284 87.0942Z" fill="white"/>
<path d="M118.284 87.0942C118.1 87.6673 117.537 88.0308 116.939 87.9626" stroke="#1B1B1B" stroke-width="0.84" stroke-linecap="round" stroke-linejoin="round"/>
<path d="M116.317 77.193C114.607 77.1638 114.773 78.1563 115.842 78.2445C116.91 78.3328 117.435 77.2121 116.317 77.193Z" fill="#1B1B1B"/>
<path d="M122.327 78.5224C123.754 79.4698 123.196 80.1644 122.265 79.6305C121.335 79.0966 121.395 77.9034 122.327 78.5224Z" fill="#1B1B1B"/>
</g>
<path d="M122.582 92.126C104.591 98.2443 114.594 73.561 119.927 72.068C125.598 70.4805 131.931 86.9921 131.931 86.9921" stroke="#1B1B1B" stroke-width="0.84" stroke-linecap="round" stroke-linejoin="round"/>
<path d="M131.715 93.9618C131.715 93.9618 125.62 82.802 126.151 80.7177C126.151 80.7177 117.05 76.6308 120.833 67.1988C137.828 65.865 147.038 71.3464 143.538 87.2955C142.666 87.3236 141.82 87 141.19 86.3975C140.019 92.0085 134.121 90.1672 131.715 93.9618Z" fill="#1B1B1B" stroke="#1B1B1B" stroke-width="0.84" stroke-linecap="round" stroke-linejoin="round"/>
<path d="M125.555 82.4389C134.833 78.6771 136.758 88.2686 127.862 89.537L125.555 82.4389Z" fill="white"/>
<path d="M125.555 82.4389C134.833 78.6771 136.758 88.2686 127.862 89.537" stroke="#1B1B1B" stroke-width="0.84" stroke-linecap="round" stroke-linejoin="round"/>
<path d="M128.589 84.0913C128.781 84.1228 128.971 84.1672 129.157 84.2241C129.337 84.2985 129.5 84.468 129.482 84.6625C129.45 84.8111 129.364 84.9425 129.241 85.0315C128.948 85.2946 128.633 85.531 128.298 85.7378" stroke="#1B1B1B" stroke-width="0.84" stroke-linecap="round" stroke-linejoin="round"/>
<path d="M128.399 71.9121C128.15 72.833 128.301 73.8163 128.815 74.62C129.329 75.4238 130.158 75.9736 131.098 76.1341" stroke="#1B1B1B" stroke-width="0.84" stroke-linecap="round" stroke-linejoin="round"/>
<path d="M138.111 86.7544C137.509 87.7391 136.594 88.4929 135.513 88.8946" stroke="#1B1B1B" stroke-width="0.84" stroke-linecap="round" stroke-linejoin="round"/>
<path d="M127.513 104.503C127.723 105.053 128.297 105.374 128.875 105.264" stroke="#1B1B1B" stroke-width="0.84" stroke-linecap="round" stroke-linejoin="round"/>
<path d="M125.208 206.289C125.83 208.138 127.386 209.518 129.296 209.915" stroke="#1B1B1B" stroke-width="0.84" stroke-linecap="round" stroke-linejoin="round"/>
<path d="M163.906 267.384L165.854 269.297" stroke="#1B1B1B" stroke-width="0.84" stroke-linecap="round" stroke-linejoin="round"/>
<path d="M123.842 299.854L127.992 303.616C123.66 303.834 119.318 303.727 115.002 303.296" stroke="#1B1B1B" stroke-width="0.84" stroke-linecap="round" stroke-linejoin="round"/>
<path d="M188.652 303.732L184.083 307.499C185.896 306.809 187.85 306.575 189.774 306.818" stroke="#1B1B1B" stroke-width="0.84" stroke-linecap="round" stroke-linejoin="round"/>
<ellipse cx="397.442" cy="207.106" rx="28.5339" ry="28.6333" fill="white"/>
<mask id="mask13_0_1832" style="mask-type:alpha" maskUnits="userSpaceOnUse" x="368" y="178" width="58" height="58">
<ellipse cx="397.442" cy="207.106" rx="28.5339" ry="28.6333" fill="white"/>
</mask>
<g mask="url(#mask13_0_1832)">
<path d="M398.614 195.906L397.696 190.742C397.696 190.742 388.587 186.861 386.067 199.408C383.547 211.954 391.204 211.663 385.098 217.207C378.991 222.75 372.013 230.337 378.846 234.714C385.679 239.09 413.884 231.942 413.884 231.942L408.796 213.154L398.614 195.906Z" fill="#1B1B1B" stroke="#1B1B1B" stroke-width="0.84" stroke-linecap="round" stroke-linejoin="round"/>
<path d="M396.244 191.238C395.757 191.934 395.306 192.655 394.892 193.397C390.6 201.128 397.067 201.941 399.325 207.915C400.329 210.573 400.503 214.248 398.513 220.021C392.728 236.8 396 245.806 414.95 236.367C428.229 229.753 408.069 185.11 396.244 191.238Z" fill="#1B1B1B" stroke="#1B1B1B" stroke-width="0.84" stroke-linecap="round" stroke-linejoin="round"/>
<path d="M401.702 222.119L399.683 205.44L391.188 208.488L389.301 223.191" fill="white"/>
<mask id="mask14_0_1832" style="mask-type:alpha" maskUnits="userSpaceOnUse" x="389" y="205" width="13" height="19">
<path fill-rule="evenodd" clip-rule="evenodd" d="M401.702 222.119L399.683 205.44L391.188 208.488L389.301 223.191" fill="white"/>
</mask>
<g mask="url(#mask14_0_1832)">
<path d="M390.547 221.153C392.947 217.094 394.233 214.787 394.233 214.787L390.419 213.744C390.419 213.744 388.147 225.212 390.547 221.153Z" fill="white"/>
</g>
<path d="M401.702 222.119L399.683 205.44L391.188 208.488L389.301 223.191" stroke="#1B1B1B" stroke-width="0.84" stroke-linecap="round" stroke-linejoin="round"/>
<path d="M396.991 205.438C397.264 205.197 397.554 204.976 397.859 204.777C400.174 203.261 402.853 203.265 403.843 204.787C404.833 206.309 403.759 208.772 401.444 210.289C400.894 210.651 400.298 210.938 399.671 211.141" fill="white"/>
<path d="M396.991 205.438C397.264 205.197 397.554 204.976 397.859 204.777C400.174 203.261 402.853 203.265 403.843 204.787C404.833 206.309 403.759 208.772 401.444 210.289C400.894 210.651 400.298 210.938 399.671 211.141" stroke="#1B1B1B" stroke-width="0.84" stroke-linecap="round" stroke-linejoin="round"/>
<path d="M398.816 206.777C396.558 200.803 390.6 201.128 394.892 193.397C392.864 193.845 391.361 194.725 389.861 197.025L386.985 203.825C386.108 205.893 386.151 208.235 387.104 210.269C388.056 212.303 389.828 213.836 391.977 214.486L394.431 215.223" fill="white"/>
<mask id="mask15_0_1832" style="mask-type:alpha" maskUnits="userSpaceOnUse" x="386" y="193" width="13" height="23">
<path fill-rule="evenodd" clip-rule="evenodd" d="M398.816 206.777C396.558 200.803 390.6 201.128 394.892 193.398C392.864 193.845 391.361 194.725 389.861 197.025L386.985 203.826C386.108 205.893 386.151 208.236 387.104 210.27C388.056 212.303 389.828 213.836 391.977 214.487L394.431 215.223" fill="white"/>
</mask>
<g mask="url(#mask15_0_1832)">
<path d="M388.905 202.903C388.605 202.837 388.416 202.542 388.482 202.242L388.681 201.326C388.712 201.182 388.799 201.057 388.922 200.977C389.046 200.897 389.196 200.87 389.339 200.901C389.639 200.967 389.828 201.263 389.762 201.562L389.563 202.479C389.532 202.623 389.446 202.748 389.322 202.828C389.198 202.907 389.048 202.935 388.905 202.903Z" fill="#1B1B1B"/>
<path d="M390.937 202.165C390.27 203.7 390.078 204.155 390.078 204.155C387.403 203.543 389.418 206.403 389.418 206.403" stroke="#1B1B1B" stroke-width="0.84" stroke-linecap="round" stroke-linejoin="round"/>
<path d="M390.978 207.113C390.736 207.639 390.156 207.921 389.593 207.786" stroke="#1B1B1B" stroke-width="0.84" stroke-linecap="round" stroke-linejoin="round"/>
<path d="M394.077 203.594C393.778 203.528 393.589 203.232 393.655 202.933L393.854 202.016C393.885 201.872 393.971 201.747 394.095 201.667C394.219 201.588 394.369 201.561 394.512 201.592C394.811 201.658 395.001 201.953 394.935 202.253L394.736 203.169C394.705 203.313 394.618 203.439 394.495 203.518C394.371 203.598 394.221 203.625 394.077 203.594Z" fill="#1B1B1B"/>
<path d="M389.482 199.593C388.309 199.675 388.408 200.28 389.145 200.277C389.882 200.274 390.249 199.54 389.482 199.593Z" fill="#1B1B1B"/>
<path d="M394.767 200.263C395.8 200.827 395.459 201.336 394.79 201.026C394.121 200.715 394.091 199.894 394.767 200.263Z" fill="#1B1B1B"/>
</g>
<path d="M398.816 206.777C396.558 200.803 390.6 201.128 394.892 193.397C392.864 193.845 391.361 194.725 389.861 197.025L386.985 203.825C386.108 205.893 386.151 208.235 387.104 210.269C388.056 212.303 389.828 213.836 391.977 214.486L394.431 215.223" stroke="#1B1B1B" stroke-width="0.84" stroke-linecap="round" stroke-linejoin="round"/>
<path d="M385.36 264.846L386.752 226.729L385.36 225.688L379.948 228.721C377.798 229.928 376.469 232.202 376.47 234.667V267.047L385.36 264.846Z" fill="white"/>
<path fill-rule="evenodd" clip-rule="evenodd" d="M385.36 264.846L386.752 226.729L385.36 225.688L379.948 228.721C377.798 229.928 376.469 232.202 376.47 234.667V267.047L385.36 264.846Z" stroke="#1B1B1B" stroke-width="0.84" stroke-linecap="round" stroke-linejoin="round"/>
<path d="M380.216 234.577C378.481 238.805 377.606 243.676 380.395 247.121C386.399 254.535 385.36 264.846 385.36 264.846L409.257 276.663L411.22 274.461C411.22 274.461 410.262 230.573 411.762 223.969C411.762 223.969 407.222 215.838 405.563 216.189C405.164 216.273 385.36 225.688 385.36 225.688" fill="white"/>
<path d="M380.216 234.577C378.481 238.805 377.606 243.676 380.395 247.121C386.399 254.535 385.36 264.846 385.36 264.846L409.257 276.663L411.22 274.461C411.22 274.461 410.262 230.573 411.762 223.969C411.762 223.969 407.222 215.838 405.563 216.189C405.164 216.273 385.36 225.688 385.36 225.688" stroke="#1B1B1B" stroke-width="0.84" stroke-linecap="round" stroke-linejoin="round"/>
<path d="M400.731 270.579L405.917 268.452L421.841 243.414L411.762 223.969L410.041 218.595L406.753 216.092C409.551 215.864 412.28 217.034 414.043 219.219L433.501 243.298L412.748 270.891L409.658 274.549L405.721 272.972L400.731 270.579Z" fill="white"/>
<path fill-rule="evenodd" clip-rule="evenodd" d="M400.731 270.579L405.917 268.452L421.841 243.414L411.762 223.969L410.041 218.595L406.753 216.092C409.551 215.864 412.28 217.034 414.043 219.219L433.501 243.298L412.748 270.891L409.658 274.549L405.721 272.972L400.731 270.579Z" stroke="#1B1B1B" stroke-width="0.84" stroke-linecap="round" stroke-linejoin="round"/>
<path d="M402.325 228.351L415.549 243.184L406.655 260.386C406.963 263.755 417.545 267.913 417.545 267.913L431.594 248.323C434.027 244.927 433.809 240.304 431.066 237.153L414.949 218.66C412.904 216.309 409.736 215.264 406.693 215.938L405.563 216.189" fill="white"/>
<path d="M402.325 228.351L415.549 243.184L406.655 260.386C406.963 263.755 417.545 267.913 417.545 267.913L431.594 248.323C434.027 244.927 433.809 240.304 431.066 237.153L414.949 218.66C412.904 216.309 409.736 215.264 406.693 215.938L405.563 216.189" stroke="#1B1B1B" stroke-width="0.84" stroke-linecap="round" stroke-linejoin="round"/>
<path d="M408.46 207.733C409.436 208.619 410.157 209.749 410.549 211.007" stroke="#1B1B1B" stroke-width="0.84" stroke-linecap="round" stroke-linejoin="round"/>
<path d="M400.883 205.641C401.173 205.609 401.497 205.585 401.726 205.767C401.955 205.95 401.927 206.415 401.637 206.451" stroke="#1B1B1B" stroke-width="0.84" stroke-linecap="round" stroke-linejoin="round"/>
</g>
<ellipse cx="397.442" cy="207.106" rx="28.5339" ry="28.6333" stroke="#1B1B1B" stroke-width="0.84" stroke-linecap="round" stroke-linejoin="round"/>
<ellipse cx="295.76" cy="71.0589" rx="25.7976" ry="25.8875" fill="white"/>
<mask id="mask16_0_1832" style="mask-type:alpha" maskUnits="userSpaceOnUse" x="269" y="45" width="53" height="52">
<ellipse cx="295.76" cy="71.0589" rx="25.7976" ry="25.8875" fill="white"/>
</mask>
<g mask="url(#mask16_0_1832)">
<path d="M338.48 124.327L350.064 123.406C350.064 123.406 311.771 88.6376 310.71 88.0474C309.649 87.4573 303.577 94.8058 303.577 94.8058L304.49 105.348L307.68 107.269L332.1 127.458" fill="white"/>
<path d="M338.48 124.327L350.064 123.406C350.064 123.406 311.771 88.6376 310.71 88.0474C309.649 87.4573 303.577 94.8058 303.577 94.8058L304.49 105.348L307.68 107.269L332.1 127.458" stroke="#1B1B1B" stroke-width="0.84" stroke-linecap="round" stroke-linejoin="round"/>
<path d="M310.71 88.0476C310.71 88.0476 299.473 80.7653 279.403 84.8172C276.225 85.4588 273.887 88.1964 273.664 91.4417L270.535 136.905L315.755 129.134L312.634 103.712" fill="white"/>
<mask id="mask17_0_1832" style="mask-type:alpha" maskUnits="userSpaceOnUse" x="270" y="83" width="46" height="54">
<path fill-rule="evenodd" clip-rule="evenodd" d="M310.71 88.0472C310.71 88.0472 299.473 80.7648 279.403 84.8168C276.225 85.4584 273.887 88.196 273.664 91.4412L270.535 136.904L315.755 129.134L312.634 103.712" fill="white"/>
</mask>
<g mask="url(#mask17_0_1832)">
<ellipse cx="295.54" cy="84.6857" rx="6.29242" ry="9.89983" transform="rotate(-60.8232 295.54 84.6857)" fill="white" stroke="#1B1B1B" stroke-width="0.84" stroke-linecap="round" stroke-linejoin="round"/>
</g>
<path d="M310.71 88.0476C310.71 88.0476 299.473 80.7653 279.403 84.8172C276.225 85.4588 273.887 88.1964 273.664 91.4417L270.535 136.905L315.755 129.134L312.634 103.712" stroke="#1B1B1B" stroke-width="0.84" stroke-linecap="round" stroke-linejoin="round"/>
<path d="M286.381 71.5227C286.598 71.9523 288.952 84.0687 288.952 84.0687C288.952 84.0687 293.929 90.6277 299.57 90.0832C304.289 89.6277 302.555 86.1821 302.555 86.1821L298.283 69.522L286.381 71.5227Z" fill="white"/>
<mask id="mask18_0_1832" style="mask-type:alpha" maskUnits="userSpaceOnUse" x="286" y="69" width="17" height="22">
<path fill-rule="evenodd" clip-rule="evenodd" d="M286.382 71.5222C286.599 71.9518 288.953 84.0683 288.953 84.0683C288.953 84.0683 293.929 90.6272 299.571 90.0827C304.29 89.6273 302.555 86.1817 302.555 86.1817L298.283 69.5215L286.382 71.5222Z" fill="white"/>
</mask>
<g mask="url(#mask18_0_1832)">
<path d="M294.608 76.4643C300.196 87.5358 302.855 85.4093 302.855 85.4093L301.169 69.9023L289.905 71.4409" fill="white"/>
</g>
<path fill-rule="evenodd" clip-rule="evenodd" d="M286.381 71.5227C286.598 71.9523 288.952 84.0687 288.952 84.0687C288.952 84.0687 293.929 90.6277 299.57 90.0832C304.289 89.6277 302.555 86.1821 302.555 86.1821L298.283 69.522L286.381 71.5227Z" stroke="#1B1B1B" stroke-width="0.84" stroke-linecap="round" stroke-linejoin="round"/>
<path d="M294.608 76.4643C299.421 76.2045 305.34 75.3859 305.572 72.9639C306.253 65.8475 298.108 52.937 298.108 52.937L289.641 59.6228L284.924 69.4898L286.838 72.7605" fill="white"/>
<path d="M294.608 76.4643C299.421 76.2045 305.34 75.3859 305.572 72.9639C306.253 65.8475 298.108 52.937 298.108 52.937L289.641 59.6228L284.924 69.4898L286.838 72.7605" stroke="#1B1B1B" stroke-width="0.84" stroke-linecap="round" stroke-linejoin="round"/>
<path d="M287.238 70.7082C289.383 69.0566 290.336 64.8931 289.362 63.4415C289.362 63.4415 303.151 56.17 304.011 49.7066C304.872 43.2431 293.306 46.278 287.882 55.7447C287.882 55.7447 290.511 49.419 285.509 53.6486C280.506 57.8783 280.707 63.1664 280.707 63.1664C280.707 63.1664 278.458 69.787 287.362 76.7997L287.238 70.7082Z" fill="#1B1B1B" stroke="#1B1B1B" stroke-width="0.84" stroke-linecap="round" stroke-linejoin="round"/>
<path d="M290.546 67.8812C283.265 62.0316 280.823 71.049 287.415 74.3062C287.739 74.4688 288.072 74.6116 288.413 74.7337" fill="white"/>
<path d="M290.546 67.8812C283.265 62.0316 280.823 71.049 287.415 74.3062C287.739 74.4688 288.072 74.6116 288.413 74.7337" stroke="#1B1B1B" stroke-width="0.84" stroke-linecap="round" stroke-linejoin="round"/>
<path d="M276.595 86.0703L238.746 112.313C229.998 117.56 229.884 126.803 238.552 132.183L256.559 147.789C256.559 147.789 264.095 138.234 266.01 135.211L255.164 123.855C255.164 123.855 272.837 110.744 279.246 106.136" fill="white"/>
<path d="M276.595 86.0703L238.746 112.313C229.998 117.56 229.884 126.803 238.552 132.183L256.559 147.789C256.559 147.789 264.095 138.234 266.01 135.211L255.164 123.855C255.164 123.855 272.837 110.744 279.246 106.136" stroke="#1B1B1B" stroke-width="0.84" stroke-linecap="round" stroke-linejoin="round"/>
<path d="M301.972 63.5447C302.152 63.4684 302.293 63.3214 302.361 63.1382C302.43 62.9549 302.42 62.7516 302.333 62.576L301.778 61.4685C301.583 61.1018 301.136 60.9513 300.759 61.1256C300.579 61.2019 300.438 61.3489 300.37 61.5322C300.301 61.7154 300.311 61.9188 300.397 62.0943L300.953 63.2019C301.148 63.5685 301.595 63.719 301.972 63.5447Z" fill="#1B1B1B"/>
<path d="M299.721 64.0112C300.646 65.4067 300.914 65.8207 300.914 65.8207C303.442 64.7522 301.957 67.9189 301.957 67.9189" stroke="#1B1B1B" stroke-width="0.84" stroke-linecap="round" stroke-linejoin="round"/>
<path d="M300.544 68.8906C300.875 69.3661 301.494 69.5423 302.025 69.3115" stroke="#1B1B1B" stroke-width="0.84" stroke-linecap="round" stroke-linejoin="round"/>
<path d="M297.456 65.3631C297.636 65.2868 297.776 65.1398 297.845 64.9565C297.913 64.7733 297.903 64.57 297.817 64.3944L297.261 63.2868C297.067 62.9202 296.619 62.7697 296.242 62.944C296.062 63.0203 295.921 63.1673 295.853 63.3505C295.785 63.5338 295.795 63.7371 295.881 63.9127L296.436 65.0202C296.631 65.3869 297.079 65.5374 297.456 65.3631Z" fill="#1B1B1B"/>
<path d="M300.156 59.5017C301.76 59.2534 301.738 60.1588 300.746 60.3761C299.754 60.5935 299.108 59.6639 300.156 59.5017Z" fill="#1B1B1B"/>
<path d="M295.483 61.3277C294.27 62.3567 294.889 62.9026 295.691 62.3064C296.494 61.7102 296.275 60.6555 295.483 61.3277Z" fill="#1B1B1B"/>
<path d="M297.73 50.8525C296.897 52.639 295.403 54.0121 293.946 55.3356" stroke="#1B1B1B" stroke-width="0.84" stroke-linecap="round" stroke-linejoin="round"/>
<path d="M287.157 68.9927C286.928 69.0086 286.684 69.0306 286.507 69.1764C286.33 69.3222 286.279 69.6396 286.468 69.7692" stroke="#1B1B1B" stroke-width="0.84" stroke-linecap="round" stroke-linejoin="round"/>
</g>
<ellipse cx="295.76" cy="71.0589" rx="25.7976" ry="25.8875" stroke="#1B1B1B" stroke-width="0.84" stroke-linecap="round" stroke-linejoin="round"/>
</g>
<defs>
<linearGradient id="paint0_linear_0_1832" x1="94.9796" y1="74.5245" x2="90.2754" y2="59.0998" gradientUnits="userSpaceOnUse">
<stop offset="0.0014" stop-color="#FF458B"/>
<stop offset="0.9609" stop-color="#8F38F6"/>
</linearGradient>
</defs>
</svg>
